<svg width="45" height="28" viewBox="0 0 45 28" fill="none" xmlns="http://www.w3.org/2000/svg">
<path fill-rule="evenodd" clip-rule="evenodd" d="M43.6944 3.657C43.6354 3.615 43.6144 3.497 43.5804 3.411C42.8214 1.4 41.6434 1.901 41.6174 3.183C41.5484 6.522 40.3604 3.593 37.9264 6.69C37.8934 6.733 37.8444 6.766 37.8564 6.823C37.9354 6.849 37.8814 6.823 37.9844 6.815C37.9844 6.829 38.0224 6.929 38.0234 6.939C38.0304 7.02 37.9894 6.985 37.9564 7.057C38.6634 7.599 36.9444 7.777 36.5664 7.864C36.3801 7.8801 36.1997 7.93749 36.0384 8.032C35.8184 9.418 33.5384 9.424 33.4384 8.548C33.4384 8.479 32.2944 6.437 31.8144 6.295C31.4384 6.184 30.9074 6.055 30.9654 6.607C31.0094 7.007 30.4884 7.187 30.1964 7.859C27.8034 9.905 29.6644 6.45 29.9274 6.2C30.1524 6.049 29.8024 5.518 29.5274 5.366C27.4134 4.203 26.9834 4.851 25.8454 4.189C24.9675 3.53363 23.9471 3.09535 22.8674 2.91C17.3554 2.973 11.7294 1.746 6.42237 0.51L4.95037 0.129C4.79074 0.0752542 4.62771 0.0321598 4.46237 0C4.51837 0.39 4.36237 0.693 4.53437 1.035C4.56537 1.097 4.59537 1.178 4.52637 1.217C3.65037 1.181 3.51537 0.0539992 2.83637 0.00499916L2.81937 0.0349998C2.80737 0.0679998 2.81337 0.0349996 2.80537 0.0839996C2.01237 4.868 3.39737 2.107 0.60037 5.534C0.21337 6.008 -0.36363 10.701 0.31037 10.934C0.33537 10.887 0.32937 10.85 0.38837 10.84C0.44737 10.83 0.46337 10.859 0.47537 10.91C0.64037 11.6 1.37537 14.349 1.31637 14.51C1.09037 15.127 3.72737 17.934 5.02637 18.034C6.76537 18.934 8.49337 20.148 10.4264 20.469C10.6264 20.503 11.4884 20.662 11.5264 20.642C11.5782 20.4984 11.6118 20.3489 11.6264 20.197L13.1874 20.419C13.2294 19.865 13.2614 20.701 13.4214 20.819C13.8404 21.196 14.2049 21.6295 14.5044 22.107C14.6574 22.933 15.7654 24.476 16.1544 23.439C16.2264 23.248 16.1544 23.204 16.3354 23.083C18.4164 21.726 19.3654 27.438 20.3354 27.083C21.3674 26.708 21.3154 25.952 21.0544 25.183C19.5974 22.741 32.4124 22.509 33.8094 22.546C33.8094 22.546 34.8294 23.474 34.8764 23.546C35.1884 24.041 34.7854 24.678 35.6044 26.198C35.6044 26.198 35.8824 27.13 36.6284 27.254C36.7162 27.2755 36.8074 27.2791 36.8966 27.2645C36.9858 27.25 37.0712 27.2177 37.1476 27.1694C37.2241 27.1211 37.29 27.058 37.3415 26.9837C37.393 26.9094 37.429 26.8255 37.4474 26.737C37.9424 25.285 34.9544 20.606 38.3194 17.705C40.1924 16.761 39.8604 11.334 39.8724 11.341C39.9724 11.385 39.9124 11.401 40.0024 11.378C40.7924 11.186 40.8244 7.848 42.8204 7.95L42.4634 6.856C42.2194 6.401 44.0954 4.091 44.6004 4.307C44.1634 4.02 44.5384 4.136 43.6944 3.657Z" fill="#B472F5"/>
</svg>
