<svg width="45" height="29" viewBox="0 0 45 29" fill="none" xmlns="http://www.w3.org/2000/svg">
<path fill-rule="evenodd" clip-rule="evenodd" d="M43.7178 4.39101C43.6588 4.34901 43.6378 4.23101 43.6038 4.14501C42.8448 2.13401 41.6668 2.63501 41.6408 3.91701C41.5718 7.25601 40.3838 4.32701 37.9498 7.42401C37.9168 7.46701 37.8678 7.50001 37.8798 7.55701C37.9588 7.58301 37.9048 7.55701 38.0078 7.54901C38.0078 7.56301 38.0458 7.66301 38.0468 7.67301C38.0538 7.75401 38.0128 7.71901 37.9798 7.79101C38.6868 8.33301 36.9678 8.51101 36.5898 8.59801C36.4035 8.61411 36.2231 8.67149 36.0618 8.76601C35.8418 10.152 33.5618 10.158 33.4618 9.28201C33.4618 9.21301 32.3178 7.17101 31.8378 7.02901C31.4618 6.91801 30.9308 6.78901 30.9888 7.34101C31.0328 7.74101 30.5118 7.92101 30.2198 8.59301C27.8268 10.639 29.6878 7.18401 29.9508 6.93401C30.1758 6.78301 29.8258 6.25201 29.5508 6.10001C27.4368 4.93701 27.0068 5.58501 25.8688 4.92301C24.991 4.26764 23.9705 3.82936 22.8908 3.64401C17.3788 3.70701 11.7528 2.48001 6.44581 1.24401L4.97381 0.863008C4.81417 0.809263 4.65115 0.766169 4.48581 0.734009C4.54181 1.12401 4.38581 1.42701 4.55781 1.76901C4.58881 1.83101 4.61881 1.91201 4.54981 1.95101C3.67381 1.91501 3.53881 0.788008 2.85981 0.739008L2.84281 0.769009C2.83081 0.802009 2.83681 0.769008 2.82881 0.818008C2.03581 5.60201 3.42081 2.84101 0.623808 6.26801C0.236808 6.74201 -0.340192 11.435 0.333808 11.668C0.358808 11.621 0.352808 11.584 0.411808 11.574C0.470808 11.564 0.486808 11.593 0.498808 11.644C0.663808 12.334 1.39881 15.083 1.33981 15.244C1.11381 15.861 3.75081 18.668 5.04981 18.768C6.78881 19.668 8.51681 20.882 10.4498 21.203C10.6498 21.237 11.5118 21.396 11.5498 21.376C11.6016 21.2324 11.6352 21.0829 11.6498 20.931L13.2108 21.153C13.2528 20.599 13.2848 21.435 13.4448 21.553C13.8639 21.93 14.2284 22.3635 14.5278 22.841C14.6808 23.667 15.7888 25.21 16.1778 24.173C16.2498 23.982 16.1778 23.938 16.3588 23.817C18.4398 22.46 19.3888 28.172 20.3588 27.817C21.3908 27.442 21.3388 26.686 21.0778 25.917C19.6208 23.475 32.4358 23.243 33.8328 23.28C33.8328 23.28 34.8528 24.208 34.8998 24.28C35.2118 24.775 34.8088 25.412 35.6278 26.932C35.6278 26.932 35.9058 27.864 36.6518 27.988C36.7396 28.0095 36.8308 28.0131 36.9201 27.9986C37.0093 27.984 37.0946 27.9517 37.1711 27.9034C37.2475 27.8552 37.3135 27.792 37.365 27.7177C37.4164 27.6434 37.4524 27.5595 37.4708 27.471C37.9658 26.019 34.9778 21.34 38.3428 18.439C40.2158 17.495 39.8838 12.068 39.8958 12.075C39.9958 12.119 39.9358 12.135 40.0258 12.112C40.8158 11.92 40.8478 8.58201 42.8438 8.68401L42.4868 7.59001C42.2428 7.13501 44.1188 4.82501 44.6238 5.04101C44.1868 4.75401 44.5618 4.87001 43.7178 4.39101Z" fill="#22C3FF"/>
</svg>
