<svg width="40" height="41" viewBox="0 0 40 41" fill="none" xmlns="http://www.w3.org/2000/svg">
<path fill-rule="evenodd" clip-rule="evenodd" d="M0.331055 33.332L6.03687 33.771L6.53687 31.087L2.85205 28.97L6.90186 27.5551L9.79199 26.496L10.9739 24.62L13.2048 24.04L12.625 20.614L15.05 19.564V21.009L15.6299 23.28L17.804 22.634L19.8201 23.28L21.8889 22.08L23.26 22.6379L24.7139 18.988L26.541 19.572V18.4L25.834 17.442L27.644 16.4139L29.717 16.967V20.428L31.9089 21.214L33.4509 24.043L36.469 26.626L39.6689 27.241L38.7859 29.455L35.7639 30.861V32.275L34.103 32.363L33.4529 30.863L31.9109 30.511L30.457 35.011L27 36.4041L27.615 38.719L26.908 40.3051L25.3079 39.514L23.946 36.4041L24.0339 35.275L18.4639 31.475L17.032 31.826L17.8049 33.326L19.2419 35.355L21.311 36.884L19.822 37.323L18.605 39.506L17.8049 37.323L15.9419 35.267L14.2549 33.325L12.199 34.208L9.51099 33.764L8.98901 35.354L7.48193 37.322V38.161L5.27686 40.191L2.46606 40.828L0.331055 39.506V33.332ZM19.2988 19.073H18.073L15.886 14.667L13.303 16.578L11.564 15.423V12.484L13.303 10.718L15.886 9.21802L21.052 2.651L25.4519 1.59204L28.022 0.00195312L32.5601 0.973022L32.1379 1.59204L30.1519 3.88501L31.3521 5.29895L30.8379 6.27002L31.3521 9.53796L32.552 10.72L29.7048 13.83L25.668 14.186L24.6309 13.83L25.2109 10.72L28.011 8.47498L25.0859 7.41602L23.469 9.21594L20.9519 11.36L21.04 13.829L22.05 14.668L21.6189 16.0031L20.697 18.366L19.375 18.3L19.2988 19.073Z" fill="#22C3FF"/>
</svg>
