<svg width="31" height="32" viewBox="0 0 31 32" fill="none" xmlns="http://www.w3.org/2000/svg">
<path fill-rule="evenodd" clip-rule="evenodd" d="M0 26.1246L4.47229 26.4686L4.8642 24.3649L1.97599 22.7055L5.15028 21.5965L7.41561 20.7664L8.34199 19.2959L10.0906 18.8414L9.63616 16.156L11.5369 15.333V16.4656L11.9914 18.2457L13.6955 17.7393L15.2757 18.2457L16.8973 17.305L17.972 17.7424L19.1116 14.8815L20.5437 15.3393V14.4207L19.9895 13.6698L21.4083 12.8639L23.0331 13.2975V16.0102L24.7512 16.6263L25.9598 18.8437L28.3254 20.8683L30.8336 21.3503L30.1414 23.0857L27.7727 24.1877V25.2961L26.4709 25.365L25.9613 24.1893L24.7527 23.9134L23.6131 27.4405L20.9035 28.5324L21.3855 30.3469L20.8313 31.5901L19.5772 30.9701L18.5097 28.5324L18.5786 27.6475L14.2127 24.669L13.0904 24.9442L13.6963 26.1199L14.8226 27.7102L16.4444 28.9087L15.2773 29.2527L14.3233 30.9638L13.6963 29.2527L12.236 27.6412L10.9137 26.119L9.30223 26.8112L7.19535 26.4632L6.78622 27.7094L5.60495 29.252V29.9096L3.87658 31.5007L1.67345 32L0 30.9638V26.1246ZM14.8672 14.9481H13.9064L12.1922 11.4947L10.1676 12.9925L8.8045 12.0872V9.7836L10.1676 8.39939L12.1922 7.22367L16.2414 2.07636L19.6901 1.24633L21.7045 0L25.2615 0.761137L24.9307 1.24633L23.3739 3.04359L24.3147 4.15186L23.9117 4.91299L24.3147 7.47445L25.2552 8.40092L23.0236 10.8386L19.8594 11.1177L19.0465 10.8386L19.5012 8.40092L21.6959 6.64127L19.4032 5.81124L18.1358 7.22205L16.1629 8.90258L16.232 10.8378L17.0236 11.4954L16.6857 12.5419L15.9631 14.394L14.9269 14.3423L14.8672 14.9481Z" fill="#B472F5"/>
</svg>
