<svg width="38" height="32" viewBox="0 0 38 32" fill="none" xmlns="http://www.w3.org/2000/svg">
<path d="M0.20813 6.10526C0.166504 5.93684 0 5.85263 0 5.68421C0 5.5579 0.124878 5.43158 0 5.30526L0.124878 5.26316C-0.083252 4.84211 -0.0416261 4.29474 0.457886 4.25263C0.457886 4.37895 0.333008 4.37895 0.291382 4.46316C0.249756 4.54737 0.249756 4.67368 0.291382 4.75789C0.333008 5.01053 0.457886 5.22105 0.707642 5.30526C0.62439 5.30526 0.541138 5.34737 0.499512 5.38947C0.541138 5.43158 0.541138 5.47368 0.582764 5.51579C0.374634 5.47368 0.582764 6.94737 0.874146 6.61053C0.749268 6.94737 1.1239 6.90526 1.24878 6.94737C1.24878 6.77895 1.29041 6.61053 1.33203 6.44211C1.45691 6.52632 1.49854 6.65263 1.49854 6.77895H1.33203C1.33203 6.86316 1.41528 6.94737 1.49854 6.98947C1.33203 6.98947 1.20715 7.07368 1.16553 7.24211C1.29041 7.24211 1.37366 7.32632 1.49854 7.36842C1.33203 7.41053 1.16553 7.45263 1.04065 7.49474C1.04065 7.57895 1.1239 7.62105 1.20715 7.57895V7.70526H1.33203C1.20715 7.83158 1.41528 7.91579 1.45691 7.78947C1.54016 7.91579 1.41528 8.04211 1.49854 8.16842C1.54016 8.25263 1.62341 8.29474 1.66504 8.33684C1.70667 8.42105 1.74829 8.67368 1.9148 8.54737C1.9148 8.71579 2.12293 8.63158 2.16455 8.8421C2.28943 8.8 2.28943 8.71579 2.20618 8.63158H2.33106C2.28943 8.8 2.49756 9.01053 2.66407 8.92632C2.78894 8.88421 2.83057 8.67368 2.95545 8.58947C2.49756 8.88421 2.58081 8.12632 2.83057 8.16842C2.70569 8.21053 2.66407 8.37895 2.74732 8.50526L3.0387 8.37895L2.95545 8.50526C3.08033 8.50526 3.24683 8.50526 3.28846 8.63158C3.28846 8.54737 3.33008 8.54737 3.37171 8.54737C3.28846 8.58947 3.62146 8.46316 3.53821 8.50526C3.66309 8.50526 4.28748 8.63158 4.28748 8.8C4.37073 8.75789 4.45398 8.67368 4.53724 8.58947C4.57886 8.71579 4.74537 8.96842 4.74537 8.67368C4.82862 8.75789 4.9535 8.8 5.03675 8.71579C4.9535 8.88421 5.16163 8.8 5.20325 8.96842C5.41138 8.71579 5.49463 9.09474 5.53626 9.26316L5.70276 9.01053V9.09474H5.78602C5.78602 9.17895 5.82764 9.22105 5.91089 9.17895C5.70276 9.34737 6.11902 9.43158 6.03577 9.22105C6.11902 9.22105 6.20228 9.26316 6.2439 9.34737C6.36878 9.01053 6.74341 9.38947 6.45203 9.43158C6.95155 9.6421 7.2013 9.97895 7.45106 10.4C7.32618 10.4842 7.2013 10.4421 7.07642 10.4842C7.24293 10.5263 7.28455 10.5684 7.28455 10.7789C7.32618 10.6947 7.36781 10.6526 7.49268 10.6526C7.45106 10.7368 7.45106 10.8211 7.45106 10.9053C7.74244 10.6526 7.95057 11.8316 7.9922 12C8.11707 12.7158 7.95057 13.4737 7.2013 13.7263C7.45106 13.9789 7.90894 13.9368 8.20033 13.8105C8.45008 13.6842 8.57496 13.3053 8.78309 13.2632C9.1161 13.1789 9.07447 13.6 8.99122 13.8105C8.86634 14.1053 8.57496 14.3158 8.49171 14.6526C8.82472 14.6526 9.19935 13.8947 9.53236 14.3158C9.82374 14.6947 9.07447 14.8632 8.99122 15.1579C9.44911 15.3684 9.74049 14.8211 10.1567 14.8211C10.0735 14.7789 9.99024 14.7789 9.86537 14.7789C9.90699 14.5684 9.86537 14.1895 10.1151 14.1474C10.4898 14.1053 10.4898 14.6947 10.24 14.8211C10.4065 14.8211 10.4065 14.6526 10.4898 14.5684C10.6146 14.4 10.7811 14.3158 10.9476 14.2316C11.3639 13.9789 11.7385 13.6842 12.1548 13.4316C12.3213 13.3474 12.5711 13.2211 12.7792 13.2211C12.9041 13.2211 13.1122 13.3474 13.2787 13.2632C13.6117 13.0947 13.2371 12.6737 13.1954 12.4632C13.1122 12.0842 13.4868 11.8316 13.6117 11.4947C13.7782 11.0737 13.695 10.6947 13.9447 10.2737C14.1528 9.89474 14.7356 9.05263 13.9863 8.88421C14.0696 8.67368 14.0696 8.42105 14.1112 8.21053C13.8198 8.75789 13.2371 9.38947 12.7376 8.67368C12.3629 8.12632 12.6543 7.36842 12.9041 6.82105C13.2371 6.14737 13.8615 5.89474 14.3194 5.34737C14.5275 5.09474 14.4859 4.8 14.5691 4.50526C14.6524 4.12632 14.9437 3.83158 15.1102 3.49474C14.8605 3.41053 14.694 3.70526 14.4859 3.74737C14.4442 3.66316 14.4859 3.53684 14.5275 3.49474L14.4026 3.28421C14.4026 3.07368 14.4859 2.90526 14.6107 2.77895C14.694 2.69474 14.9854 2.52632 14.6524 2.44211C14.9437 2.31579 15.4016 2.02105 15.2767 1.6C15.2351 1.47368 14.7772 1.09474 15.1102 1.01053C15.1102 1.64211 15.6514 0.926316 15.36 0.757895C15.4433 0.673684 15.5265 0.631579 15.6098 0.631579L15.5681 0.757895C15.8179 0.757895 15.8179 1.47368 16.1509 1.30526C16.359 1.13684 16.1509 0.673684 16.3174 0.505263C16.4007 0.421053 16.6088 0.336842 16.6504 0.505263C16.692 0.631579 16.4423 0.8 16.5672 0.926316C16.7337 1.09474 17.5246 0.926316 17.8576 0.8C17.9824 0.842106 17.9824 1.05263 18.1073 1.09474C18.3571 0.547369 18.9815 0.421053 19.5226 0.378948C19.6475 0.378948 19.814 0.378947 19.9389 0.294737C20.0221 0.252631 20.147 0.0842104 20.2302 0.0842104C20.3551 0.0842104 20.3551 0.252632 20.4384 0.252632C20.5633 0.252632 20.6049 0.126316 20.5633 0C20.7714 0.126316 20.813 0.463158 21.0628 0.547369C21.3541 0.71579 21.5207 0.421053 21.812 0.378948C22.145 0.336842 22.4364 0.505263 22.7278 0.589474C22.9776 0.673684 23.2689 0.673684 23.5187 0.842105C23.7685 1.01053 23.935 1.22105 24.1847 1.38947C24.4761 1.55789 24.7675 1.55789 25.0589 1.6C25.7665 1.68421 26.5158 2.06316 27.2234 1.81053C27.1402 1.85263 27.4732 1.72632 27.4315 1.72632C27.6397 1.55789 27.8062 1.38947 27.8894 1.76842C27.9311 1.89474 27.8478 2.02105 27.8894 2.14737C27.8894 2.27368 28.0143 2.4 27.9311 2.56842L27.9727 2.44211C27.8894 2.52632 27.9311 2.65263 27.9727 2.77895C28.1808 2.65263 28.2224 2.65263 28.4722 2.65263C28.4306 2.77895 28.3057 2.86316 28.1808 2.77895C28.2224 2.90526 28.3057 2.98947 28.2224 3.11579C28.3473 3.07368 28.4306 3.03158 28.5138 2.94737C28.4722 3.03158 28.4306 3.11579 28.3473 3.2C28.5971 3.32632 28.7636 3.11579 28.9301 2.98947C29.1798 2.86316 29.4296 2.82105 29.721 2.86316C30.3037 2.94737 30.8033 3.24211 31.3028 3.41053C31.3444 3.11579 31.6358 3.32632 31.6358 3.57895C31.4693 3.49474 31.4693 3.74737 31.5525 3.83158C31.6358 3.91579 31.8439 3.87368 31.9272 3.9579C31.8439 3.70526 32.1353 3.49474 32.3018 3.74737C32.385 3.91579 32.2602 4.16842 32.5099 4.25263C32.4267 4.12632 32.5099 4.12632 32.5099 4.08421L32.5932 3.91579C33.4257 3.07368 34.7161 5.51579 34.0085 5.76842C33.9668 5.55789 33.842 5.72632 33.8003 5.85263C33.7171 6.06316 33.842 6.31579 33.9252 6.52632C34.0917 7.03158 34.8826 9.01053 34.841 9.47368C34.841 9.85263 34.5496 10.1474 34.175 9.97895C34.175 10.0211 34.175 10.0632 34.175 10.0632C34.0917 10.0632 34.0085 10.0632 33.9668 10.0211C33.9668 10.1053 33.9252 10.1895 33.842 10.1895C33.842 9.97895 33.6338 10.1053 33.5089 10.1053C33.4257 10.1053 33.1343 10.1053 33.3424 9.93684C33.2176 9.81053 32.7181 9.89474 32.8846 10.1053C32.8013 10.1474 32.7181 10.1895 32.6348 10.1895V10.3158L33.0094 10.2737C33.0094 10.7368 31.5109 10.1474 31.3444 10.6105C31.1779 11.2 32.1769 11.1579 32.4683 11.1579C32.9678 11.1158 33.8003 11.1579 33.9668 11.7895C34.0917 11.7053 34.175 12 34.2998 12.0421L34.4247 12.1684C34.6745 12.5053 35.2156 12.3789 35.4654 12.7158C35.5902 12.8842 35.6319 13.4316 36.0065 13.3474V13.5158L36.0898 13.3474C36.2146 13.4316 36.506 13.5579 36.2563 13.6842C36.6309 13.8947 36.506 14.3579 36.5893 14.6947C36.6725 15.1158 37.0472 15.4105 37.4634 15.4526C37.3802 15.5789 37.172 15.5368 37.0888 15.6632C36.9223 15.7895 36.9639 15.9579 37.0055 16.1263C37.0472 16.5474 37.0888 18.6105 36.7974 18.5684C37.0888 18.7368 36.839 19.0316 36.6309 19.1158C37.3385 19.9579 37.172 20.9263 36.4644 21.7263C36.173 22.0632 35.7984 22.2737 36.0065 22.7368C36.1314 23.1158 36.5893 23.6632 36.0481 23.9158C35.8816 24 35.6735 23.9579 35.5486 24.0842C35.3821 24.1684 35.3821 24.3368 35.2572 24.4632C35.1324 24.5895 34.9242 24.5895 34.7577 24.7158C34.6328 24.8 34.5496 24.9684 34.4663 25.1368C34.4247 25.2632 33.8836 26.3579 33.8836 26.3579C33.8836 26.5263 33.8836 26.6526 33.8003 26.8211C33.7587 26.9053 33.6338 26.9053 33.5922 27.0316C33.5506 27.1579 33.6754 27.2421 33.6338 27.3684C33.5922 27.4947 33.4257 27.4947 33.3424 27.6211C33.1759 27.3263 32.6764 27.4947 32.5932 27.7474C32.5099 27.9579 32.718 28.1263 32.718 28.3368C32.7597 28.5474 32.6348 28.7579 32.5515 28.9684C32.4267 29.1789 31.8855 29.6 32.052 29.8526C32.1769 30.1053 32.5932 30.0211 32.6348 30.3579C32.2185 30.2737 32.052 30.2737 31.8855 29.8526C31.719 30.0632 31.4693 30.1053 31.2195 30.1895C30.8033 30.4421 29.8459 30.8211 29.5961 30.9895C29.4712 31.0737 29.2215 31.3684 29.0966 31.2C29.055 31.3684 28.9301 31.3263 28.8468 31.2421C28.8052 31.3684 28.8052 31.5368 28.6387 31.5368C28.4722 31.4947 28.5138 31.2842 28.5138 31.1579C28.3889 31.2 27.7646 31.4526 27.8478 31.1158C27.7646 31.3263 27.7229 31.4526 27.5148 31.4947C27.5564 31.1579 26.7239 31.4105 26.6823 31.5789C26.5158 31.4947 26.599 31.2421 26.3909 31.2C26.3909 31.7053 25.5584 31.2842 25.9746 31.9579C25.8081 31.9579 25.6833 31.9579 25.5584 31.8737C25.4751 31.7895 25.4751 31.6632 25.3502 31.6211C25.1421 31.5368 24.8091 31.7895 24.8507 32C24.4345 31.8737 24.0598 31.7053 23.6436 31.5789C23.5603 31.5368 23.1024 31.5368 23.1024 31.4105C23.0608 31.7474 22.7694 31.2842 22.6029 31.3263C22.6862 31.4947 22.4364 31.4947 22.3115 31.4947C22.1867 31.4947 22.1034 31.4526 21.9785 31.4526C21.8953 31.4526 21.812 31.5789 21.6872 31.5368L21.7288 31.4105C21.3125 31.4105 20.9795 31.1158 20.6049 30.9474C20.6049 31.0316 20.6049 31.1158 20.6465 31.2C20.48 30.9895 20.48 30.7789 20.5216 30.5263C20.5216 30.4421 20.6465 30.2316 20.48 30.2737C20.3967 29.8526 20.7298 29.6 20.813 29.2211C20.9795 29.4737 21.2293 28.9684 21.3541 28.8421L21.2293 28.7579C21.6039 28.6316 21.4374 28.4211 21.2709 28.2105C21.3541 28.2947 21.5623 28.2526 21.479 28.1263H21.5623C21.5207 28.0842 21.5207 28 21.5207 27.9158C21.6455 28 21.7288 28.2526 21.812 28C21.8537 27.8316 21.6039 27.6632 21.7704 27.4947C21.5207 27.4947 21.5623 27.2 21.5207 27.0316C21.4374 26.7789 21.1876 26.5263 21.3125 26.2737C21.146 26.2737 20.9379 25.9789 20.9379 25.8105C20.6465 25.9789 20.7714 25.4316 20.7714 25.3053C20.6465 25.3053 20.6049 25.4316 20.5216 25.5158C20.4384 25.3474 20.3967 25.2632 20.2302 25.1789C20.6465 25.4316 20.9379 24.7158 21.0211 24.4211C21.1044 24.1684 21.0628 23.7895 21.0211 23.5368C20.9795 23.4526 21.1044 23.4105 20.9795 23.3684C20.8546 23.3263 20.813 23.4947 20.7298 23.5368C20.6881 23.4947 20.7298 23.3684 20.813 23.3684C20.6465 23.4526 20.6049 23.2842 20.6881 23.1579C20.5216 23.1579 20.3551 22.7789 20.48 22.6526C20.147 22.5684 19.9805 22.2316 19.7307 22.0211C19.5642 21.8947 19.148 21.6421 19.3561 21.3895C19.1896 21.5579 18.9815 21.3053 18.8566 21.1789C18.482 20.9263 17.8159 20.7158 17.6494 20.5895C17.5246 20.5053 17.4413 20.2526 17.2748 20.2526C17.3997 19.7895 16.6088 19.5789 16.4007 19.3263C16.1509 19.5368 15.4433 18.8632 15.6098 19.4526C15.693 19.7053 15.9428 19.8316 15.9844 20.0842C16.0676 20.3368 15.9428 20.6316 15.8179 20.8421C15.693 21.0526 15.4849 21.2211 15.4433 21.4737C15.36 21.6842 15.36 21.9789 15.3184 22.1895C15.3184 22.3158 15.4433 22.6947 15.36 22.7789C15.1935 22.9474 15.027 22.6526 14.9437 22.5684C14.8189 22.4 14.694 22.2316 14.4859 22.2316C14.2361 22.2316 13.9447 22.4421 13.8615 22.6526C13.6117 23.1158 13.9863 23.5789 14.2361 23.9579C14.361 24.1684 14.5275 24.3789 14.361 24.5895C14.2777 24.7158 14.028 24.7579 14.1945 24.9684C14.3193 25.0947 14.5275 25.0526 14.5691 25.2632C14.6524 25.4737 14.4026 25.8105 14.2361 25.8947C14.2361 25.8105 14.1945 25.6842 14.1112 25.6421C13.9863 25.9368 13.362 25.5158 13.6533 25.2632C13.5285 25.1789 13.4036 25.1789 13.2787 25.0526C13.1954 24.9684 13.2787 24.8 13.1538 24.7579C13.1122 24.9263 12.7376 24.8421 12.5711 24.9263V24.6737C12.3629 24.7579 12.4878 24.9684 12.1964 24.9684L12.2381 25.0947H12.1132C12.1964 25.2211 12.1548 25.3895 12.2381 25.4737C12.3213 25.6 12.4878 25.6 12.5711 25.6842C12.238 26.0632 12.1132 25.3895 11.905 25.3053C11.8218 25.8105 11.2807 25.6 10.9893 25.4737C10.6979 25.3895 10.4065 25.2632 10.1151 25.2211C9.82374 25.1789 9.44911 25.1789 9.24098 24.9684C9.53236 24.6316 8.78309 24.1263 8.57496 23.9579C8.28358 23.7053 7.40943 22.4842 7.24293 22.1474C7.11805 22.3158 7.11805 22.0632 7.07642 21.9789C6.99317 21.7684 6.90992 21.6 6.70179 21.5158C6.57691 21.4737 6.36878 21.5579 6.41041 21.3474C6.45203 21.1789 6.70179 21.0947 6.82667 21.0947C6.78504 21.0105 6.78504 20.9684 6.90992 20.9263C6.78504 20.6737 6.45203 21.0526 6.28553 20.8421C6.16065 20.6316 6.45203 20.5474 6.57691 20.5053C6.78504 20.4632 6.95155 20.5474 6.95155 20.2526C6.95155 20.0421 6.78504 19.7474 6.70179 19.5789C6.57691 19.2421 6.49366 18.9895 6.49366 18.6526C6.49366 18.4421 6.49366 18.1895 6.2439 18.2316C5.91089 18.2316 5.53626 18.8632 5.49463 19.1579C5.41138 19.1579 5.36976 19.1579 5.2865 19.1579C5.2865 19.0737 5.36976 18.3579 5.12 18.4421C4.99512 18.4842 5.03675 18.8632 5.03675 18.9474C5.03675 19.1158 5.07837 19.2842 4.91187 19.3684C4.78699 19.4526 4.70374 19.4105 4.66211 19.2842C4.62049 19.1579 4.74537 18.9474 4.74537 18.8211C4.74537 18.5684 4.66211 18.3158 4.66211 18.0632L4.74537 18.1053C4.74537 17.8526 4.74537 15.5789 4.1626 16C4.07935 15.7474 4.37073 15.8316 4.49561 15.7474C4.74537 15.6211 4.70374 15.2842 4.49561 15.1158C4.78699 15.1158 5.20325 14.6947 5.24488 14.4C5.24488 14.2316 4.87024 13.8947 4.9535 13.7684C4.87024 13.7684 4.78699 13.7684 4.70374 13.8105C4.70374 13.6421 4.9535 13.3053 5.16163 13.4737C5.16163 13.3053 5.20325 13.1789 5.24488 13.0105C5.2865 13.0526 5.36976 13.0947 5.45301 13.1368C5.32813 13.0105 5.41138 12.8 5.45301 12.6316C5.49463 12.3789 5.41138 12.1684 5.41138 11.9158C5.36976 11.4947 5.49463 11.0316 5.20325 10.6947C4.9535 10.4 4.53724 10.3579 4.20423 10.2737C3.70472 10.1895 3.2052 9.97895 2.70569 10.0632L2.74732 9.89474L2.66407 9.85263C2.99707 9.68421 2.62244 9.13684 2.49756 9.47368C2.49756 9.34737 2.16455 9.17895 2.0813 9.22105L2.12293 9.09474C1.87317 9.17895 1.78992 8.88421 1.66504 8.92632V8.75789C1.54016 8.8 1.54016 9.01053 1.37366 9.01053C1.20715 9.01053 1.20715 8.8 1.08228 8.71579C1.45691 8.63158 0.457886 8.12632 0.790894 7.91579C0.582764 7.95789 0.790894 7.66316 0.749268 7.62105C0.707642 7.62105 0.666016 7.62105 0.62439 7.66316C0.666016 7.57895 0.62439 7.49474 0.499512 7.49474L0.582764 7.41053H0.499512L0.541138 7.32632C0.291382 7.41053 0.0832521 7.03158 0.333008 6.94737C0.124878 6.90526 0.249756 6.73684 0.291382 6.61053C0.20813 6.65263 0.124878 6.65263 0.124878 6.52632C0.374634 6.56842 0.124878 6.23158 0.20813 6.10526Z" fill="#B472F5"/>
</svg>
