<svg width="23" height="32" viewBox="0 0 23 32" fill="none" xmlns="http://www.w3.org/2000/svg">
<path fill-rule="evenodd" clip-rule="evenodd" d="M6.51994 6.67523e-05L4.48385 0.109788C4.44809 0.111671 4.41311 0.12089 4.38107 0.136871L3.83802 0.408397L3.07413 0.736172C3.02054 0.759267 2.97623 0.799657 2.94828 0.850891C2.92034 0.902124 2.91037 0.961245 2.91997 1.01881L2.94844 1.19034L2.25261 1.70075C2.2348 1.71371 2.2187 1.72888 2.2047 1.74589L1.70956 2.35144C1.67424 2.39465 1.65369 2.44804 1.65094 2.50378C1.64819 2.55953 1.66338 2.61468 1.69428 2.66116L1.88039 2.94032L1.98248 3.75976C1.98623 3.78902 1.99492 3.81743 2.00817 3.84379L2.08942 4.00629L0.901233 5.19378C0.885663 5.20937 0.872129 5.22687 0.860956 5.24586L0.31096 6.18127C0.299129 6.20127 0.290021 6.22275 0.283877 6.24516L0.1186 6.85071C0.103982 6.90481 0.107163 6.96218 0.127673 7.01433C0.148183 7.06648 0.184934 7.11064 0.232488 7.14029L0.451236 7.2771L0.039434 7.93681C0.0177992 7.97156 0.0046411 8.01091 0.00102214 8.05169C-0.00259682 8.09246 0.00342461 8.13352 0.0186008 8.17153L0.348459 8.99722C0.357739 9.02068 0.370371 9.04267 0.385959 9.0625L1.41234 10.3583L2.2797 12.2555C2.27992 12.2567 2.28015 12.2578 2.28039 12.259L2.6658 13.0847C2.68901 13.1346 2.72741 13.176 2.77552 13.2027L4.26162 14.0277C4.26186 14.0277 4.26209 14.0277 4.26232 14.0277L5.26301 14.5784L5.66023 16.1673L5.39981 17.2604C5.39105 17.297 5.39034 17.3352 5.39773 17.3722L5.65953 18.6819L5.29495 19.8284C5.27826 19.8811 5.27875 19.9378 5.29634 19.9902L5.55675 20.7714L5.50398 22.3457L5.07134 23.9679C5.06647 23.9866 5.06368 24.0057 5.06301 24.0249L5.00745 25.4554C5.00686 25.474 5.00825 25.4927 5.01162 25.511L5.1762 26.4464L5.39356 27.6964L5.44842 28.7262C5.44942 28.745 5.45245 28.7637 5.45745 28.7818L5.89703 30.3776C5.90269 30.3982 5.91085 30.418 5.92133 30.4366L6.41647 31.3172C6.44638 31.37 6.49377 31.4108 6.5505 31.4325L7.98174 31.9825C8.014 31.9949 8.04842 32.0009 8.08299 31.9999C8.11756 31.9989 8.1516 31.9911 8.18312 31.9769L8.78867 31.7019C8.82575 31.6851 8.85837 31.6598 8.88392 31.628C8.90947 31.5963 8.92724 31.5591 8.93581 31.5192C8.94438 31.4794 8.94351 31.4381 8.93328 31.3987C8.92304 31.3593 8.90373 31.3228 8.87687 31.2922L8.12201 30.429L7.88313 30.0318L8.34354 29.2492L8.93451 28.5512C8.96004 28.5211 8.97838 28.4855 8.98815 28.4472C8.99792 28.4089 8.99886 28.3688 8.9909 28.3301C8.98294 28.2914 8.96629 28.255 8.94221 28.2236C8.91812 28.1923 8.88723 28.1668 8.85187 28.1492L8.25396 27.8499L8.16715 27.72L8.68867 27.5901C8.74523 27.5761 8.79544 27.5434 8.83131 27.4975C8.86717 27.4516 8.88663 27.395 8.88659 27.3367V27.0047L9.14006 26.7506C9.17106 26.7195 9.19373 26.6812 9.20599 26.6391C9.21825 26.5969 9.2197 26.5524 9.2102 26.5096L9.10048 26.0145C9.09581 25.9935 9.08858 25.9732 9.07895 25.954L8.98937 25.7749L9.52964 25.7256C9.58349 25.7206 9.63447 25.699 9.67552 25.6638C9.71657 25.6286 9.74567 25.5815 9.75881 25.529L9.93797 24.8145L11.4199 24.5672C11.4849 24.5565 11.5435 24.5215 11.5838 24.4693L12.1345 23.7541C12.1653 23.7138 12.1838 23.6655 12.1876 23.6149C12.1915 23.5643 12.1805 23.5138 12.156 23.4693L11.8282 22.8686L11.8234 22.8582L12.3956 22.9186C12.4493 22.9243 12.5034 22.9131 12.5505 22.8867L13.431 22.3909C13.4725 22.3677 13.5068 22.3336 13.5303 22.2923L14.2206 21.0707L15.7768 19.8367C15.8075 19.8123 15.8324 19.7813 15.8494 19.7459C15.8665 19.7106 15.8754 19.6718 15.8754 19.6326V18.8638L16.1497 18.2694L17.1296 17.6326L18.9317 17.5263C18.9718 17.5239 19.0109 17.5123 19.0459 17.4923C19.0808 17.4723 19.1106 17.4445 19.133 17.411L19.9039 16.2548C19.9098 16.2459 19.9151 16.2366 19.9198 16.227L20.4705 15.1263C20.4813 15.1048 20.489 15.0819 20.4934 15.0583L20.9198 12.8187L22.8525 10.6715C22.8796 10.6413 22.8993 10.6052 22.9101 10.566C22.9208 10.5268 22.9222 10.4857 22.9143 10.4458L22.5837 8.79514C22.5747 8.75006 22.554 8.70814 22.5237 8.67363C22.4933 8.63912 22.4544 8.61325 22.4108 8.59861L21.9629 8.44931L20.6247 7.32571C20.5995 7.30449 20.5705 7.28823 20.5393 7.27779L20.0441 7.11251C20.0299 7.10779 20.0153 7.1043 20.0004 7.1021L18.8997 6.93751C18.8642 6.93222 18.828 6.93429 18.7934 6.94361C18.7587 6.95293 18.7264 6.9693 18.6983 6.99168L18.6018 7.06876L18.6268 6.60349C18.6297 6.54727 18.6144 6.4916 18.5831 6.44479C18.5518 6.39798 18.5063 6.36255 18.4532 6.34377L16.7469 5.73891C16.7338 5.73414 16.7204 5.73042 16.7067 5.7278L16.1011 5.61808C16.0697 5.61225 16.0374 5.61225 16.006 5.61808L15.4407 5.72572L15.7803 5.18822C15.8006 5.156 15.8136 5.11972 15.8184 5.08193C15.8232 5.04414 15.8197 5.00575 15.8081 4.96947L15.3678 3.59379C15.3482 3.53282 15.307 3.48117 15.2518 3.44865L13.7664 2.5681C13.74 2.55253 13.7111 2.54171 13.681 2.53616L11.9845 2.21811L11.4893 1.82158L9.78728 0.339648C9.73578 0.294715 9.6687 0.271776 9.60047 0.275759L8.66506 0.33062C8.66298 0.330595 8.6609 0.330595 8.65881 0.33062L7.41438 0.434786L6.65675 0.0306221C6.61828 0.0101648 6.57531 -0.000339477 6.53175 6.67523e-05C6.52781 -2.22508e-05 6.52388 -2.22508e-05 6.51994 6.67523e-05Z" fill="#B472F5"/>
</svg>
