<?xml version="1.0" encoding="UTF-8"?>
<svg width="36px" height="40px" viewBox="0 0 36 40" version="1.1" xmlns="http://www.w3.org/2000/svg" xmlns:xlink="http://www.w3.org/1999/xlink">
    <!-- Generator: Sketch 63.1 (92452) - https://sketch.com -->
    <title>africa</title>
    <desc>Created with Sketch.</desc>
    <g id="Page-1" stroke="none" stroke-width="1" fill="none" fill-rule="evenodd">
        <g id="africa" fill="#22C3FF" fill-rule="nonzero">
            <path d="M35.4324324,27.84 L35.3108108,27.48 L35.1891892,27.24 L34.9864865,27 L34.8243243,27.24 L34.8243243,27.56 L34.5,27.96 L34.2972973,27.88 L34.3783784,28.12 L34.2162162,28.4 L33.7702703,28.72 L33.4864865,29.04 L33.2432432,29.04 L33.0405405,29.12 L32.7567568,29.24 L32.5135135,29.24 L32.4324324,29.6 L32.2297297,29.92 L32.2702703,30.4 L32.3513514,30.76 L32.472973,31 L32.4324324,31.36 L32.1891892,31.76 L32.1891892,31.96 L31.9459459,32.04 L31.8648649,32.44 L31.9054054,32.84 L32.1081081,33.28 L32.1486486,33.8 L32.3108108,34.08 C32.5540541,34.2 32.7972973,34.32 33.0405405,34.44 L33.4864865,34.2 L33.8918919,34.08 L34.1351351,33.44 C34.4189189,32.36 34.7837838,31.28 35.1081081,30.2 L35.1486486,29.76 L35.3108108,29.64 L35.3513514,29.4 L35.2702703,29 L35.3513514,28.84 L35.5135135,29.16 L35.5945946,29 L35.6351351,28.76 L35.5135135,28.52 L35.4324324,27.84 Z M35.7972973,14.56 L35.5540541,14.76 L35.2297297,14.8 L35.027027,14.88 L34.5810811,14.88 L34.3783784,14.96 L34.1351351,15 L33.6486486,15.2 L33.0810811,15.28 L32.5945946,15.4 L32.3513514,15.4 L32.1081081,15.2 L31.9864865,15 L31.8243243,14.92 L31.6216216,15.2 L31.5,15.12 L31.3783784,15.08 L31.0945946,15.08 L31.0945946,14.92 L31.0540541,14.76 C31.1756757,14.6 31.2972973,14.44 31.4189189,14.28 L31.6621622,14.32 L31.8243243,14.2 L31.5810811,14.04 C31.3378378,13.76 31.0945946,13.52 30.8513514,13.24 L30.1216216,12.72 L29.7567568,12.48 L29.6351351,12 L29.3513514,11.36 C29.1891892,11.24 29.027027,11.12 28.8648649,11.04 L28.6621622,10.4 L28.5810811,9.84 L28.7027027,9.72 L28.5405405,9.16 L28.4594595,9.04 L27.8513514,8.52 L27.8513514,8.16 L27.972973,8.08 L27.4864865,7.44 L27.3243243,7.12 L27.1216216,6.8 L26.7162162,5.88 L26.3918919,5.28 L26.1891892,4.64 L26.2297297,4.6 L26.5945946,5.44 C26.7162162,5.6 26.8783784,5.76 27,5.88 L27.1216216,5.76 L27.2837838,5.44 L27.4054054,5 L27.5675676,4.76 C27.4459459,4.4 27.3243243,4.08 27.2432432,3.72 L26.9189189,4 L26.5135135,3.96 L26.1081081,3.8 L25.9459459,4 L25.7837838,3.72 L25.4189189,3.64 L24.972973,3.68 L24.7702703,3.84 L24.3648649,4.04 C23.9594595,3.88 23.5135135,3.76 23.1081081,3.6 L22.4189189,3.6 L22.2972973,3.4 L21.7702703,3.32 L21.6081081,3.2 L21.4054054,3.2 L21.2432432,2.92 L20.5540541,2.8 L20.1891892,2.88 L19.7837838,3.2 L19.6216216,3.52 L19.7432432,4 L19.5,4.28 L19.2162162,4.4 L18.6486486,4.12 L17.9189189,3.88 L17.4324324,3.76 L17.2297297,3.2 L16.5405405,2.92 L16.0945946,2.8 L15.8918919,2.84 L15.2837838,2.64 L15.0810811,2.56 L14.9594595,2.28 L14.6756757,2.28 L14.5945946,1.96 L14.8783784,1.6 L14.9594595,1.04 L14.7972973,0.88 L14.7972973,0.6 L15.0405405,0.28 L15,0.16 L14.5540541,0.4 L14.5540541,0.08 L14.2297297,0 L13.6621622,0.28 L13.2972973,0.32 L13.0945946,0.16 L12.527027,0.16 L12,0.4 L11.7162162,0.32 C11.1081081,0.36 10.5405405,0.4 9.97297297,0.48 L9.48648649,0.68 L9.16216216,0.96 L8.59459459,1.08 L8.10810811,1.44 L7.86486486,1.44 L7.33783784,1.32 L6.85135135,1.36 L6.52702703,1.08 L6.16216216,1.08 L6,1.48 L5.63513514,2.12 L5.22972973,2.36 L4.7027027,2.64 L4.37837838,3.04 L4.2972973,3.36 L4.09459459,3.88 L4.21621622,4.64 L3.81081081,5.08 L3.56756757,5.24 L3.16216216,5.64 L2.67567568,5.72 C2.59459459,5.8 2.51351351,5.88 2.39189189,5.96 L2.06756757,6.56 L1.7027027,6.76 L1.5,7.12 L1.5,7.44 L1.37837838,7.76 L1.21621622,7.84 L0.932432432,8.2 L0.77027027,8.6 L0.72972973,8.8 L0.567567568,9.08 L0.364864865,9.24 C0.364864865,9.4 0.324324324,9.56 0.324324324,9.72 L0.567567568,9.96 L0.689189189,10.24 L0.648648649,10.52 L0.72972973,10.8 L0.77027027,11.32 L0.689189189,11.84 L0.567567568,12.08 L0.608108108,12.36 L0.486486486,12.64 L0.243243243,13 L0,13.12 L0.243243243,13.32 L0.445945946,13.72 L0.364864865,13.96 L0.445945946,14.36 L0.486486486,14.48 L0.648648649,14.6 L0.648648649,14.68 L0.810810811,14.8 L1.01351351,14.84 L1.2972973,15.08 L1.45945946,15.16 L1.54054054,15.28 L1.58108108,15.52 L1.74324324,15.6 L1.86486486,15.68 L2.06756757,15.88 L2.31081081,16.2 L2.39189189,16.6 L2.47297297,16.8 L2.75675676,17.08 L3.12162162,17.28 L3.24324324,17.32 L3.60810811,17.64 L4.05405405,17.92 L4.54054054,18.32 L5.06756757,18.56 L5.27027027,18.56 C5.55405405,18.44 5.87837838,18.36 6.16216216,18.24 L6.77027027,18.16 L7.09459459,18.16 L7.45945946,18.28 L7.7027027,18.28 L8.18918919,18.44 L8.67567568,18.28 L8.95945946,18.12 L9.77027027,17.8 L10.1756757,17.68 L10.6216216,17.6 L11.472973,17.6 L11.8378378,17.96 L12,18.32 L12.2837838,18.64 L12.6891892,18.64 L12.8918919,18.52 L13.0945946,18.56 L13.6216216,18.36 L13.6216216,18.52 L13.7432432,18.6 L13.8648649,18.84 L14.1081081,18.92 L14.3108108,19.28 L14.2297297,19.68 L14.0675676,20.24 L14.1486486,20.32 C14.0675676,20.56 13.9864865,20.84 13.9054054,21.08 L13.8648649,21.2 L13.8648649,21.36 L14.1891892,21.88 L14.5540541,22.32 L15.0810811,22.84 L15.527027,23.4 L15.6486486,23.8 L15.7297297,23.96 L15.6891892,24.08 L15.9324324,24.4 C16.0135135,24.68 16.0945946,24.96 16.2162162,25.24 L16.0540541,25.44 L15.972973,25.52 C16.0540541,25.72 16.1351351,25.96 16.2567568,26.16 L16.4189189,26.36 L16.4594595,26.64 L16.4189189,27.04 L16.2567568,27.28 L15.972973,27.64 L15.8513514,27.84 L15.6891892,28.32 L15.5675676,28.52 L15.4054054,29 L15.3243243,29.48 C15.3648649,29.72 15.4054054,30 15.4054054,30.24 L15.8108108,30.76 L15.9324324,31.12 L16.2162162,31.8 L16.5,32.24 L16.7027027,32.48 L16.7837838,32.8 L16.7837838,33.48 L16.9459459,34.36 L17.0675676,34.76 L17.1891892,35.32 L17.3918919,35.76 L17.7972973,36.2 C18.1216216,36.84 18.4054054,37.44 18.7702703,38.04 L18.7702703,38.52 L18.6081081,38.64 L18.7702703,39.04 L18.7702703,39.4 L18.8513514,39.56 L18.8918919,39.48 L19.1351351,39.76 L19.2972973,39.76 L19.5,40 L19.7432432,40 L20.0675676,39.76 L20.5135135,39.68 L21.0405405,39.44 L21.2432432,39.48 L21.5675676,39.4 L22.1351351,39.52 L22.3783784,39.4 L22.7027027,39.48 L22.7837838,39.32 L23.0675676,39.28 L23.5945946,39.04 L24,38.76 C24.3243243,38.44 24.6486486,38.12 24.972973,37.76 L25.2567568,37.32 L25.4189189,37 L25.6216216,36.68 C25.7837838,36.56 25.9459459,36.44 26.0675676,36.28 L26.1891892,36 L26.2702703,35.52 L26.3918919,35.08 L26.4324324,34.76 L26.3108108,34.76 L26.2702703,34.52 L26.5135135,34.32 C26.8783784,34.16 27.2027027,33.96 27.5675676,33.8 L27.7702703,33.6 L27.8513514,33.36 L27.7297297,33.28 L27.8108108,33 L27.8108108,32.44 L27.7297297,32.48 L27.7297297,32.32 L27.6081081,32 L27.3648649,31.6 L27.4054054,31.2 L27.6081081,31.08 L27.972973,30.68 L28.1756757,30.6 L28.7837838,30 C29.1486486,29.84 29.5135135,29.68 29.8378378,29.52 L30.1621622,29.2 L30.3648649,28.84 L30.527027,28.44 L30.4459459,28.16 L30.4054054,27.32 L30.3243243,26.84 L30.3648649,26.32 L30.2837838,26.08 L30.0810811,25.96 L29.8783784,25.44 L29.7162162,25.16 L29.7567568,24.92 L29.7567568,24.76 L29.9189189,24.44 L29.9189189,24.32 L29.5945946,24.12 L29.5540541,23.84 L29.7972973,23.2 L30,23.04 L30.1216216,22.68 L30.2837838,22.48 L30.3648649,22.12 L30.5675676,22.08 L30.6891892,21.88 L31.0540541,21.68 L31.1756757,21.56 L31.2972973,21.28 L31.8648649,20.64 L32.3513514,20.24 L33.1216216,19.72 L33.6486486,19.32 C34.0135135,18.88 34.3783784,18.48 34.7027027,18.04 L35.1486486,17.28 C35.3513514,16.88 35.5540541,16.44 35.7162162,16.04 L35.8783784,15.48 L36,15.28 L36,14.52 L35.7972973,14.52 L35.7972973,14.56 Z" id="Shape"></path>
        </g>
    </g>
</svg>