<svg width="29" height="32" viewBox="0 0 29 32" fill="none" xmlns="http://www.w3.org/2000/svg">
<path d="M28.0562 22.272L27.9611 21.984L27.866 21.792L27.7075 21.6L27.5807 21.792V22.048L27.3271 22.368L27.1687 22.304L27.232 22.496L27.1053 22.72L26.7566 22.976L26.5347 23.232H26.3445L26.186 23.296L25.9641 23.392H25.7739L25.7105 23.68L25.552 23.936L25.5837 24.32L25.6471 24.608L25.7422 24.8L25.7105 25.088L25.5204 25.408V25.568L25.3302 25.632L25.2668 25.952L25.2985 26.272L25.457 26.624L25.4887 27.04L25.6154 27.264C25.8056 27.36 25.9958 27.456 26.186 27.552L26.5347 27.36L26.8517 27.264L27.0419 26.752C27.2637 25.888 27.549 25.024 27.8026 24.16L27.8343 23.808L27.9611 23.712L27.9928 23.52L27.9294 23.2L27.9928 23.072L28.1196 23.328L28.183 23.2L28.2147 23.008L28.1196 22.816L28.0562 22.272ZM28.3415 11.648L28.1513 11.808L27.8977 11.84L27.7392 11.904H27.3905L27.232 11.968L27.0419 12L26.6615 12.16L26.2177 12.224L25.8373 12.32H25.6471L25.457 12.16L25.3619 12L25.2351 11.936L25.0766 12.16L24.9815 12.096L24.8864 12.064H24.6645V11.936L24.6328 11.808C24.7279 11.68 24.823 11.552 24.9181 11.424L25.1083 11.456L25.2351 11.36L25.0449 11.232C24.8547 11.008 24.6645 10.816 24.4743 10.592L23.9037 10.176L23.6185 9.984L23.5234 9.6L23.3015 9.088C23.1747 8.992 23.0479 8.896 22.9211 8.832L22.7626 8.32L22.6992 7.872L22.7943 7.776L22.6675 7.328L22.6041 7.232L22.1287 6.816V6.528L22.2237 6.464L21.8434 5.952L21.7166 5.696L21.5581 5.44L21.2411 4.704L20.9875 4.224L20.829 3.712L20.8607 3.68L21.146 4.352C21.2411 4.48 21.3679 4.608 21.463 4.704L21.5581 4.608L21.6849 4.352L21.78 4L21.9068 3.808C21.8117 3.52 21.7166 3.264 21.6532 2.976L21.3996 3.2L21.0826 3.168L20.7656 3.04L20.6388 3.2L20.512 2.976L20.2268 2.912L19.8781 2.944L19.7196 3.072L19.4026 3.232C19.0856 3.104 18.737 3.008 18.42 2.88H17.8811L17.786 2.72L17.3739 2.656L17.2471 2.56H17.0887L16.9619 2.336L16.423 2.24L16.1377 2.304L15.8207 2.56L15.6939 2.816L15.789 3.2L15.5988 3.424L15.377 3.52L14.9332 3.296L14.3626 3.104L13.9822 3.008L13.8237 2.56L13.2849 2.336L12.9362 2.24L12.7777 2.272L12.3022 2.112L12.1437 2.048L12.0487 1.824H11.8268L11.7634 1.568L11.9853 1.28L12.0487 0.832L11.9219 0.704V0.48L12.1121 0.224L12.0804 0.128L11.7317 0.32V0.064L11.4781 0L11.0343 0.224L10.749 0.256L10.5905 0.128H10.1468L9.73469 0.32L9.5128 0.256C9.03733 0.288 8.59356 0.32 8.14979 0.384L7.76941 0.544L7.51582 0.768L7.07205 0.864L6.69167 1.152H6.50148L6.08941 1.056L5.70903 1.088L5.45545 0.864H5.17016L5.04337 1.184L4.75809 1.696L4.44111 1.888L4.02903 2.112L3.77545 2.432L3.71205 2.688L3.55356 3.104L3.64865 3.712L3.33167 4.064L3.14148 4.192L2.8245 4.512L2.44413 4.576C2.38073 4.64 2.31733 4.704 2.22224 4.768L1.96865 5.248L1.68337 5.408L1.52488 5.696V5.952L1.42979 6.208L1.30299 6.272L1.08111 6.56L0.954315 6.88L0.922617 7.04L0.795824 7.264L0.637334 7.392C0.637334 7.52 0.605636 7.648 0.605636 7.776L0.795824 7.968L0.890919 8.192L0.859221 8.416L0.922617 8.64L0.954315 9.056L0.890919 9.472L0.795824 9.664L0.827522 9.888L0.732428 10.112L0.542239 10.4L0.352051 10.496L0.542239 10.656L0.70073 10.976L0.637334 11.168L0.70073 11.488L0.732428 11.584L0.859221 11.68V11.744L0.986013 11.84L1.1445 11.872L1.36639 12.064L1.49318 12.128L1.55658 12.224L1.58828 12.416L1.71507 12.48L1.81016 12.544L1.96865 12.704L2.15884 12.96L2.22224 13.28L2.28564 13.44L2.50752 13.664L2.79281 13.824L2.8879 13.856L3.17318 14.112L3.52186 14.336L3.90224 14.656L4.31431 14.848H4.47281C4.69469 14.752 4.94828 14.688 5.17016 14.592L5.64564 14.528H5.89922L6.1845 14.624H6.37469L6.75507 14.752L7.13545 14.624L7.35733 14.496L7.9913 14.24L8.30828 14.144L8.65696 14.08H9.32262L9.6079 14.368L9.73469 14.656L9.95658 14.912H10.2736L10.4321 14.816L10.5905 14.848L11.0026 14.688V14.816L11.0977 14.88L11.1928 15.072L11.383 15.136L11.5415 15.424L11.4781 15.744L11.3513 16.192L11.4147 16.256C11.3513 16.448 11.2879 16.672 11.2245 16.864L11.1928 16.96V17.088L11.4464 17.504L11.7317 17.856L12.1437 18.272L12.4924 18.72L12.5875 19.04L12.6509 19.168L12.6192 19.264L12.8094 19.52C12.8728 19.744 12.9362 19.968 13.0313 20.192L12.9045 20.352L12.8411 20.416C12.9045 20.576 12.9679 20.768 13.063 20.928L13.1898 21.088L13.2215 21.312L13.1898 21.632L13.063 21.824L12.8411 22.112L12.746 22.272L12.6192 22.656L12.5241 22.816L12.3973 23.2L12.3339 23.584C12.3656 23.776 12.3973 24 12.3973 24.192L12.7143 24.608L12.8094 24.896L13.0313 25.44L13.2532 25.792L13.4117 25.984L13.4751 26.24V26.784L13.6019 27.488L13.697 27.808L13.7921 28.256L13.9505 28.608L14.2675 28.96C14.5211 29.472 14.743 29.952 15.0283 30.432V30.816L14.9015 30.912L15.0283 31.232V31.52L15.0917 31.648L15.1234 31.584L15.3136 31.808H15.4404L15.5988 32H15.789L16.0426 31.808L16.3913 31.744L16.8034 31.552L16.9619 31.584L17.2154 31.52L17.6592 31.616L17.8494 31.52L18.103 31.584L18.1664 31.456L18.3883 31.424L18.8004 31.232L19.1173 31.008C19.3709 30.752 19.6245 30.496 19.8781 30.208L20.1 29.856L20.2268 29.6L20.3853 29.344C20.5121 29.248 20.6388 29.152 20.7339 29.024L20.829 28.8L20.8924 28.416L20.9875 28.064L21.0192 27.808H20.9241L20.8924 27.616L21.0826 27.456C21.3679 27.328 21.6215 27.168 21.9068 27.04L22.0653 26.88L22.1287 26.688L22.0336 26.624L22.097 26.4V25.952L22.0336 25.984V25.856L21.9385 25.6L21.7483 25.28L21.78 24.96L21.9385 24.864L22.2237 24.544L22.3822 24.48L22.8577 24C23.143 23.872 23.4283 23.744 23.6819 23.616L23.9354 23.36L24.0939 23.072L24.2207 22.752L24.1573 22.528L24.1256 21.856L24.0622 21.472L24.0939 21.056L24.0305 20.864L23.8721 20.768L23.7136 20.352L23.5868 20.128L23.6185 19.936V19.808L23.7453 19.552V19.456L23.4917 19.296L23.46 19.072L23.6502 18.56L23.8087 18.432L23.9037 18.144L24.0305 17.984L24.0939 17.696L24.2524 17.664L24.3475 17.504L24.6328 17.344L24.7279 17.248L24.823 17.024L25.2668 16.512L25.6471 16.192L26.2494 15.776L26.6615 15.456C26.9468 15.104 27.232 14.784 27.4856 14.432L27.8343 13.824C27.9928 13.504 28.1513 13.152 28.2781 12.832L28.4049 12.384L28.5 12.224V11.616H28.3415V11.648Z" fill="#B472F5"/>
</svg>
