<?xml version="1.0" encoding="UTF-8"?>
<svg width="44px" height="38px" viewBox="0 0 44 38" version="1.1" xmlns="http://www.w3.org/2000/svg" xmlns:xlink="http://www.w3.org/1999/xlink">
    <!-- Generator: Sketch 63.1 (92452) - https://sketch.com -->
    <title>Antarctica</title>
    <desc>Created with Sketch.</desc>
    <g id="Page-1" stroke="none" stroke-width="1" fill="none" fill-rule="evenodd">
        <g id="Antarctica" fill="#22C3FF" fill-rule="nonzero">
            <path d="M0.244444444,7.25 C0.195555556,7.05 0,6.95 0,6.75 C0,6.6 0.146666667,6.45 0,6.3 L0.146666667,6.25 C-0.0977777778,5.75 -0.0488888889,5.1 0.537777778,5.05 C0.537777778,5.2 0.391111111,5.2 0.342222222,5.3 C0.293333333,5.4 0.293333333,5.55 0.342222222,5.65 C0.391111111,5.95 0.537777778,6.2 0.831111111,6.3 C0.733333333,6.3 0.635555556,6.35 0.586666667,6.4 C0.635555556,6.45 0.635555556,6.5 0.684444444,6.55 C0.44,6.5 0.684444444,8.25 1.02666667,7.85 C0.88,8.25 1.32,8.2 1.46666667,8.25 C1.46666667,8.05 1.51555556,7.85 1.56444444,7.65 C1.71111111,7.75 1.76,7.9 1.76,8.05 L1.56444444,8.05 C1.56444444,8.15 1.66222222,8.25 1.76,8.3 C1.56444444,8.3 1.41777778,8.4 1.36888889,8.6 C1.51555556,8.6 1.61333333,8.7 1.76,8.75 C1.56444444,8.8 1.36888889,8.85 1.22222222,8.9 C1.22222222,9 1.32,9.05 1.41777778,9 L1.41777778,9.15 L1.56444444,9.15 C1.41777778,9.3 1.66222222,9.4 1.71111111,9.25 C1.80888889,9.4 1.66222222,9.55 1.76,9.7 C1.80888889,9.8 1.90666667,9.85 1.95555556,9.9 C2.00444444,10 2.05333333,10.3 2.24888889,10.15 C2.24888889,10.35 2.49333333,10.25 2.54222222,10.5 C2.68888889,10.45 2.68888889,10.35 2.59111111,10.25 L2.73777778,10.25 C2.68888889,10.45 2.93333333,10.7 3.12888889,10.6 C3.27555556,10.55 3.32444444,10.3 3.47111111,10.2 C2.93333333,10.55 3.03111111,9.65 3.32444444,9.7 C3.17777778,9.75 3.12888889,9.95 3.22666667,10.1 L3.56888889,9.95 L3.47111111,10.1 C3.61777778,10.1 3.81333333,10.1 3.86222222,10.25 C3.86222222,10.15 3.91111111,10.15 3.96,10.15 C3.86222222,10.2 4.25333333,10.05 4.15555556,10.1 C4.30222222,10.1 5.03555556,10.25 5.03555556,10.45 C5.13333333,10.4 5.23111111,10.3 5.32888889,10.2 C5.37777778,10.35 5.57333333,10.65 5.57333333,10.3 C5.67111111,10.4 5.81777778,10.45 5.91555556,10.35 C5.81777778,10.55 6.06222222,10.45 6.11111111,10.65 C6.35555556,10.35 6.45333333,10.8 6.50222222,11 L6.69777778,10.7 L6.69777778,10.8 L6.79555556,10.8 C6.79555556,10.9 6.84444444,10.95 6.94222222,10.9 C6.69777778,11.1 7.18666667,11.2 7.08888889,10.95 C7.18666667,10.95 7.28444444,11 7.33333333,11.1 C7.48,10.7 7.92,11.15 7.57777778,11.2 C8.16444444,11.45 8.45777778,11.85 8.75111111,12.35 C8.60444444,12.45 8.45777778,12.4 8.31111111,12.45 C8.50666667,12.5 8.55555556,12.55 8.55555556,12.8 C8.60444444,12.7 8.65333333,12.65 8.8,12.65 C8.75111111,12.75 8.75111111,12.85 8.75111111,12.95 C9.09333333,12.65 9.33777778,14.05 9.38666667,14.25 C9.53333333,15.1 9.33777778,16 8.45777778,16.3 C8.75111111,16.6 9.28888889,16.55 9.63111111,16.4 C9.92444444,16.25 10.0711111,15.8 10.3155556,15.75 C10.7066667,15.65 10.6577778,16.15 10.56,16.4 C10.4133333,16.75 10.0711111,17 9.97333333,17.4 C10.3644444,17.4 10.8044444,16.5 11.1955556,17 C11.5377778,17.45 10.6577778,17.65 10.56,18 C11.0977778,18.25 11.44,17.6 11.9288889,17.6 C11.8311111,17.55 11.7333333,17.55 11.5866667,17.55 C11.6355556,17.3 11.5866667,16.85 11.88,16.8 C12.32,16.75 12.32,17.45 12.0266667,17.6 C12.2222222,17.6 12.2222222,17.4 12.32,17.3 C12.4666667,17.1 12.6622222,17 12.8577778,16.9 C13.3466667,16.6 13.7866667,16.25 14.2755556,15.95 C14.4711111,15.85 14.7644444,15.7 15.0088889,15.7 C15.1555556,15.7 15.4,15.85 15.5955556,15.75 C15.9866667,15.55 15.5466667,15.05 15.4977778,14.8 C15.4,14.35 15.84,14.05 15.9866667,13.65 C16.1822222,13.15 16.0844444,12.7 16.3777778,12.2 C16.6222222,11.75 17.3066667,10.75 16.4266667,10.55 C16.5244444,10.3 16.5244444,10 16.5733333,9.75 C16.2311111,10.4 15.5466667,11.15 14.96,10.3 C14.52,9.65 14.8622222,8.75 15.1555556,8.1 C15.5466667,7.3 16.28,7 16.8177778,6.35 C17.0622222,6.05 17.0133333,5.7 17.1111111,5.35 C17.2088889,4.9 17.5511111,4.55 17.7466667,4.15 C17.4533333,4.05 17.2577778,4.4 17.0133333,4.45 C16.9644444,4.35 17.0133333,4.2 17.0622222,4.15 L16.9155556,3.9 C16.9155556,3.65 17.0133333,3.45 17.16,3.3 C17.2577778,3.2 17.6,3 17.2088889,2.9 C17.5511111,2.75 18.0888889,2.4 17.9422222,1.9 C17.8933333,1.75 17.3555556,1.3 17.7466667,1.2 C17.7466667,1.95 18.3822222,1.1 18.04,0.9 C18.1377778,0.8 18.2355556,0.75 18.3333333,0.75 L18.2844444,0.9 C18.5777778,0.9 18.5777778,1.75 18.9688889,1.55 C19.2133333,1.35 18.9688889,0.8 19.1644444,0.6 C19.2622222,0.5 19.5066667,0.4 19.5555556,0.6 C19.6044444,0.75 19.3111111,0.95 19.4577778,1.1 C19.6533333,1.3 20.5822222,1.1 20.9733333,0.95 C21.12,1 21.12,1.25 21.2666667,1.3 C21.56,0.65 22.2933333,0.5 22.9288889,0.45 C23.0755556,0.45 23.2711111,0.45 23.4177778,0.35 C23.5155556,0.3 23.6622222,0.1 23.76,0.1 C23.9066667,0.1 23.9066667,0.3 24.0044444,0.3 C24.1511111,0.3 24.2,0.15 24.1511111,0 C24.3955556,0.15 24.4444444,0.55 24.7377778,0.65 C25.08,0.85 25.2755556,0.5 25.6177778,0.45 C26.0088889,0.4 26.3511111,0.6 26.6933333,0.7 C26.9866667,0.8 27.3288889,0.8 27.6222222,1 C27.9155556,1.2 28.1111111,1.45 28.4044444,1.65 C28.7466667,1.85 29.0888889,1.85 29.4311111,1.9 C30.2622222,2 31.1422222,2.45 31.9733333,2.15 C31.8755556,2.2 32.2666667,2.05 32.2177778,2.05 C32.4622222,1.85 32.6577778,1.65 32.7555556,2.1 C32.8044444,2.25 32.7066667,2.4 32.7555556,2.55 C32.7555556,2.7 32.9022222,2.85 32.8044444,3.05 L32.8533333,2.9 C32.7555556,3 32.8044444,3.15 32.8533333,3.3 C33.0977778,3.15 33.1466667,3.15 33.44,3.15 C33.3911111,3.3 33.2444444,3.4 33.0977778,3.3 C33.1466667,3.45 33.2444444,3.55 33.1466667,3.7 C33.2933333,3.65 33.3911111,3.6 33.4888889,3.5 C33.44,3.6 33.3911111,3.7 33.2933333,3.8 C33.5866667,3.95 33.7822222,3.7 33.9777778,3.55 C34.2711111,3.4 34.5644444,3.35 34.9066667,3.4 C35.5911111,3.5 36.1777778,3.85 36.7644444,4.05 C36.8133333,3.7 37.1555556,3.95 37.1555556,4.25 C36.96,4.15 36.96,4.45 37.0577778,4.55 C37.1555556,4.65 37.4,4.6 37.4977778,4.7 C37.4,4.4 37.7422222,4.15 37.9377778,4.45 C38.0355556,4.65 37.8888889,4.95 38.1822222,5.05 C38.0844444,4.9 38.1822222,4.9 38.1822222,4.85 C38.1822222,4.85 38.28,4.65 38.28,4.65 C39.2577778,3.65 40.7733333,6.55 39.9422222,6.85 C39.8933333,6.6 39.7466667,6.8 39.6977778,6.95 C39.6,7.2 39.7466667,7.5 39.8444444,7.75 C40.04,8.35 40.9688889,10.7 40.92,11.25 C40.92,11.7 40.5777778,12.05 40.1377778,11.85 C40.1377778,11.9 40.1377778,11.95 40.1377778,11.95 C40.04,11.95 39.9422222,11.95 39.8933333,11.9 C39.8933333,12 39.8444444,12.1 39.7466667,12.1 C39.7466667,11.85 39.5022222,12 39.3555556,12 C39.2577778,12 38.9155556,12 39.16,11.8 C39.0133333,11.65 38.4266667,11.75 38.6222222,12 C38.5244444,12.05 38.4266667,12.1 38.3288889,12.1 L38.3288889,12.25 L38.7688889,12.2 C38.7688889,12.75 37.0088889,12.05 36.8133333,12.6 C36.6177778,13.3 37.7911111,13.25 38.1333333,13.25 C38.72,13.2 39.6977778,13.25 39.8933333,14 C40.04,13.9 40.1377778,14.25 40.2844444,14.3 C40.2844444,14.3 40.4311111,14.45 40.4311111,14.45 C40.7244444,14.85 41.36,14.7 41.6533333,15.1 C41.8,15.3 41.8488889,15.95 42.2888889,15.85 L42.2888889,16.05 L42.3866667,15.85 C42.5333333,15.95 42.8755556,16.1 42.5822222,16.25 C43.0222222,16.5 42.8755556,17.05 42.9733333,17.45 C43.0711111,17.95 43.5111111,18.3 44,18.35 C43.9022222,18.5 43.6577778,18.45 43.56,18.6 C43.3644444,18.75 43.4133333,18.95 43.4622222,19.15 C43.5111111,19.65 43.56,22.1 43.2177778,22.05 C43.56,22.25 43.2666667,22.6 43.0222222,22.7 C43.8533333,23.7 43.6577778,24.85 42.8266667,25.8 C42.4844444,26.2 42.0444444,26.45 42.2888889,27 C42.4355556,27.45 42.9733333,28.1 42.3377778,28.4 C42.1422222,28.5 41.8977778,28.45 41.7511111,28.6 C41.5555556,28.7 41.5555556,28.9 41.4088889,29.05 C41.2622222,29.2 41.0177778,29.2 40.8222222,29.35 C40.6755556,29.45 40.5777778,29.65 40.48,29.85 C40.4311111,30 39.7955556,31.3 39.7955556,31.3 C39.7955556,31.5 39.7955556,31.65 39.6977778,31.85 C39.6488889,31.95 39.5022222,31.95 39.4533333,32.1 C39.4044444,32.25 39.5511111,32.35 39.5022222,32.5 C39.4533333,32.65 39.2577778,32.65 39.16,32.8 C38.9644444,32.45 38.3777778,32.65 38.28,32.95 C38.1822222,33.2 38.4266667,33.4 38.4266667,33.65 C38.4755556,33.9 38.3288889,34.15 38.2311111,34.4 C38.0844444,34.65 37.4488889,35.15 37.6444444,35.45 C37.7911111,35.75 38.28,35.65 38.3288889,36.05 C37.84,35.95 37.6444444,35.95 37.4488889,35.45 C37.2533333,35.7 36.96,35.75 36.6666667,35.85 C36.1777778,36.15 35.0533333,36.6 34.76,36.8 C34.6133333,36.9 34.32,37.25 34.1733333,37.05 C34.1244444,37.25 33.9777778,37.2 33.88,37.1 C33.8311111,37.25 33.8311111,37.45 33.6355556,37.45 C33.44,37.4 33.4888889,37.15 33.4888889,37 C33.3422222,37.05 32.6088889,37.35 32.7066667,36.95 C32.6088889,37.2 32.56,37.35 32.3155556,37.4 C32.3644444,37 31.3866667,37.3 31.3377778,37.5 C31.1422222,37.4 31.24,37.1 30.9955556,37.05 C30.9955556,37.65 30.0177778,37.15 30.5066667,37.95 C30.3111111,37.95 30.1644444,37.95 30.0177778,37.85 C29.92,37.75 29.92,37.6 29.7733333,37.55 C29.5288889,37.45 29.1377778,37.75 29.1866667,38 C28.6977778,37.85 28.2577778,37.65 27.7688889,37.5 C27.6711111,37.45 27.1333333,37.45 27.1333333,37.3 C27.0844444,37.7 26.7422222,37.15 26.5466667,37.2 C26.6444444,37.4 26.3511111,37.4 26.2044444,37.4 C26.0577778,37.4 25.96,37.35 25.8133333,37.35 C25.7155556,37.35 25.6177778,37.5 25.4711111,37.45 L25.52,37.3 C25.0311111,37.3 24.64,36.95 24.2,36.75 C24.2,36.85 24.2,36.95 24.2488889,37.05 C24.0533333,36.8 24.0533333,36.55 24.1022222,36.25 C24.1022222,36.15 24.2488889,35.9 24.0533333,35.95 C23.9555556,35.45 24.3466667,35.15 24.4444444,34.7 C24.64,35 24.9333333,34.4 25.08,34.25 L24.9333333,34.15 C25.3733333,34 25.1777778,33.75 24.9822222,33.5 C25.08,33.6 25.3244444,33.55 25.2266667,33.4 L25.3244444,33.4 C25.2755556,33.35 25.2755556,33.25 25.2755556,33.15 C25.4222222,33.25 25.52,33.55 25.6177778,33.25 C25.6666667,33.05 25.3733333,32.85 25.5688889,32.65 C25.2755556,32.65 25.3244444,32.3 25.2755556,32.1 C25.1777778,31.8 24.8844444,31.5 25.0311111,31.2 C24.8355556,31.2 24.5911111,30.85 24.5911111,30.65 C24.2488889,30.85 24.3955556,30.2 24.3955556,30.05 C24.2488889,30.05 24.2,30.2 24.1022222,30.3 C24.0044444,30.1 23.9555556,30 23.76,29.9 C24.2488889,30.2 24.5911111,29.35 24.6888889,29 C24.7866667,28.7 24.7377778,28.25 24.6888889,27.95 C24.64,27.85 24.7866667,27.8 24.64,27.75 C24.4933333,27.7 24.4444444,27.9 24.3466667,27.95 C24.2977778,27.9 24.3466667,27.75 24.4444444,27.75 C24.2488889,27.85 24.2,27.65 24.2977778,27.5 C24.1022222,27.5 23.9066667,27.05 24.0533333,26.9 C23.6622222,26.8 23.4666667,26.4 23.1733333,26.15 C22.9777778,26 22.4888889,25.7 22.7333333,25.4 C22.5377778,25.6 22.2933333,25.3 22.1466667,25.15 C21.7066667,24.85 20.9244444,24.6 20.7288889,24.45 C20.5822222,24.35 20.4844444,24.05 20.2888889,24.05 C20.4355556,23.5 19.5066667,23.25 19.2622222,22.95 C18.9688889,23.2 18.1377778,22.4 18.3333333,23.1 C18.4311111,23.4 18.7244444,23.55 18.7733333,23.85 C18.8711111,24.15 18.7244444,24.5 18.5777778,24.75 C18.4311111,25 18.1866667,25.2 18.1377778,25.5 C18.04,25.75 18.04,26.1 17.9911111,26.35 C17.9911111,26.5 18.1377778,26.95 18.04,27.05 C17.8444444,27.25 17.6488889,26.9 17.5511111,26.8 C17.4044444,26.6 17.2577778,26.4 17.0133333,26.4 C16.72,26.4 16.3777778,26.65 16.28,26.9 C15.9866667,27.45 16.4266667,28 16.72,28.45 C16.8666667,28.7 17.0622222,28.95 16.8666667,29.2 C16.7688889,29.35 16.4755556,29.4 16.6711111,29.65 C16.8177778,29.8 17.0622222,29.75 17.1111111,30 C17.2088889,30.25 16.9155556,30.65 16.72,30.75 C16.72,30.65 16.6711111,30.5 16.5733333,30.45 C16.4266667,30.8 15.6933333,30.3 16.0355556,30 C15.8888889,29.9 15.7422222,29.9 15.5955556,29.75 C15.4977778,29.65 15.5955556,29.45 15.4488889,29.4 C15.4,29.6 14.96,29.5 14.7644444,29.6 L14.7644444,29.3 C14.52,29.4 14.6666667,29.65 14.3244444,29.65 L14.3733333,29.8 L14.2266667,29.8 C14.3244444,29.95 14.2755556,30.15 14.3733333,30.25 C14.4711111,30.4 14.6666667,30.4 14.7644444,30.5 C14.3733333,30.95 14.2266667,30.15 13.9822222,30.05 C13.8844444,30.65 13.2488889,30.4 12.9066667,30.25 C12.5644444,30.15 12.2222222,30 11.88,29.95 C11.5377778,29.9 11.0977778,29.9 10.8533333,29.65 C11.1955556,29.25 10.3155556,28.65 10.0711111,28.45 C9.72888889,28.15 8.70222222,26.7 8.50666667,26.3 C8.36,26.5 8.36,26.2 8.31111111,26.1 C8.21333333,25.85 8.11555556,25.65 7.87111111,25.55 C7.72444444,25.5 7.48,25.6 7.52888889,25.35 C7.57777778,25.15 7.87111111,25.05 8.01777778,25.05 C7.96888889,24.95 7.96888889,24.9 8.11555556,24.85 C7.96888889,24.55 7.57777778,25 7.38222222,24.75 C7.23555556,24.5 7.57777778,24.4 7.72444444,24.35 C7.96888889,24.3 8.16444444,24.4 8.16444444,24.05 C8.16444444,23.8 7.96888889,23.45 7.87111111,23.25 C7.72444444,22.85 7.62666667,22.55 7.62666667,22.15 C7.62666667,21.9 7.62666667,21.6 7.33333333,21.65 C6.94222222,21.65 6.50222222,22.4 6.45333333,22.75 C6.35555556,22.75 6.30666667,22.75 6.20888889,22.75 C6.20888889,22.65 6.30666667,21.8 6.01333333,21.9 C5.86666667,21.95 5.91555556,22.4 5.91555556,22.5 C5.91555556,22.7 5.96444444,22.9 5.76888889,23 C5.62222222,23.1 5.52444444,23.05 5.47555556,22.9 C5.42666667,22.75 5.57333333,22.5 5.57333333,22.35 C5.57333333,22.05 5.47555556,21.75 5.47555556,21.45 L5.57333333,21.5 C5.57333333,21.2 5.57333333,18.5 4.88888889,19 C4.79111111,18.7 5.13333333,18.8 5.28,18.7 C5.57333333,18.55 5.52444444,18.15 5.28,17.95 C5.62222222,17.95 6.11111111,17.45 6.16,17.1 C6.16,16.9 5.72,16.5 5.81777778,16.35 C5.72,16.35 5.62222222,16.35 5.52444444,16.4 C5.52444444,16.2 5.81777778,15.8 6.06222222,16 C6.06222222,15.8 6.11111111,15.65 6.16,15.45 C6.20888889,15.5 6.30666667,15.55 6.40444444,15.6 C6.25777778,15.45 6.35555556,15.2 6.40444444,15 C6.45333333,14.7 6.35555556,14.45 6.35555556,14.15 C6.30666667,13.65 6.45333333,13.1 6.11111111,12.7 C5.81777778,12.35 5.32888889,12.3 4.93777778,12.2 C4.35111111,12.1 3.76444444,11.85 3.17777778,11.95 L3.22666667,11.75 L3.12888889,11.7 C3.52,11.5 3.08,10.85 2.93333333,11.25 C2.93333333,11.1 2.54222222,10.9 2.44444444,10.95 L2.49333333,10.8 C2.2,10.9 2.10222222,10.55 1.95555556,10.6 L1.95555556,10.4 C1.80888889,10.45 1.80888889,10.7 1.61333333,10.7 C1.41777778,10.7 1.41777778,10.45 1.27111111,10.35 C1.71111111,10.25 0.537777778,9.65 0.928888889,9.4 C0.684444444,9.45 0.928888889,9.1 0.88,9.05 C0.831111111,9.05 0.782222222,9.05 0.733333333,9.1 C0.782222222,9 0.733333333,8.9 0.586666667,8.9 L0.684444444,8.8 L0.586666667,8.8 L0.635555556,8.7 C0.342222222,8.8 0.0977777778,8.35 0.391111111,8.25 C0.146666667,8.2 0.293333333,8 0.342222222,7.85 C0.244444444,7.9 0.146666667,7.9 0.146666667,7.75 C0.44,7.8 0.146666667,7.4 0.244444444,7.25" id="Path"></path>
        </g>
    </g>
</svg>