<svg width="38" height="32" viewBox="0 0 38 32" fill="none" xmlns="http://www.w3.org/2000/svg">
<path d="M26.5913 4.88374V4.94294L26.5537 4.99973V5.05893L26.6337 5.08053L26.7721 4.98054H26.8521V4.92134L26.7553 4.88374L26.6753 4.78374L26.6937 4.72375H26.7737L26.8329 4.76455L26.9704 4.70135L27.2104 4.74215L27.2704 4.80134L27.5104 4.88134L27.5288 4.72135L27.5696 4.68055L27.6296 4.66135L27.6888 4.58135H27.9648L28.1248 4.44056L28.0848 4.40296V4.36697L28.0248 4.28697L28.0848 4.16778V4.10858L27.9248 4.22697L27.1152 3.711H27.0552L27.0144 3.79099L27.0744 3.93179L27.0144 4.09178L27.0552 4.17178L27.0144 4.26857L26.948 4.28697V4.42456L26.8889 4.46536H26.7889L26.7513 4.42456L26.6921 4.40536L26.6513 4.48536L26.6921 4.52616L26.5321 4.66375L26.5137 4.76375L26.5913 4.88374Z" fill="#B472F5"/>
<path d="M23.9246 8.46358L24.0046 8.42518V8.34519L24.1046 8.38679L24.2237 7.98681L24.2837 7.92681L24.2645 7.78922H24.1461L24.2061 7.72922L24.1653 7.66922L23.987 7.62842L23.9678 7.59003H23.8678L23.8486 7.65002L23.7686 7.66842L23.7286 7.70922H23.6878L23.6694 7.74682L23.6094 7.78842L23.7102 7.88841H23.6502V7.94761H23.7686L23.7878 7.88841L23.747 7.82841H23.827L23.887 7.92521L23.807 8.00521H23.7494L23.7118 8.1028L23.9086 7.96521L23.7894 8.1436V8.24759L23.8294 8.32759L23.7694 8.38759L23.9078 8.42758L23.8886 8.32759L23.9454 8.28679L23.9246 8.46358Z" fill="#B472F5"/>
<path d="M24.9315 7.04125H24.5563L24.0619 7.41643H23.9819L24.0003 7.55403L24.2403 7.53483L24.2995 7.59403H24.3795L24.3387 7.51403L24.3987 7.45803L24.4395 7.49563L24.5763 7.43563L24.6147 7.45803L24.6371 7.41724L24.9907 7.29804L25.0915 7.31724L25.1099 7.35724L24.9907 7.47643L24.8139 7.45723L24.7139 7.55403L24.5539 7.53483L24.4739 7.57243L24.4363 7.65242L24.3763 7.67082L24.3171 7.73082L24.3971 7.74922L24.4379 7.89081L24.5179 7.92841L24.7747 7.73162H24.8547L24.8739 7.77242L25.0339 7.59403V7.49403H25.0939L25.1939 7.33404H25.2531V7.39084L25.1531 7.47083L25.2131 7.48923L25.1723 7.54843L25.3691 7.70842L25.5291 7.48923L25.6658 7.42923L25.5691 7.33244L25.6491 7.21324L25.6906 7.29324L25.7706 7.33404V7.37164H26.0106L26.1482 7.23404V7.19325L26.2074 7.25324L26.2258 7.31324L26.2674 7.35324L26.3858 7.13485L26.445 7.17565H26.4826V7.11565L26.5418 7.05645L26.5642 7.09725L26.5234 7.13485V7.24124L26.6426 7.22204L26.6842 7.15965V7.07965L26.7218 7.01965L26.8138 7.00126L26.7338 6.78207L26.853 6.34769L26.8154 6.26769L26.853 6.1677L26.9122 6.1269H26.9922L27.0298 5.96691L27.1098 5.88691L26.969 5.15495L26.809 5.07495L26.7874 5.11255L26.809 5.17255H26.889V5.25254H26.8298L26.789 5.29014L26.729 5.15255L26.673 5.13335L26.6506 5.27094L26.5314 5.40853L26.573 5.46773L26.513 5.60852L26.573 5.64612L26.413 6.1805L25.781 6.59648L25.701 6.53728L25.801 6.41888L25.7418 6.38129L25.6827 6.44048L25.6227 6.45968L25.6011 6.67887L25.4043 6.87646L25.4227 6.99566L25.3427 7.03645H25.2459L25.1867 6.97726L24.9315 7.04125Z" fill="#B472F5"/>
<path d="M13.8721 13.0937H13.9281L13.9601 12.9842L13.9977 12.9474L14.0697 12.941L14.1073 12.8818V12.8194L14.1545 12.885H14.1961L14.2521 12.841L14.2929 12.6218L14.3585 12.6882V12.7682L14.4681 12.897H14.5097L14.5505 13.3537L14.6041 13.4073V13.5265L14.6705 13.6273V13.6713L14.7889 13.9025V14.0873L14.8201 14.1185V14.1681L14.7665 14.2185L14.7761 14.2625L14.8353 14.3129L14.8129 14.5009L14.7721 14.5425V14.5769L14.7377 14.6121L14.7593 14.7529H14.7913L14.7753 14.8721L14.7225 14.9521V15.052L14.6785 15.132L14.6849 15.2512L14.6969 15.2632H14.7505L14.7729 15.2848H14.8201L14.9265 15.3944L14.9049 15.416L15.108 15.6104L15.1272 15.7072L15.252 15.832L15.296 16.2136L15.3496 16.2792L15.3616 16.4392L15.4248 16.5016V16.5928L15.5472 16.7L15.5632 16.844L15.6008 16.8944H15.632L15.8512 17.0543H15.9168L15.976 17.1295H16.0104L16.1384 17.2143H16.1584L16.2336 17.2895H16.2752L16.3096 17.3239H16.3408L16.3824 17.2831L16.1656 16.308L15.5776 15.668H15.4552L15.4272 15.64L15.32 15.6056L15.2824 15.568L15.2728 15.3024L15.1728 15.1928L15.148 15.0392L15.1136 15.0025L14.9889 15.0113L14.9353 14.8393L15.1696 13.8233L15.2888 13.7545H15.3984L15.4392 13.7825L15.4328 13.9793L15.464 14.0073L15.704 14.0161L15.876 14.1449L15.9008 14.1353L15.9808 14.2041V14.2769L16.0744 14.3705L16.0656 14.5145L16.084 14.5337H16.1216L16.1408 14.5145V14.4793L16.2096 14.4665V14.5049L16.232 14.5273L16.2232 14.5617L16.188 14.5961V14.6121H16.3184L16.3592 14.6529L16.432 14.6593L16.4912 14.7161H16.56L16.5544 14.7473L16.6384 14.8041L16.62 14.8233H16.592L16.5728 14.8425V14.8961L16.548 14.9177L16.5392 15.0928L16.5824 15.1368V15.1528L16.5576 15.1776L16.6232 15.168L16.7552 15.0273L16.8056 15.0113L16.8432 14.9737L16.9024 14.9577L16.9216 14.9385V14.8697L16.8496 14.7809L16.984 14.9033L17.0311 14.8913V14.8289L16.9344 14.7441V14.7193L17.0471 14.7993L17.0631 14.7865V14.7673L17.0383 14.7193V14.6953L17.0823 14.6537L17.0943 14.6161L17.1287 14.5937H17.1511L17.2103 14.6529H17.2671L17.8143 14.2617L17.8079 14.0737L17.8583 13.9889L17.6895 13.2417L17.0232 12.5322L17.0296 12.485L16.8384 12.281L16.7976 12.1306L16.8512 11.9242L17.0327 11.7706L17.0983 11.5762L17.2583 11.5546L17.4183 11.3546L17.4719 11.4082L17.4967 11.3834H17.5847L17.5943 11.2922H17.6223L17.6847 11.3722L17.7039 11.3562H17.7543L17.7599 11.3994L17.7823 11.4186H17.8799L17.9047 11.3618L17.9271 11.3842H18.0023L18.0303 11.4122L17.9615 11.509L18.0487 11.7626H18.1287L18.1727 11.7186L18.1503 11.6386L18.0975 11.6002V11.557L18.1255 11.5186V11.4842L18.1567 11.4466L18.1735 11.481L18.2039 11.4722L18.2319 11.441L18.3703 11.4186L18.4015 11.3906L18.5327 11.3594L18.5607 11.329H18.6983L18.7231 11.3042L18.7855 11.3354L18.8263 11.285H18.8783L18.8695 11.2442L18.9543 11.1874L19.0231 11.181L19.039 11.1658L19.0111 11.0371L18.9671 10.9963L19.047 10.9163H19.075L19.0838 10.9443L19.0718 11.0243L19.1558 11.1434L19.115 11.1802L19.259 11.1522V11.121L19.2934 11.0874V11.0586L19.3598 11.0466L19.3942 11.0778L19.5006 11.0187L19.523 11.0378H19.6262L19.667 10.9971L19.883 10.9723V10.9315L19.9054 10.9067L19.9142 10.8595L19.9614 10.8475L19.9702 10.7971L20.0014 10.7651H20.039L20.055 10.7811L20.0926 10.7531L20.143 10.7443V10.7067H20.1902L20.2182 10.6787V10.6411L20.287 10.6323L20.3438 10.5755L20.3126 10.5379V10.4971L20.3654 10.4875L20.3934 10.5067H20.4502L20.5038 10.4595V10.4283L20.5974 10.3443V10.3075H20.6382L20.6478 10.2851V10.2411L20.6766 10.2155L20.7014 10.2411L20.7294 10.2251H20.7574L20.7758 10.2123L20.7574 10.1899H20.7414L20.7326 10.1427L20.7574 10.1179L20.7478 10.0771L20.6678 10.0579L20.6382 10.0243L20.6662 10.0523H20.7286L20.835 9.9243L20.8126 9.89951L20.7654 9.88671L20.7494 9.82751H20.875L21.0877 9.49313L21.0373 9.41793L21.1029 9.45633L21.1437 9.41473H21.1909L21.1845 9.35873L21.2093 9.33393L21.2341 9.37473L21.2717 9.34993V9.32193L21.3157 9.27794L21.2069 9.19794L21.3069 9.20994L21.3413 9.15714V9.12754L21.2821 9.06835L21.3069 9.04355L21.3869 9.06275L21.4309 9.01875L21.4085 8.96515L21.2837 8.99635L21.4245 8.88676V8.83636L21.2269 8.72357L21.0989 8.81396L21.0454 8.75716L20.9486 8.73236H21.0741L21.3237 8.54117H21.4037L21.4093 8.49398L21.0373 8.21559L20.9406 8.23159L20.9158 8.20679L20.8654 8.19399L20.7854 8.0844L20.9174 8.19399H20.9894L21.0142 8.16599L21.3893 8.28839L21.4237 8.26919L21.3861 8.20679L21.3365 8.18439L21.2733 8.0812L21.1229 8.006L21.1389 7.84601L20.9198 7.44603L20.6798 7.29244H20.6382V7.23644L20.6734 7.20204L20.6886 7.13884L20.7686 7.05885L20.8254 7.04285L20.8974 6.96765L20.9198 6.83006H20.9582L20.9806 6.84926V6.88686H21.0245L21.0685 6.84366V6.81566L21.0933 6.79086V6.71567L21.1973 6.70926L21.2773 6.65567H21.3397L21.3901 6.60207H21.4813L21.5125 6.63727H21.5405L21.5997 6.56847L21.5941 6.46208H21.5629L21.5381 6.43408H21.5037L21.4541 6.39968L21.4253 6.42768L21.3101 6.41808L21.2733 6.39968L21.2381 6.40928L21.1629 6.33408L20.9974 6.33968L20.7998 6.53407H20.6718L20.5782 6.47088L20.5718 6.39568L20.6158 6.31569L20.6006 6.24129L20.547 6.19409H20.4942V6.23169L20.463 6.25089L20.4382 6.21889L20.2974 6.18449L20.1942 6.0877V5.9877L20.2254 5.9525V5.9245L20.279 5.85571L20.3166 5.84291L20.4102 5.9149L20.6694 5.78931L20.6854 5.69252L21.2077 5.26054H21.2445L21.2725 5.28854H21.2973L21.3133 5.30774L21.3541 5.29494L21.3973 5.25094L21.5133 5.37573L21.5061 5.45093L21.4725 5.49493V5.52612L21.2533 5.72051L21.2941 5.78291L21.4133 5.76371L21.3333 5.84371V5.88131L21.2269 5.9349L21.1981 5.9757L21.2229 6.0005L21.2733 5.9885L21.3485 5.9165H21.4429L22.1093 5.57572V5.60692L22.1277 5.62612H22.1877L22.2677 5.71012H22.3677L22.4213 5.76291L22.3805 5.9637L22.4557 6.0389H22.3333L22.2581 6.11889V6.18129L22.3141 6.24129V6.27569L22.4213 6.32928H22.4525L22.4749 6.24129L22.5661 6.29489L22.7445 6.30769L22.8629 6.56687L22.8437 6.64687L22.7981 6.58367L22.7573 6.62447L22.6189 6.64367L22.7381 6.70287L22.7789 6.76286L22.7589 6.84286L22.8589 6.88366L22.7997 7.00285V7.06285L22.7405 7.10364L22.7597 7.18364L22.6797 7.22444L22.6989 7.26204L22.7589 7.30284L22.6989 7.40043L22.7589 7.44123L22.7997 7.38203H22.8405L22.8781 7.35963H22.9373V7.39803L22.9973 7.37883L23.0196 7.34123L23.0572 7.31963V7.23964H23.118L23.1372 7.31963L23.1596 7.27884V7.23964L23.1788 7.22044L23.198 7.25804L23.3388 7.29884L23.3764 7.23964H23.278L23.3164 7.17964H23.4764L23.514 7.15724V7.10045L23.614 6.92205L23.5548 6.88126L23.5356 6.50607L23.0357 5.82451H22.9749L23.0157 5.78371V5.73971L23.0564 5.70212L23.0285 5.65252L23.094 5.63972L23.1564 5.57732H23.2724L23.3788 5.45493H23.4636L23.5076 5.38613V5.34533H23.5828L23.6668 5.25414L23.6612 5.00055L23.9012 4.75016L23.8892 4.67017L23.9364 4.62297L24.0364 4.58937V3.9198H24.1052L24.2588 3.76701H24.3708L24.4428 3.83261L24.6028 3.84141V3.70301L24.7716 3.53422L24.8316 3.21424L24.9188 3.12304V3.04305H24.9692L25.1163 2.91425L25.0443 2.83906L25.0563 2.70466L24.9764 2.62467H24.926L24.7196 2.75346H24.5508L24.4036 2.90386L24.0372 2.91345L23.9372 2.74466L23.9964 2.68467L23.8932 2.58147L23.9092 2.47508H23.8188L23.5716 2.25909H23.4916L23.4572 2.29269L23.0476 2.13909V1.9791H22.9877V1.86951L22.9077 1.78951V1.70232L22.8573 1.61112V1.53112L22.7229 1.35593L22.7389 1.25274L22.3877 0.820759L22.1845 0.836758L21.9277 0.698365L20.9582 0.917554L20.9118 1.00475V1.07355H21.0086L21.0653 1.13034V1.28394L20.611 1.85591L20.6838 1.9311L20.5422 2.0751H20.4422L20.2262 2.20309H20.0166L19.8478 2.0343L19.4846 2.0583L19.375 1.9487L19.135 1.9583L18.9567 2.13669L18.2255 2.35268L18.1815 2.30868H17.8999L17.8599 2.26789L17.5591 2.23029L17.4431 2.11749V2.0583L17.2087 2.0079L17.1183 1.9199L16.4272 1.9103L16.3768 1.9607L16.0016 1.89191L15.8136 1.70072L15.8048 1.54072L15.1416 1.37193L15.0192 1.24634L14.8593 1.26234L14.7593 1.38153H14.6793V1.48153H14.6289L14.5601 1.57912V1.63832L14.6881 1.84791V1.9199L14.5281 2.0799H14.4561L14.3969 2.13909L14.3529 2.0919H13.9337L13.8801 2.0415H13.6457L13.4985 1.83191H13.2105L13.1513 1.77271H13.0385L12.9818 1.71351L12.9162 1.77591H12.813L12.733 1.85591H12.6362L12.4826 2.0159H12.3106L12.2306 2.0911V2.15029L12.1962 2.18469H12.109L12.0338 2.26469H11.7586L11.6554 2.36468L11.3674 2.21429V2.14229H11.2922L11.2082 2.22629L10.9763 2.19189L10.8963 2.0823V2.0127L10.7867 1.9903L10.4891 1.67032L9.9483 1.72071L9.89231 1.66392H9.83871L9.72591 1.55432H9.61952L9.47233 1.70151L8.71237 0.610369L8.53397 0.550372L8.46518 0.481576L8.53397 0.412779L8.49318 0.371982L8.31479 0.40318L8.0748 0.60957H7.9684L7.9212 0.653568H7.74921L7.62762 0.775961L7.55242 0.650367L7.63242 0.570372L7.58202 0.519974H7.36603L7.28604 0.439978V0.380781H7.22604L7.16604 0.439978L6.99725 0.430379L6.95885 0.39998V0.290385L6.89006 0.149593V0.0615967L6.83406 0H6.77486L6.70287 0.0751961H6.64687L6.57487 0.00319961H6.21249V0.0799963H6.13249L6.0389 0.173591L5.26294 0.299185V0.379181L4.53097 0.479176L4.47738 0.532774H4.13099L4.0934 0.707965L4.35578 0.886356H4.20859L4.0022 1.01515L4.071 1.18394L3.82381 1.29034L3.9838 1.48473H4.17419L4.26219 1.57192L4.20539 1.62872V1.72871L3.86781 1.79751L3.80541 1.73111L3.68622 1.85031L3.61742 1.78151H3.47343L3.34143 1.65032H3.19264L3.12704 1.71271L2.70786 1.66872L2.61667 1.82871H2.48868L2.31908 1.65672L2.23909 1.73671V1.79351L1.9447 1.51992H1.71031L1.57912 1.39193L1.49113 1.48313L1.31273 1.49193L1.24954 1.42633H1.10554L0.976751 1.57992L0.896755 1.58952L0.846358 1.63992L0.766362 1.64952V1.69032L0.659967 1.79991H0.579971V1.88711L0.674366 1.9815L0.571171 2.0879H0.463177L0.287986 1.89991H0.187991V1.9967L0 2.18469L0.0871956 2.27589V2.36308L0.00719969 2.44788V2.58227L0.0735963 2.64787V2.70147L0.167192 2.79586V2.87986L0.376781 2.88946L0.658367 3.17104L0.504775 3.22784L0.699165 3.40943L1.32473 3.15264L1.53752 3.25264L1.66312 3.18944L1.75671 3.21104L1.87911 3.33343L1.86951 3.51822L1.84791 3.54062L1.82231 3.71581L2.0295 3.75981L2.0639 3.72861V3.71261L2.11429 3.70622L2.12709 3.71901V3.76621L2.18629 3.85981L2.15189 3.89741H2.0175L2.0079 3.9102H1.9727L1.86631 4.079L1.84471 4.063V4.0222L1.9791 3.87501L2.0663 3.86541L2.0887 3.84301L2.0695 3.80221L1.38473 3.73341L1.35913 3.75981L1.30873 3.76941L1.28714 3.79101V3.82861L1.25514 3.85981H1.23194V3.9294L1.28554 3.9606L1.29514 4.0014L1.31433 4.0198H1.34233L1.32633 4.0614L1.06075 4.011L1.02555 4.0302L1.00075 4.0894L1.01915 4.10859L1.12234 4.13979L1.20234 4.21979V4.29499L1.29034 4.37498V4.40618L1.31513 4.45338L1.30633 4.52857L1.42553 4.56297L1.50073 4.64297L1.59912 4.63977L1.62472 4.66777H1.67192L1.69112 4.79016L1.63432 4.89016L1.65272 5.05895L1.71271 5.13094V5.17174L1.73831 5.19654L1.75671 5.17414L1.75031 5.09415L1.76951 5.07895L1.74151 4.99095L1.79511 4.93735L2.0423 4.90615V4.93975L2.0711 4.97495V5.07175L2.30549 5.25654V5.29414L2.27349 5.31333L2.15509 5.30373V5.34453L2.13989 5.36133H2.0791L2.0447 5.38293H2.0103L1.9599 5.32614L1.9223 5.34853L1.85591 5.33253L1.74631 5.22054V5.26774L1.76871 5.29014V5.33093L1.74951 5.35013V5.38773L1.72711 5.40933V5.59972H1.9247V5.69972L1.9471 5.72451L1.86231 5.73091L1.83031 5.76211V5.80371L1.85911 5.82211H1.9191L2.0631 5.9477L2.0503 5.9637L2.0599 6.0293L2.0351 6.0541L2.0575 6.47328L2.21109 6.45808L2.43268 6.25489L2.72066 6.23889L2.76706 6.15969L2.97025 6.17249L3.01745 6.21969V6.25409L3.03905 6.27809L3.50143 6.38448L3.65502 6.54447L3.71501 6.53887L3.82141 6.59807L3.88701 6.69567H4.11899L4.14699 7.08045L4.12459 7.10285V7.11884L4.1054 7.15004L4.0926 7.29724L4.0174 7.37243V7.43163L3.9374 7.51642V7.67642L4.0438 7.72921L3.959 7.84201L4.0158 8.34918L4.27819 8.40278L4.31258 8.49718L4.0502 8.87556L4.57257 9.40113L4.58537 9.67392L4.71016 9.68592L4.68217 9.87711L4.47258 9.9059L4.34138 10.0091L4.23819 10.3291H4.45418L4.49178 10.2907H4.77656L4.81816 10.2499H4.87176L4.89655 10.2747H4.95015L4.98775 10.2363L5.05975 10.2803L5.52292 10.2395L5.54452 10.2171L5.62932 10.2051L5.68852 10.2739L5.70132 10.3803L5.74851 10.3963L5.75891 10.3995L5.80611 10.4187L5.83411 10.5563L5.9589 10.6979L6.11249 10.7259L6.12529 10.7419L6.20529 10.7235L6.15889 10.7675V10.7931L6.37488 11.0058L6.72766 10.9995L6.76206 10.9587L6.62127 11.1122L6.45568 11.1722L6.42128 11.1626L6.39328 11.1346H6.33648V11.1626L6.77486 11.6226L6.95005 11.6474L7.29404 11.4074L7.21884 11.313L7.23484 11.2658L7.28844 11.2122L7.28204 11.1778H7.34443L7.37883 11.2122L7.45883 11.193L7.41163 11.2434L7.36443 11.2498V11.3402L7.39003 11.365H7.43083L7.35883 11.4346L7.45643 11.5658V11.6754L7.39083 11.8066L8.73556 15.3264L8.85476 15.2984L8.94515 15.2016L8.95155 15.1328L9.00835 15.06L9.25234 15.0009L9.19554 14.9409V14.8905L9.24914 14.8249V14.7809L9.30274 14.7089L9.35953 14.6809H9.41873L9.45713 14.6465L9.43873 14.4593L9.40113 14.4057L9.50753 13.2233L9.73231 13.0297L9.74831 13.0889H9.79551L9.83311 12.977L9.87151 12.9426L10.1467 12.8762L10.1851 12.7162L11.2634 11.8754V11.8338L11.3106 11.8458L11.4578 11.6986L11.4514 11.4698L11.7858 11.2634V11.1914L11.777 11.1826L11.8266 11.233L11.805 11.2898L11.833 11.3698H11.861L11.8794 11.3418L11.9114 11.3362L11.9266 11.2978L11.9482 11.3578L12.0146 11.345L12.0586 11.3106H12.1386L12.1586 11.2794V11.2258L12.193 11.1906V11.3066H12.2242L12.2562 11.2754V11.237L12.3002 11.193V11.1178V11.2362H12.3378L12.3626 11.2114V11.2586L12.397 11.2866L12.4282 11.2586V11.193L12.4442 11.177H12.469L12.5066 11.1394L12.4474 11.0546V10.9795L12.4842 10.9451V10.9011L12.4042 10.8211L12.4426 10.7739H12.5274V10.8331L12.4962 10.8643L12.505 10.9835L12.5522 11.0306L12.561 11.0618L12.5994 11.0994L12.6834 11.0114H12.7426V11.0522L12.809 11.1154V11.1562H12.8458V11.3594L12.893 11.413V11.5074L13.0529 11.661V11.6954L13.1369 11.7834H13.1625L13.1905 11.7554V11.7362L13.2097 11.7986L13.1817 11.8266L13.2225 11.861L13.2473 11.8362L13.3193 11.861V11.889L13.4073 11.961L13.4193 11.9922L13.4033 12.0458L13.6193 12.4714L13.5913 12.8218L13.5313 12.9098L13.5505 12.9754L13.5417 13.0194H13.5889L13.6521 12.9162L13.6577 13.0194L13.7241 12.9882L13.7049 13.0449L13.7297 13.0729H13.7769L13.7953 13.0537L13.8721 13.0937ZM5.61892 6.22769L5.57812 6.18689L5.67812 6.28689L5.61892 6.22769Z" fill="#B472F5"/>
<path d="M9.99843 15.4841L9.81364 15.2273V15.1905L9.67204 14.9617L9.62085 14.9441L9.61125 14.9313L9.51445 14.9153L9.50885 15.0185L9.47765 15.0497H9.44326L9.46486 15.2097L9.41846 15.2721L9.50645 15.892L9.56245 15.9384L9.74724 15.9136L9.77844 15.8824H9.83524L10.0104 15.7224L9.99843 15.4841Z" fill="#B472F5"/>
<path d="M30.3252 25.7035L30.2876 25.6435L30.306 25.1091L30.3468 25.0907L30.3652 24.9716L30.3252 24.8916L30.2876 24.9516V24.9891L30.2076 25.0291L29.9101 24.6348L29.8101 24.6132L29.7725 24.5164H29.6925L29.6325 24.1964L29.5717 24.1404L29.5525 24.1812L29.4181 24.0844V24.1444H29.3589L29.2989 24.1068L29.1989 23.7684L29.0205 23.6084L29.1005 23.5284L28.8029 23.3308H28.7629L28.7437 23.2716L28.4277 23.1716L28.3717 23.0524L28.3909 22.9925L28.3109 22.9125L28.3293 22.7349L28.0733 22.0997L28.0917 21.9813L27.8574 21.7837L27.835 21.7245H27.7974L27.6374 21.8045V21.6845L27.5574 21.5661V21.3261L27.4774 21.1661L27.4966 21.1061L27.3774 21.0261L27.3582 20.7862H27.299L27.3182 20.727L27.2582 20.7078L27.1782 20.7878L27.1182 21.0853L27.0774 21.1069L27.0182 21.2261L27.1182 21.2861L27.059 21.3453L26.6646 22.7493L26.367 22.6309L26.3262 22.5509L26.1662 22.4709H26.0862L25.6919 22.1365L25.6735 22.1965H25.6439L25.3279 21.9781L25.3095 21.9181L25.2687 21.8997V21.8445L25.4655 21.6261H25.4847L25.4655 21.5669L25.3855 21.5885L25.4231 21.4477L25.5831 21.4101V21.2925L25.6631 21.2325L25.6855 21.1733L25.6055 21.0733H25.5455L25.5087 21.2109L25.3895 21.1733L25.4087 21.0317L25.2711 21.1325L25.1519 21.1509L25.0335 21.0917L24.9927 21.1133L24.8959 21.0541L24.8743 21.0133L24.4991 20.9334L24.4431 20.8334H24.2831L24.2639 20.8734L24.3239 20.9334H24.4039L24.4639 20.971L24.4455 21.0709L24.3447 21.1509H24.0287L23.9688 21.2309H23.8888L23.748 21.3909L23.7888 21.4917L23.5696 21.7477L23.6704 21.9077L23.6104 21.9261V21.9861L23.5304 21.9669L23.4712 21.9861L23.412 21.9245L23.312 21.9061L23.2144 21.9661V22.0661L23.1552 22.1037L23.2144 21.8877L23.036 21.7469L23.0184 21.6845L22.8584 21.5877L22.7992 21.6845H22.6208L22.5832 21.7845L22.5232 21.8253L22.3632 21.8437L22.3448 21.9237L22.3632 21.9837H22.2832V22.0245L22.3432 22.0837L22.2432 22.0645L22.124 22.1445L22.1648 22.3229L22.2248 22.3605H21.972L21.9321 22.3013H21.8921L21.9137 22.3605L21.8921 22.4005L21.9521 22.5013L21.9928 22.5197L21.9736 22.5797L21.8937 22.5613V22.6989L21.7153 22.3789L21.4993 22.5949L21.5185 22.8349L21.5585 22.8573L21.3985 22.9949L21.3801 23.0548H21.3201V23.1348L21.1233 23.3532L19.3634 23.9884L19.2834 24.126L19.2458 24.1444L19.1858 24.126L19.205 23.9884H19.1642L19.0842 24.2444L19.125 24.4044L19.0058 24.7244L19.2458 25.2371L19.1858 25.3563L19.0258 25.1587V25.2179L19.1058 25.3779L19.0682 25.3963L18.9082 25.1995L19.6586 27.0786L19.5986 27.613L19.4618 27.6314L19.4426 27.7914L19.4802 27.8322H19.5802L19.7586 27.9506L19.777 28.0106L19.9146 28.0906L21.2409 27.6554L21.3793 27.7154L21.4385 27.6938L21.4785 27.7738L21.5585 27.7338L21.6185 27.7522L21.6593 27.7146L21.7969 27.7338L21.8153 27.7146H21.8561L22.1312 27.3946L24.1263 26.9411L24.3447 27.101L24.4639 27.0602L24.6423 27.1794L24.7223 27.1378H24.7719L24.8311 27.1978L24.8495 27.257L24.9087 27.2754V27.3642L25.0879 27.5018L25.1063 27.6426L25.1655 27.6802L25.2455 27.8402L25.1863 27.8586L25.3463 28.0378H25.4063V27.9578L25.6039 27.6794L25.7823 27.6202V27.501L25.9199 27.4042V27.3482L25.9599 27.2882L25.979 27.3482L26.0014 27.3666L25.9606 27.6066L25.9423 27.625V27.6658L25.8823 27.7058L25.8607 27.981L25.8039 28.041L25.7039 28.0626L25.6855 28.1226H25.9015L26.0206 27.8258L26.1206 27.9058L26.0798 28.2442H26.2398L26.3198 28.1842L26.3574 28.2026L26.3198 28.2442L26.4982 28.4842V28.7242L26.6766 28.9993L26.9326 29.1177L26.9702 29.1769L27.011 29.1985L27.051 29.1385L27.111 29.1169L27.5646 29.3177L27.8398 29.1385V29.0793L27.899 29.0385H28.0181V29.0985L27.959 29.1385L27.9997 29.1985L28.0797 29.1769L28.0981 29.1393L28.1581 29.1585V29.2385L28.3357 29.3385L28.3581 29.2977L29.3053 28.9626L29.9556 27.377L30.1556 27.2394L30.1748 27.0202L30.294 26.8603L30.4132 25.8091L30.3252 25.7035Z" fill="#B472F5"/>
<path d="M28.9393 30.3745L28.9169 30.0241L28.8921 29.9873L28.5322 30.0625L28.513 30.1097L27.9258 29.9409L27.9786 30.3097L28.0354 30.3441L28.073 30.4505L28.1162 30.4625V30.5345L28.0762 30.5409L28.2074 30.8129L28.3042 30.8345L28.2978 30.8937L28.5482 30.9537V30.8089L28.6017 30.7937L28.6298 30.7593V30.6657H28.7361L28.8081 30.7097L28.7833 30.7441L28.7961 30.7785L28.8305 30.7505L28.8241 30.5249L28.8681 30.4497H28.9209L28.9369 30.4369L28.9393 30.3745Z" fill="#B472F5"/>
<path d="M37.5134 28.9546L37.479 28.9018L37.2199 29.0234L36.8439 28.9322L36.7535 28.5946H36.6735V28.7546H36.6255L36.5031 28.6322L36.4783 28.4602L36.3847 28.3666V28.325L36.4415 28.2818L35.9287 27.9066L36.0159 28.0434V28.1786L36.1039 28.2106L36.2135 28.4202L36.2599 28.445H36.3567V28.5202L36.3223 28.5546L36.3815 28.6138V28.6898H36.4575L36.4975 28.7338V29.1058L36.4255 29.1778V29.2841L36.3031 29.4065L36.1847 29.4377V29.5177L36.2439 29.5769L36.3239 29.5673L36.4143 29.6361H36.5015L36.5983 29.7737L36.5799 29.9337L36.5047 30.0337L36.4887 30.1401L36.5575 30.1801H36.5975V30.2209H36.6943L37.1135 29.6737V29.5985L37.0823 29.5673V29.4873L37.1622 29.4073L37.3438 29.3641L37.3534 29.2921L37.5134 29.1322V28.9546Z" fill="#B472F5"/>
<path d="M36.3065 30.0833L36.2993 30.0329L36.2121 30.1129L36.2249 29.9881L36.0969 30.1161H36.0369L36.0033 30.0817V29.9777H35.9433L35.8905 29.9249V29.8689L35.7369 30.0217V30.1161L35.5018 30.3729V30.4913L35.145 30.848H35.117L34.397 31.376V31.392L34.369 31.42L34.289 31.4416V31.5072L34.305 31.5416H34.225V31.68L34.145 31.7208L34.189 31.7648V31.8208L34.2354 31.868H34.2922L34.345 31.8152L34.4074 31.8752L34.5794 31.9088L34.6138 31.9432V32H34.8994L34.9586 31.9408H35.0594L35.2314 31.7376H35.2762V31.6312L35.4362 31.4336L35.4866 31.2112L35.7617 31.0328H35.9801V30.96H35.9145L35.9209 30.7944L36.0809 30.6345L36.0993 30.5457L36.3153 30.3057L36.2993 30.2257L36.2713 30.1945L36.3513 30.0817L36.3065 30.0833Z" fill="#B472F5"/>
<path d="M28.724 19.3126L29.3112 19.4318L29.5792 19.2095H29.6592L29.684 19.1223L29.7536 19.0471L29.7752 18.9463L29.7256 18.8663H29.6192L29.5656 18.9463L29.572 19.0063L29.3432 19.1943L29.224 19.2063V19.2191H29.1552L29.08 19.1127L29.036 19.2191H28.6616V19.2695L28.724 19.3126Z" fill="#B472F5"/>
<path d="M28.0514 18.8951L27.8858 18.7575H27.8602L27.8258 18.7191H27.7066L27.6314 18.6391L25.9331 18.0607L25.7835 18.1455V18.2175L25.5611 18.2775L25.2859 18.6055H25.1859L25.0139 18.4215V18.3911L24.9739 18.4319L24.9635 18.3815L24.9323 18.3535V18.2695L24.8971 18.2383V18.1191L24.9443 18.0759V18.0151L24.8723 17.9559L24.8467 17.8399L24.7339 17.8519L24.6492 17.8183L24.626 17.7839H24.562L24.5276 17.7463L24.3804 17.7527L24.2052 17.8807H24.0828L24.0932 17.9375L24.0132 18.0215L24.0452 18.0567L24.2604 18.1071L24.298 18.1439V18.1919L24.3916 18.2823L24.5292 18.3039L24.57 18.2639L24.8451 18.2727L24.8515 18.3479H24.8131L24.7947 18.3631H24.6852L24.6316 18.3135L24.4852 18.4511L24.454 18.4231H24.382L24.3348 18.4543L24.5628 18.6607L24.5444 18.7927L24.6444 18.8239L24.6628 18.8647L24.7059 18.8151L24.6651 18.7783L24.7275 18.7151V18.6551L24.7531 18.6327L24.7403 18.5527L24.7779 18.5183L24.8035 18.5463L24.7779 18.5743L24.8059 18.7063L24.8651 18.7431H24.9059L24.9435 18.7815L25.0571 18.7687L25.0907 18.8031L25.0691 18.8255L26.0107 19.2159V19.2663L26.0603 19.2879L26.2451 19.6198L26.2291 19.6318V19.6734L26.3235 19.7166H26.2819L26.2603 19.739L26.3011 19.7766L26.3107 19.8766L26.2579 19.9294L26.2827 19.951H26.3235L26.3579 19.9166L26.4051 19.9638L26.6019 19.9422L26.5739 19.9894L26.849 20.2614H27.1802L27.2178 20.3022H27.3458L27.5306 20.1582L27.205 19.983L27.577 20.0054V19.951L27.5298 19.9038L27.6834 19.9318L27.6242 19.8598V19.807L27.6458 19.7814L27.6898 19.8254H27.9298L27.9706 19.8654H28.0858L28.1386 19.919H28.205L28.4026 20.079L28.4186 20.1822L28.4554 20.2358H28.5218V20.3206L28.569 20.367H28.6625L28.701 20.4862L28.7473 20.5334L28.8729 20.5398L28.9321 20.599L29.4729 20.6246V20.687L29.5257 20.6998L29.5825 20.6774L29.5513 20.6494L29.6049 20.5934H29.5105L29.4537 20.5374H29.3817L29.3249 20.4806L29.3817 20.4206L29.3377 20.3766H29.2161L29.2001 20.267L29.1697 20.239H29.0257L28.9249 20.1134V20.0598L28.5906 19.7126V19.647L28.5378 19.5966L28.5762 19.559H28.7633L28.8009 19.5215V19.4591L28.6969 19.3559H28.5658L28.453 19.2519L28.3154 19.2263L28.2874 19.1983H28.2578L28.0514 18.8951Z" fill="#B472F5"/>
<path d="M20.1605 17.5207L20.3141 17.3679H20.5365L20.5765 17.3215L20.2565 17.0399L20.3069 16.9895L20.0669 16.6824V16.592H20.2421L20.1669 16.5168L20.4293 16.344L20.3733 16.3096L20.3541 16.2504L20.3917 16.2128H20.5669L20.6261 16.1784L20.6445 16.1256L20.5853 16.1008L20.5765 16.0704H20.5541L20.4349 15.9952L20.3101 16.0136L20.2981 15.9256L20.2181 15.92L20.1837 15.7888L20.1589 15.7632H20.1373L20.0245 15.6504L19.9589 15.7192L19.9365 15.696V15.6488L19.7517 15.8712V15.9208L19.6045 16.0744L19.5669 16.0864L19.5917 16.1664L19.5605 16.1976H19.463L19.1814 16.3576V16.392L18.5766 16.8319H18.4918L18.4078 16.9167L18.4238 16.9639L18.3862 16.9799L18.367 17.0239V17.0711L18.339 17.1183L18.3478 17.2119L18.3894 17.2559L17.9318 17.1055L17.8982 17.0711L17.7606 17.2119V17.3535L17.6606 17.4335L17.751 17.5239V17.6119L17.823 17.6871V17.8223L17.8614 17.8559V17.9183L17.9078 17.9687L17.9742 17.9031L18.0174 17.9871V18.2471L18.1206 18.3503L18.0958 18.4623H18.2054L18.2494 18.5095L18.4894 18.5031L18.5398 18.4535V18.6719L18.6086 18.6223H18.7774L18.8774 18.5223L18.9302 18.5783H19.0566V18.6407L19.263 18.6031L19.307 18.6463V18.7519L19.3406 18.811H19.4206L19.4806 18.7311H19.5997L19.7597 18.6119L19.7877 18.5023L19.8541 18.4399V18.3743L19.9077 18.3207L19.8541 18.2711L19.8477 18.1863L20.0261 17.9295H20.1261L20.2205 17.8359L20.1205 17.6943L20.1605 17.5207ZM17.9774 17.2327L17.8934 17.1447L17.9966 17.2511L17.9774 17.2327ZM18.5094 17.3927L18.7222 17.1767L18.5094 17.3927ZM19.2942 17.2111L19.2142 17.2831L19.3958 17.1111L19.2942 17.2111Z" fill="#B472F5"/>
<path d="M20.8704 17.6967L21.024 17.4927L22.0215 17.5687L22.0783 17.5151L22.1631 17.4895L22.3127 17.3111V17.2311L22.3535 17.1775L22.2935 17.1599L22.1111 17.3351L21.3296 17.3447L21.2704 17.2847L21.1328 17.2695L21.124 17.2911H21.1176L21.0424 17.4167L20.936 17.4047L20.8168 17.5239V17.8399H20.776L20.688 17.9495L20.6656 18.1839L20.6376 18.2087L20.632 18.3023L20.5784 18.3559V18.4214L20.5288 18.4678V18.5998L20.5944 18.6622L20.6856 18.643L20.7576 18.7182L20.6944 19.175L20.7424 19.2342H20.7608L20.7856 19.2534L20.9736 19.2438L20.9984 19.2062L20.968 18.9534L21.0016 18.8878L20.9824 18.4878L21.0856 18.3814L21.152 18.3998L21.1392 18.6782L21.1928 18.7318L21.2928 18.7662L21.3208 18.7942L21.3056 18.9694L21.3552 19.0198L21.5056 18.9006H21.628L21.6784 18.8502V18.7998L21.644 18.8126L21.5376 18.6686V18.4494L21.312 18.2215H21.2592L21.228 18.1335L21.3712 18.1687L21.396 18.1559L21.4064 18.1255L21.7264 17.9031H21.7767L21.8015 17.9191H21.8271L21.8175 17.7943L21.6736 17.8607L21.5264 17.8415L21.432 17.9103H21.372L21.3312 17.8727L21.1712 18.0423H21.0616L20.9864 17.9015L20.924 17.8791L20.8704 17.8039V17.6967Z" fill="#B472F5"/>
<path d="M22.0676 20.5574L22.4491 20.2758H22.5747L22.6499 20.2006H22.7219L22.9067 20.0502H22.7219L22.6715 20.1006H22.3995L22.3587 20.139H22.3051L21.8892 20.4198V20.6046H21.9836L22.0676 20.5574Z" fill="#B472F5"/>
<path d="M21.8023 14.7473V14.6977L21.8279 14.6537V14.6041L21.8559 14.5601V14.5321L21.7519 14.4977L21.7079 14.5513L21.6983 14.7049L21.6391 14.7737L21.5591 14.7825V14.9241L21.6623 15.0177H21.7223L21.7479 15.0433L21.7847 15.0177V14.9273L21.7567 14.8745V14.8241L21.8023 14.7473Z" fill="#B472F5"/>
<path d="M21.4204 14.4969V14.6385H21.4612L21.5212 14.5817L21.6084 14.5657L21.7524 14.4465V14.3777L21.7244 14.3457H21.6644L21.5108 14.2297L21.4508 14.2457L21.4668 14.4489L21.4204 14.4969Z" fill="#B472F5"/>
<path d="M21.9831 15.308V15.264L21.9303 15.1944L21.7583 15.2296L21.7359 15.2544V15.2864L21.6919 15.3296L21.5135 15.352L21.4287 15.6024L21.4695 15.64L21.5943 15.4208H21.6415L21.6815 15.4864H21.7071L21.7575 15.436L21.8167 15.516H21.8639V15.4248L21.8895 15.4L21.9239 15.4064L21.9623 15.4496H22.0087V15.4808L22.0559 15.5496V15.5744L22.0303 15.6024V15.824L22.2303 15.9528L22.3647 15.9312V16.0312L22.3863 16.0536L22.4463 16.0128L22.4999 15.9088L22.4591 15.84V15.796L22.4127 15.7488L22.4375 15.6688L22.4591 15.6464V15.6088L22.5111 15.556L22.627 15.8312H22.6646L22.639 15.684L22.719 15.6L22.7342 15.4616L22.6806 15.408V15.236L22.6151 15.1728L22.659 15.1288L22.675 15.0728L22.4527 14.8441L22.4215 14.8753L22.4495 15.044H22.3455V15.1008H22.2519L22.2607 15.1512L22.2167 15.1944H22.1367L22.0567 15.308H21.9831Z" fill="#B472F5"/>
<path d="M20.8765 12.9938L20.8325 12.953L20.8981 13.2497L20.8733 13.3433L21.0205 13.4873V13.3929H21.0709L21.1509 13.4529L21.0661 13.5409L21.1133 13.6569L21.1933 13.7161H21.2533L21.3221 13.6473H21.4221L21.5629 13.7601V13.8105L21.5941 13.8425L21.6221 13.8137L21.6061 13.7697L21.5621 13.7361V13.6601H21.6125L21.7941 13.8105V13.8545L21.9885 13.9921L21.9725 14.0233L22.0525 14.0577V13.9353L21.9957 13.8793L21.9205 13.8633L21.9269 13.8041L21.8989 13.7761V13.7161H21.9461V13.6697H21.9021L21.8109 13.6097V13.6849H21.7581L21.7237 13.6257V13.5729L21.5821 13.5481L21.5021 13.6281L21.4269 13.6217L21.2797 13.3281V13.1681L21.3205 13.1282V13.0994L21.4005 13.0114H21.4565L21.6005 12.733L21.5277 12.6674L21.5093 12.3266L21.3997 12.3546L21.3589 12.3946L21.1989 12.245L21.0301 12.3546L20.9989 12.9458L20.9493 12.9962L20.8765 12.9938Z" fill="#B472F5"/>
<path d="M22.4336 14.1505L22.3208 14.0345H22.1232L22.0952 14.0633L22.1104 14.1313L22.1952 14.2065V14.2281L22.2752 14.2977V14.3825L22.3784 14.4729H22.4632L22.4336 14.1505Z" fill="#B472F5"/>
<path d="M18.9471 19.9918L19.0847 20.0918H19.2447L19.3046 20.1358V20.0358L19.5326 20.183V20.1158L19.6358 20.0814V20.0462L19.4758 19.9526H19.307V19.8758H18.8999L18.6687 19.603H18.5527L18.4935 19.5414H18.3623L18.2775 19.4566L18.1895 19.5438V19.6102L17.6791 19.5974L17.5319 19.4502H17.3943L17.3031 19.359H17.2344L17.2 19.3254L17.1504 19.3758L16.9104 19.3438L16.7504 19.5038L16.7344 19.579L16.9376 19.5918L16.9904 19.6454V19.7046L17.0464 19.7606H17.1432L17.196 19.8134H17.3807L17.4719 19.8798L18.7783 20.0358L18.8127 20.0662L18.9471 19.9918Z" fill="#B472F5"/>
<path d="M16.8335 19.2967L16.8527 18.6047L16.9031 18.5551L16.7151 18.3151H16.6127L16.5247 18.3743V18.2943L16.5751 18.2447L16.4151 18.0663V17.9863L16.2455 17.9743L16.1575 17.8871L16.1519 17.7151L16.2367 17.6303L16.1567 17.5503H15.9783L16.0287 17.5008L16.0063 17.4408L15.8879 17.4848L15.7656 17.3632V17.2968L15.4656 16.996H15.3968L15.4088 17.1184L15.3144 17.0248L15.2864 16.9368H15.2368L14.9208 16.6208H14.8512L14.6824 16.4608V16.3808L14.4424 16.1408H14.064L13.98 16.0568H13.7769V16.1768L14.196 16.5864H14.2648L14.5048 16.8648V16.9496L14.552 16.9968H14.608L14.848 17.2408L14.88 17.4848L15.0864 17.6159V17.6967L15.28 17.9007L15.2648 17.9807L15.4528 18.2439V18.3063L15.5376 18.3911V18.4711L15.8288 18.6903V18.7655L16.4767 19.3159L16.4951 19.2159L16.5455 19.2663L16.7231 19.2567L16.7735 19.3039L16.8335 19.2967Z" fill="#B472F5"/>
</svg>
