<svg width="47" height="41" viewBox="0 0 47 41" fill="none" xmlns="http://www.w3.org/2000/svg">
<path d="M33.241 7.10299V7.17699L33.194 7.24799V7.32199L33.294 7.34899L33.467 7.22399H33.567V7.14999L33.446 7.10299L33.346 6.97799L33.369 6.90299H33.469L33.543 6.95399L33.715 6.87499L34.015 6.92599L34.09 6.99999L34.39 7.09999L34.413 6.89999L34.464 6.84899L34.539 6.82499L34.613 6.72499H34.958L35.158 6.54899L35.108 6.50199V6.45699L35.033 6.35699L35.108 6.20799V6.13399L34.908 6.28199L33.896 5.63699H33.821L33.77 5.73699L33.845 5.91299L33.77 6.11299L33.821 6.21299L33.77 6.33399L33.687 6.35699V6.52899L33.613 6.57999H33.488L33.441 6.52899L33.367 6.50499L33.316 6.60499L33.367 6.65599L33.167 6.82799L33.144 6.95299L33.241 7.10299Z" fill="#22C3FF"/>
<path d="M29.9072 11.578L30.0072 11.53V11.43L30.1322 11.482L30.2812 10.982L30.3562 10.907L30.3322 10.735H30.1842L30.2592 10.66L30.2082 10.585L29.9852 10.534L29.9612 10.486H29.8362L29.8122 10.561L29.7122 10.584L29.6622 10.635H29.6112L29.5882 10.682L29.5132 10.734L29.6392 10.859H29.5642V10.933H29.7122L29.7362 10.859L29.6852 10.784H29.7852L29.8602 10.905L29.7602 11.005H29.6882L29.6412 11.127L29.8872 10.955L29.7382 11.178V11.308L29.7882 11.408L29.7132 11.483L29.8862 11.533L29.8622 11.408L29.9332 11.357L29.9072 11.578Z" fill="#22C3FF"/>
<path d="M31.166 9.79999H30.697L30.079 10.269H29.979L30.002 10.441L30.302 10.417L30.376 10.491H30.476L30.425 10.391L30.5 10.321L30.551 10.368L30.722 10.293L30.77 10.321L30.798 10.27L31.24 10.121L31.366 10.145L31.389 10.195L31.24 10.344L31.019 10.32L30.894 10.441L30.694 10.417L30.594 10.464L30.547 10.564L30.472 10.587L30.398 10.662L30.498 10.685L30.549 10.862L30.649 10.909L30.97 10.663H31.07L31.094 10.714L31.294 10.491V10.366H31.369L31.494 10.166H31.568V10.237L31.443 10.337L31.518 10.36L31.467 10.434L31.713 10.634L31.913 10.36L32.084 10.285L31.963 10.164L32.063 10.015L32.115 10.115L32.215 10.166V10.213H32.515L32.687 10.041V9.98999L32.761 10.065L32.784 10.14L32.836 10.19L32.984 9.91699L33.058 9.96799H33.105V9.89299L33.179 9.81899L33.207 9.86999L33.156 9.91699V10.05L33.305 10.026L33.357 9.94799V9.84799L33.404 9.77299L33.519 9.74999L33.419 9.47599L33.568 8.93299L33.521 8.83299L33.568 8.70799L33.642 8.65699H33.742L33.789 8.45699L33.889 8.35699L33.713 7.44199L33.513 7.34199L33.486 7.38899L33.513 7.46399H33.613V7.56399H33.539L33.488 7.61099L33.413 7.43899L33.343 7.41499L33.315 7.58699L33.166 7.75899L33.218 7.83299L33.143 8.00899L33.218 8.05599L33.018 8.72399L32.228 9.24399L32.128 9.16999L32.253 9.02199L32.179 8.97499L32.105 9.04899L32.03 9.07299L32.003 9.34699L31.757 9.59399L31.78 9.74299L31.68 9.79399H31.559L31.485 9.71999L31.166 9.79999Z" fill="#22C3FF"/>
<path d="M17.341 17.366H17.411L17.451 17.229L17.498 17.183L17.588 17.175L17.635 17.101V17.023L17.694 17.105H17.746L17.816 17.05L17.867 16.776L17.949 16.859V16.959L18.086 17.12H18.138L18.189 17.691L18.256 17.758V17.907L18.339 18.033V18.088L18.487 18.377V18.608L18.526 18.647V18.709L18.459 18.772L18.471 18.827L18.545 18.89L18.517 19.125L18.466 19.177V19.22L18.423 19.264L18.45 19.44H18.49L18.47 19.589L18.404 19.689V19.814L18.349 19.914L18.357 20.063L18.372 20.078H18.439L18.467 20.105H18.526L18.659 20.242L18.632 20.269L18.886 20.512L18.91 20.633L19.066 20.789L19.121 21.266L19.188 21.348L19.203 21.548L19.282 21.626V21.74L19.435 21.874L19.455 22.054L19.502 22.117H19.541L19.815 22.317H19.897L19.971 22.411H20.014L20.174 22.517H20.199L20.293 22.611H20.345L20.388 22.654H20.427L20.479 22.603L20.208 21.384L19.473 20.584H19.32L19.285 20.549L19.151 20.506L19.104 20.459L19.092 20.127L18.967 19.99L18.936 19.798L18.893 19.752L18.737 19.763L18.67 19.548L18.963 18.278L19.112 18.192H19.249L19.3 18.227L19.292 18.473L19.331 18.508L19.631 18.519L19.846 18.68L19.877 18.668L19.977 18.754V18.845L20.094 18.962L20.083 19.142L20.106 19.166H20.153L20.177 19.142V19.098L20.263 19.082V19.13L20.291 19.158L20.28 19.201L20.236 19.244V19.264H20.399L20.45 19.315L20.541 19.323L20.615 19.394H20.701L20.694 19.433L20.799 19.504L20.776 19.528H20.741L20.717 19.552V19.619L20.686 19.646L20.675 19.865L20.729 19.92V19.94L20.698 19.971L20.78 19.959L20.945 19.783L21.008 19.763L21.055 19.716L21.129 19.696L21.153 19.672V19.586L21.063 19.475L21.231 19.628L21.29 19.613V19.535L21.169 19.429V19.398L21.31 19.498L21.33 19.482V19.458L21.299 19.398V19.368L21.354 19.316L21.369 19.269L21.412 19.241H21.44L21.514 19.315H21.585L22.269 18.826L22.261 18.591L22.324 18.485L22.113 17.551L21.28 16.664L21.288 16.605L21.049 16.35L20.998 16.162L21.065 15.904L21.292 15.712L21.374 15.469L21.574 15.442L21.774 15.192L21.841 15.259L21.872 15.228H21.982L21.994 15.114H22.029L22.107 15.214L22.131 15.194H22.194L22.201 15.248L22.229 15.272H22.351L22.382 15.201L22.41 15.229H22.504L22.539 15.264L22.453 15.385L22.562 15.702H22.662L22.717 15.647L22.689 15.547L22.623 15.499V15.445L22.658 15.397V15.354L22.697 15.307L22.718 15.35L22.756 15.339L22.791 15.3L22.964 15.272L23.003 15.237L23.167 15.198L23.202 15.16H23.374L23.405 15.129L23.483 15.168L23.534 15.105H23.599L23.588 15.054L23.694 14.983L23.78 14.975L23.8 14.956L23.765 14.795L23.71 14.744L23.81 14.644H23.845L23.856 14.679L23.841 14.779L23.946 14.928L23.895 14.974L24.075 14.939V14.9L24.118 14.858V14.822L24.201 14.807L24.244 14.846L24.377 14.772L24.405 14.796H24.534L24.585 14.745L24.855 14.714V14.663L24.883 14.632L24.894 14.573L24.953 14.558L24.964 14.495L25.003 14.455H25.05L25.07 14.475L25.117 14.44L25.18 14.429V14.382H25.239L25.274 14.347V14.3L25.36 14.289L25.431 14.218L25.392 14.171V14.12L25.458 14.108L25.493 14.132H25.564L25.631 14.073V14.034L25.748 13.929V13.883H25.799L25.811 13.855V13.8L25.847 13.768L25.878 13.8L25.913 13.78H25.948L25.971 13.764L25.948 13.736H25.928L25.917 13.677L25.948 13.646L25.936 13.595L25.836 13.571L25.799 13.529L25.834 13.564H25.912L26.045 13.404L26.017 13.373L25.958 13.357L25.938 13.283H26.095L26.361 12.865L26.298 12.771L26.38 12.819L26.431 12.767H26.49L26.482 12.697L26.513 12.666L26.544 12.717L26.591 12.686V12.651L26.646 12.596L26.51 12.496L26.635 12.511L26.678 12.445V12.408L26.604 12.334L26.635 12.303L26.735 12.327L26.79 12.272L26.762 12.205L26.606 12.244L26.782 12.107V12.044L26.535 11.903L26.375 12.016L26.308 11.945L26.187 11.914H26.344L26.656 11.675H26.756L26.763 11.616L26.298 11.268L26.177 11.288L26.146 11.257L26.083 11.241L25.983 11.104L26.148 11.241H26.238L26.269 11.206L26.738 11.359L26.781 11.335L26.734 11.257L26.672 11.229L26.593 11.1L26.405 11.006L26.425 10.806L26.151 10.306L25.851 10.114H25.799V10.044L25.843 10.001L25.862 9.92199L25.962 9.82199L26.033 9.80199L26.123 9.70798L26.151 9.53599H26.199L26.227 9.55999V9.60699H26.282L26.337 9.55299V9.51799L26.368 9.48699V9.39299L26.498 9.38498L26.598 9.31799H26.676L26.739 9.25099H26.853L26.892 9.29499H26.927L27.001 9.20899L26.994 9.07598H26.955L26.924 9.04099H26.881L26.819 8.99799L26.783 9.03299L26.639 9.02099L26.593 8.99799L26.549 9.00998L26.455 8.91599L26.248 8.92299L26.001 9.16599H25.841L25.724 9.08699L25.716 8.99299L25.771 8.89299L25.752 8.79999L25.685 8.74099H25.619V8.78799L25.58 8.81199L25.549 8.77199L25.373 8.72899L25.244 8.60799V8.48299L25.283 8.43899V8.40399L25.35 8.31799L25.397 8.30199L25.514 8.39198L25.838 8.23499L25.858 8.11399L26.511 7.57399H26.557L26.592 7.60899H26.623L26.643 7.63299L26.694 7.61699L26.748 7.56199L26.893 7.71799L26.884 7.81199L26.842 7.86699V7.90599L26.568 8.14898L26.619 8.22699L26.768 8.20299L26.668 8.30299V8.34999L26.535 8.41699L26.499 8.46799L26.53 8.49899L26.593 8.48399L26.687 8.39399H26.805L27.638 7.96799V8.00699L27.661 8.03099H27.736L27.836 8.13599H27.961L28.028 8.20199L27.977 8.45299L28.071 8.54699H27.918L27.824 8.64699V8.72499L27.894 8.79999V8.84299L28.028 8.90999H28.067L28.095 8.79999L28.209 8.86699L28.432 8.88299L28.58 9.20699L28.556 9.30699L28.499 9.22799L28.448 9.27899L28.275 9.30299L28.424 9.37699L28.475 9.45199L28.45 9.55199L28.575 9.60299L28.501 9.75199V9.82699L28.427 9.87799L28.451 9.97799L28.351 10.029L28.375 10.076L28.45 10.127L28.375 10.249L28.45 10.3L28.501 10.226H28.552L28.599 10.198H28.673V10.246L28.748 10.222L28.776 10.175L28.823 10.148V10.048H28.899L28.923 10.148L28.951 10.097V10.048L28.975 10.024L28.999 10.071L29.175 10.122L29.222 10.048H29.099L29.147 9.97299H29.347L29.394 9.94499V9.87399L29.519 9.65099L29.445 9.59999L29.421 9.13099L28.796 8.27899H28.72L28.771 8.22799V8.17299L28.822 8.12599L28.787 8.06399L28.869 8.04799L28.947 7.96999H29.092L29.225 7.81699H29.331L29.386 7.73099V7.67999H29.48L29.585 7.56599L29.578 7.24899L29.878 6.93599L29.863 6.83599L29.922 6.77699L30.047 6.73499V5.89799H30.133L30.325 5.70699H30.465L30.555 5.78899L30.755 5.79999V5.62699L30.966 5.41599L31.041 5.01599L31.15 4.90199V4.80199H31.213L31.397 4.64099L31.307 4.54699L31.322 4.37899L31.222 4.27899H31.159L30.901 4.43999H30.69L30.506 4.62799L30.048 4.63999L29.923 4.42899L29.997 4.35399L29.868 4.22499L29.888 4.09199H29.775L29.466 3.82199H29.366L29.323 3.86399L28.811 3.67199V3.47199H28.736V3.33499L28.636 3.23499V3.12599L28.573 3.01199V2.91199L28.405 2.69299L28.425 2.56399L27.986 2.02399L27.732 2.04399L27.411 1.87099L26.199 2.14499L26.141 2.25399V2.33999H26.262L26.333 2.41099V2.60299L25.765 3.31799L25.856 3.41199L25.679 3.59199H25.554L25.284 3.75199H25.022L24.811 3.54099L24.357 3.57099L24.22 3.43399L23.92 3.44599L23.697 3.66899L22.783 3.93899L22.728 3.88399H22.376L22.326 3.83299L21.95 3.78599L21.805 3.64499V3.57099L21.512 3.50799L21.399 3.39799L20.535 3.38599L20.472 3.44899L20.003 3.36299L19.768 3.12399L19.757 2.92399L18.928 2.71299L18.775 2.55599L18.575 2.57599L18.45 2.72499H18.35V2.84999H18.287L18.201 2.97199V3.04599L18.361 3.30799V3.39799L18.161 3.59799H18.071L17.997 3.67199L17.942 3.61299H17.418L17.351 3.54999H17.058L16.874 3.28799H16.514L16.44 3.21399H16.299L16.228 3.13999L16.146 3.21799H16.017L15.917 3.31799H15.796L15.604 3.51799H15.389L15.289 3.61199V3.68599L15.246 3.72899H15.137L15.043 3.82899H14.699L14.57 3.95399L14.21 3.76599V3.67599H14.116L14.011 3.78099L13.721 3.73799L13.621 3.60099V3.51399L13.484 3.48599L13.112 3.08599L12.436 3.14899L12.366 3.07799H12.299L12.158 2.94099H12.025L11.841 3.12499L10.891 1.76099L10.668 1.68599L10.582 1.59999L10.668 1.51399L10.617 1.46299L10.394 1.50199L10.094 1.75999H9.961L9.902 1.81499H9.687L9.535 1.96799L9.441 1.81099L9.541 1.71099L9.478 1.64799H9.208L9.108 1.54799V1.47399H9.033L8.958 1.54799L8.747 1.53599L8.699 1.49799V1.36099L8.613 1.18499V1.07499L8.543 0.997986H8.469L8.379 1.09199H8.309L8.219 1.00199H7.766V1.09799H7.666L7.549 1.21499L6.579 1.37199V1.47199L5.664 1.59699L5.597 1.66399H5.164L5.117 1.88299L5.445 2.10599H5.261L5.003 2.26699L5.089 2.47799L4.78 2.61099L4.98 2.85399H5.218L5.328 2.96299L5.257 3.03399V3.15899L4.835 3.24499L4.757 3.16199L4.608 3.31099L4.522 3.22499H4.342L4.177 3.06099H3.991L3.909 3.13899L3.385 3.08399L3.271 3.28399H3.111L2.899 3.06899L2.799 3.16899V3.23999L2.431 2.89799H2.138L1.974 2.73799L1.864 2.85199L1.641 2.86299L1.562 2.78099H1.382L1.221 2.97299L1.121 2.98499L1.058 3.04799L0.958 3.05999V3.11099L0.825 3.24799H0.725V3.35699L0.843 3.47499L0.714 3.60799H0.579L0.36 3.37299H0.235V3.49399L0 3.72899L0.109 3.84299V3.95199L0.00900006 4.05799V4.22599L0.092 4.30799V4.37499L0.209 4.49299V4.59799L0.471 4.60999L0.823 4.96199L0.631 5.03299L0.874 5.25999L1.656 4.93899L1.922 5.06399L2.079 4.98499L2.196 5.01199L2.349 5.16499L2.337 5.39599L2.31 5.42399L2.278 5.64299L2.537 5.69799L2.58 5.65899V5.63899L2.643 5.63099L2.659 5.64699V5.70599L2.733 5.82299L2.69 5.86999H2.522L2.51 5.88599H2.466L2.333 6.09699L2.306 6.07699V6.02599L2.474 5.84199L2.583 5.82999L2.611 5.80199L2.587 5.75099L1.731 5.66499L1.699 5.69799L1.636 5.70999L1.609 5.73699V5.78399L1.569 5.82299H1.54V5.90999L1.607 5.94899L1.619 5.99999L1.643 6.02299H1.678L1.658 6.07499L1.326 6.01199L1.282 6.03599L1.251 6.10999L1.274 6.13399L1.403 6.17299L1.503 6.27299V6.36699L1.613 6.46699V6.50599L1.644 6.56499L1.633 6.65899L1.782 6.70199L1.876 6.80199L1.999 6.79799L2.031 6.83298H2.09L2.114 6.98599L2.043 7.11099L2.066 7.32199L2.141 7.41199V7.46299L2.173 7.49399L2.196 7.46599L2.188 7.36599L2.212 7.34699L2.177 7.23699L2.244 7.16999L2.553 7.13099V7.17299L2.589 7.21699V7.33799L2.882 7.56898V7.61599L2.842 7.63999L2.694 7.62799V7.67899L2.675 7.69999H2.599L2.556 7.72699H2.513L2.45 7.65599L2.403 7.68399L2.32 7.66399L2.183 7.52398V7.58298L2.211 7.61099V7.66199L2.187 7.68599V7.73299L2.159 7.75998V7.99799H2.406V8.12299L2.434 8.15399L2.328 8.16199L2.288 8.20098V8.25299L2.324 8.27599H2.399L2.579 8.43299L2.563 8.45299L2.575 8.53499L2.544 8.56599L2.572 9.08998L2.764 9.07099L3.041 8.81699L3.401 8.79699L3.459 8.69799L3.713 8.71399L3.772 8.77299V8.81599L3.799 8.84599L4.377 8.97899L4.569 9.17899L4.644 9.17199L4.777 9.24599L4.859 9.36799H5.149L5.184 9.84899L5.156 9.87699V9.89699L5.132 9.93599L5.116 10.12L5.022 10.214V10.288L4.922 10.394V10.594L5.055 10.66L4.949 10.801L5.02 11.435L5.348 11.502L5.391 11.62L5.063 12.093L5.716 12.75L5.732 13.091L5.888 13.106L5.853 13.345L5.591 13.381L5.427 13.51L5.298 13.91H5.568L5.615 13.862H5.971L6.023 13.811H6.09L6.121 13.842H6.188L6.235 13.794L6.325 13.849L6.904 13.798L6.931 13.77L7.037 13.755L7.111 13.841L7.127 13.974L7.186 13.994L7.199 13.998L7.258 14.022L7.293 14.194L7.449 14.371L7.641 14.406L7.657 14.426L7.757 14.403L7.699 14.458V14.49L7.969 14.756L8.41 14.748L8.453 14.697L8.277 14.889L8.07 14.964L8.027 14.952L7.992 14.917H7.921V14.952L8.469 15.527L8.688 15.558L9.118 15.258L9.024 15.14L9.044 15.081L9.111 15.014L9.103 14.971H9.181L9.224 15.014L9.324 14.99L9.265 15.053L9.206 15.061V15.174L9.238 15.205H9.289L9.199 15.292L9.321 15.456V15.593L9.239 15.757L10.92 20.157L11.069 20.122L11.182 20.001L11.19 19.915L11.261 19.824L11.566 19.75L11.495 19.675V19.612L11.562 19.53V19.475L11.629 19.385L11.7 19.35H11.774L11.822 19.307L11.799 19.073L11.752 19.006L11.885 17.528L12.166 17.286L12.186 17.36H12.245L12.292 17.22L12.34 17.177L12.684 17.094L12.732 16.894L14.08 15.843V15.791L14.139 15.806L14.323 15.622L14.315 15.336L14.733 15.078V14.988L14.722 14.977L14.784 15.04L14.757 15.111L14.792 15.211H14.827L14.85 15.176L14.89 15.169L14.909 15.121L14.936 15.196L15.019 15.18L15.074 15.137H15.174L15.199 15.098V15.031L15.242 14.987V15.132H15.281L15.321 15.093V15.045L15.376 14.99V14.896V15.044H15.423L15.454 15.013V15.072L15.497 15.107L15.536 15.072V14.99L15.556 14.97H15.587L15.634 14.923L15.56 14.817V14.723L15.606 14.68V14.625L15.506 14.525L15.554 14.466H15.66V14.54L15.621 14.579L15.632 14.728L15.691 14.787L15.702 14.826L15.75 14.873L15.855 14.763H15.929V14.814L16.012 14.893V14.944H16.058V15.198L16.117 15.265V15.383L16.317 15.575V15.618L16.422 15.728H16.454L16.489 15.693V15.669L16.513 15.747L16.478 15.782L16.529 15.825L16.56 15.794L16.65 15.825V15.86L16.76 15.95L16.775 15.989L16.755 16.056L17.025 16.588L16.99 17.026L16.915 17.136L16.939 17.218L16.928 17.273H16.987L17.066 17.144L17.073 17.273L17.156 17.234L17.132 17.305L17.163 17.34H17.222L17.245 17.316L17.341 17.366ZM7.024 8.78299L6.973 8.73199L7.098 8.85699L7.024 8.78299Z" fill="#22C3FF"/>
<path d="M12.4989 20.354L12.2679 20.033V19.987L12.0909 19.701L12.0269 19.679L12.0149 19.663L11.8939 19.643L11.8869 19.772L11.8479 19.811H11.8049L11.8319 20.011L11.7739 20.089L11.8839 20.864L11.9539 20.922L12.1849 20.891L12.2239 20.852H12.2949L12.5139 20.652L12.4989 20.354Z" fill="#22C3FF"/>
<path d="M37.9082 33.129L37.8612 33.054L37.8842 32.386L37.9352 32.363L37.9582 32.214L37.9082 32.114L37.8612 32.189V32.236L37.7612 32.286L37.3892 31.793L37.2642 31.766L37.2172 31.645H37.1172L37.0422 31.245L36.9662 31.175L36.9422 31.226L36.7742 31.105V31.18H36.7002L36.6252 31.133L36.5002 30.71L36.2772 30.51L36.3772 30.41L36.0052 30.163H35.9552L35.9312 30.089L35.5362 29.964L35.4662 29.815L35.4902 29.74L35.3902 29.64L35.4132 29.418L35.0932 28.624L35.1162 28.476L34.8232 28.229L34.7952 28.155H34.7482L34.5482 28.255V28.105L34.4482 27.957V27.657L34.3482 27.457L34.3722 27.382L34.2232 27.282L34.1992 26.982H34.1252L34.1492 26.908L34.0742 26.884L33.9742 26.984L33.8992 27.356L33.8482 27.383L33.7742 27.532L33.8992 27.607L33.8252 27.681L33.3322 29.436L32.9602 29.288L32.9092 29.188L32.7092 29.088H32.6092L32.1162 28.67L32.0932 28.745H32.0562L31.6612 28.472L31.6382 28.397L31.5872 28.374V28.305L31.8332 28.032H31.8572L31.8332 27.958L31.7332 27.985L31.7802 27.809L31.9802 27.762V27.615L32.0802 27.54L32.1082 27.466L32.0082 27.341H31.9332L31.8872 27.513L31.7382 27.466L31.7622 27.289L31.5902 27.415L31.4412 27.438L31.2932 27.364L31.2422 27.391L31.1212 27.317L31.0942 27.266L30.6252 27.166L30.5552 27.041H30.3552L30.3312 27.091L30.4062 27.166H30.5062L30.5812 27.213L30.5582 27.338L30.4322 27.438H30.0372L29.9622 27.538H29.8622L29.6862 27.738L29.7372 27.864L29.4632 28.184L29.5892 28.384L29.5142 28.407V28.482L29.4142 28.458L29.3402 28.482L29.2662 28.405L29.1412 28.382L29.0192 28.457V28.582L28.9452 28.629L29.0192 28.359L28.7962 28.183L28.7742 28.105L28.5742 27.984L28.5002 28.105H28.2772L28.2302 28.23L28.1552 28.281L27.9552 28.304L27.9322 28.404L27.9552 28.479H27.8552V28.53L27.9302 28.604L27.8052 28.58L27.6562 28.68L27.7072 28.903L27.7822 28.95H27.4662L27.4162 28.876H27.3662L27.3932 28.95L27.3662 29L27.4412 29.126L27.4922 29.149L27.4682 29.224L27.3682 29.201V29.373L27.1452 28.973L26.8752 29.243L26.8992 29.543L26.9492 29.571L26.7492 29.743L26.7262 29.818H26.6512V29.918L26.4052 30.191L24.2052 30.985L24.1052 31.157L24.0582 31.18L23.9832 31.157L24.0072 30.985H23.9562L23.8562 31.305L23.9072 31.505L23.7582 31.905L24.0582 32.546L23.9832 32.695L23.7832 32.448V32.522L23.8832 32.722L23.8362 32.745L23.6362 32.499L24.5742 34.848L24.4992 35.516L24.3282 35.539L24.3042 35.739L24.3512 35.79H24.4762L24.6992 35.938L24.7222 36.013L24.8942 36.113L26.5522 35.569L26.7252 35.644L26.7992 35.617L26.8492 35.717L26.9492 35.667L27.0242 35.69L27.0752 35.643L27.2472 35.667L27.2702 35.643H27.3212L27.6652 35.243L30.1592 34.676L30.4322 34.876L30.5812 34.825L30.8042 34.974L30.9042 34.922H30.9662L31.0402 34.997L31.0632 35.071L31.1372 35.094V35.205L31.3612 35.377L31.3842 35.553L31.4582 35.6L31.5582 35.8L31.4842 35.823L31.6842 36.047H31.7592V35.947L32.0062 35.599L32.2292 35.525V35.376L32.4012 35.255V35.185L32.4512 35.11L32.4752 35.185L32.5032 35.208L32.4522 35.508L32.4292 35.531V35.582L32.3542 35.632L32.3272 35.976L32.2562 36.051L32.1312 36.078L32.1082 36.153H32.3782L32.5272 35.782L32.6522 35.882L32.6012 36.305H32.8012L32.9012 36.23L32.9482 36.253L32.9012 36.305L33.1242 36.605V36.905L33.3472 37.249L33.6672 37.397L33.7142 37.471L33.7652 37.498L33.8152 37.423L33.8902 37.396L34.4572 37.647L34.8012 37.423V37.349L34.8752 37.298H35.0242V37.373L34.9502 37.423L35.0012 37.498L35.1012 37.471L35.1242 37.424L35.1992 37.448V37.548L35.4212 37.673L35.4492 37.622L36.6332 37.203L37.4462 35.221L37.6962 35.049L37.7202 34.775L37.8692 34.575L38.0182 33.261L37.9082 33.129Z" fill="#22C3FF"/>
<path d="M36.1762 38.968L36.1482 38.53L36.1172 38.484L35.6672 38.578L35.6432 38.637L34.9092 38.426L34.9752 38.887L35.0462 38.93L35.0932 39.063L35.1472 39.078V39.168L35.0972 39.176L35.2612 39.516L35.3822 39.543L35.3742 39.617L35.6872 39.692V39.511L35.7542 39.492L35.7892 39.449V39.332H35.9222L36.0122 39.387L35.9812 39.43L35.9972 39.473L36.0402 39.438L36.0322 39.156L36.0872 39.062H36.1532L36.1732 39.046L36.1762 38.968Z" fill="#22C3FF"/>
<path d="M46.8941 37.193L46.8511 37.127L46.5271 37.279L46.0571 37.165L45.9441 36.743H45.8441V36.943H45.7841L45.6311 36.79L45.6001 36.575L45.4831 36.458V36.406L45.5541 36.352L44.9131 35.883L45.0221 36.054V36.223L45.1321 36.263L45.2691 36.525L45.3271 36.556H45.4481V36.65L45.4051 36.693L45.4791 36.767V36.862H45.5741L45.6241 36.917V37.382L45.5341 37.472V37.605L45.3811 37.758L45.2331 37.797V37.897L45.3071 37.971L45.4071 37.959L45.5201 38.045H45.6291L45.7501 38.217L45.7271 38.417L45.6331 38.542L45.6131 38.675L45.6991 38.725H45.7491V38.776H45.8701L46.3941 38.092V37.998L46.3551 37.959V37.859L46.4551 37.759L46.6821 37.705L46.6941 37.615L46.8941 37.415V37.193Z" fill="#22C3FF"/>
<path d="M45.3851 38.604L45.3761 38.541L45.2671 38.641L45.2831 38.485L45.1231 38.645H45.0481L45.0061 38.602V38.472H44.9311L44.8651 38.406V38.336L44.6731 38.527V38.645L44.3791 38.966V39.114L43.9331 39.56H43.8981L42.9981 40.22V40.24L42.9631 40.275L42.8631 40.302V40.384L42.8831 40.427H42.7831V40.6L42.6831 40.651L42.7381 40.706V40.776L42.7961 40.835H42.8671L42.9331 40.769L43.0111 40.844L43.2261 40.886L43.2691 40.929V41H43.6261L43.7001 40.926H43.8261L44.0411 40.672H44.0971V40.539L44.2971 40.292L44.3601 40.014L44.7041 39.791H44.9771V39.7H44.8951L44.9031 39.493L45.1031 39.293L45.1261 39.182L45.3961 38.882L45.3761 38.782L45.3411 38.743L45.4411 38.602L45.3851 38.604Z" fill="#22C3FF"/>
<path d="M35.9071 25.14L36.6411 25.289L36.9761 25.011H37.0761L37.1071 24.902L37.1941 24.808L37.2211 24.682L37.1591 24.582H37.0261L36.9591 24.682L36.9671 24.757L36.6811 24.992L36.5321 25.007V25.023H36.4461L36.3521 24.89L36.2971 25.023H35.8291V25.086L35.9071 25.14Z" fill="#22C3FF"/>
<path d="M35.0661 24.618L34.8591 24.446H34.8271L34.7841 24.398H34.6351L34.5411 24.298L32.4181 23.575L32.2311 23.681V23.771L31.9531 23.846L31.6091 24.256H31.4841L31.2691 24.026V23.988L31.2191 24.039L31.2061 23.976L31.1671 23.941V23.836L31.1231 23.797V23.648L31.1821 23.594V23.518L31.0921 23.444L31.0601 23.299L30.9191 23.314L30.8131 23.272L30.7841 23.229H30.7041L30.6611 23.182L30.4771 23.19L30.2581 23.35H30.1051L30.1181 23.421L30.0181 23.526L30.0581 23.57L30.3271 23.633L30.3741 23.679V23.739L30.4911 23.852L30.6631 23.879L30.7141 23.829L31.0581 23.84L31.0661 23.934H31.0181L30.9951 23.953H30.8581L30.7911 23.891L30.6081 24.063L30.5691 24.028H30.4791L30.4201 24.067L30.7051 24.325L30.6821 24.49L30.8071 24.529L30.8301 24.58L30.8841 24.518L30.8331 24.472L30.9111 24.393V24.318L30.9431 24.29L30.9271 24.19L30.9741 24.147L31.0061 24.182L30.9741 24.217L31.0091 24.382L31.0831 24.428H31.1341L31.1811 24.476L31.3231 24.46L31.3651 24.503L31.3381 24.531L32.5151 25.019V25.082L32.5771 25.109L32.8081 25.524L32.7881 25.539V25.591L32.9061 25.645H32.8541L32.8271 25.673L32.8781 25.72L32.8901 25.845L32.8241 25.911L32.8551 25.938H32.9061L32.9491 25.895L33.0081 25.954L33.2541 25.927L33.2191 25.986L33.5631 26.326H33.9771L34.0241 26.377H34.1841L34.4151 26.197L34.0081 25.978L34.4731 26.006V25.938L34.4141 25.879L34.6061 25.914L34.5321 25.824V25.758L34.5591 25.726L34.6141 25.781H34.9141L34.9651 25.831H35.1091L35.1751 25.898H35.2581L35.5051 26.098L35.5251 26.227L35.5711 26.294H35.6541V26.4L35.7131 26.458H35.8301L35.8781 26.607L35.9361 26.666L36.0931 26.674L36.1671 26.748L36.8431 26.78V26.858L36.9091 26.874L36.9801 26.846L36.9411 26.811L37.0081 26.741H36.8901L36.8191 26.671H36.7291L36.6581 26.6L36.7291 26.525L36.6741 26.47H36.5221L36.5021 26.333L36.4641 26.298H36.2841L36.1581 26.141V26.074L35.7401 25.64V25.558L35.6741 25.495L35.7221 25.448H35.9561L36.0031 25.401V25.323L35.8731 25.194H35.7091L35.5681 25.064L35.3961 25.032L35.3611 24.997H35.3241L35.0661 24.618Z" fill="#22C3FF"/>
<path d="M25.2021 22.9L25.3941 22.709H25.6721L25.7221 22.651L25.3221 22.299L25.3851 22.236L25.0851 21.852V21.739H25.3041L25.2101 21.645L25.5382 21.429L25.4681 21.386L25.4441 21.312L25.4911 21.265H25.7101L25.7841 21.222L25.8071 21.156L25.7332 21.125L25.7221 21.087H25.6941L25.5452 20.993L25.3891 21.016L25.3741 20.906L25.2741 20.899L25.2311 20.735L25.2001 20.703H25.1731L25.0322 20.562L24.9501 20.648L24.9221 20.619V20.56L24.6912 20.838V20.9L24.5071 21.092L24.4601 21.107L24.4911 21.207L24.4521 21.246H24.3302L23.9781 21.446V21.489L23.2221 22.039H23.1161L23.0112 22.145L23.0311 22.204L22.9841 22.224L22.9601 22.279V22.338L22.9251 22.397L22.9361 22.514L22.9881 22.569L22.4161 22.381L22.3741 22.338L22.2021 22.514V22.691L22.0771 22.791L22.1901 22.904V23.014L22.2801 23.108V23.277L22.3281 23.319V23.397L22.3862 23.46L22.4692 23.378L22.5231 23.483V23.808L22.6521 23.937L22.6211 24.077H22.7581L22.8131 24.136L23.1131 24.128L23.1761 24.066V24.339L23.2621 24.277H23.4731L23.5981 24.152L23.6642 24.222H23.8221V24.3L24.0802 24.253L24.1351 24.307V24.439L24.1772 24.513H24.2771L24.3521 24.413H24.5011L24.7011 24.264L24.7361 24.127L24.8191 24.049V23.967L24.8862 23.9L24.8191 23.838L24.8111 23.732L25.0341 23.411H25.1591L25.2771 23.294L25.1521 23.117L25.2021 22.9ZM22.4731 22.54L22.3681 22.43L22.4972 22.563L22.4731 22.54ZM23.1381 22.74L23.4041 22.47L23.1381 22.74ZM24.1191 22.513L24.0191 22.603L24.2461 22.388L24.1191 22.513Z" fill="#22C3FF"/>
<path d="M26.0891 23.12L26.2811 22.865L27.5281 22.96L27.5991 22.893L27.7051 22.861L27.8921 22.638V22.538L27.9431 22.471L27.8681 22.449L27.6401 22.668L26.6631 22.68L26.5891 22.605L26.4171 22.586L26.4061 22.613H26.3981L26.3041 22.77L26.1711 22.755L26.0221 22.904V23.299H25.9711L25.8611 23.436L25.8331 23.729L25.7981 23.76L25.7911 23.877L25.7241 23.944V24.026L25.6621 24.084V24.249L25.7441 24.327L25.8581 24.303L25.9481 24.397L25.8691 24.968L25.9291 25.042H25.9521L25.9831 25.066L26.2181 25.054L26.2491 25.007L26.2111 24.691L26.2531 24.609L26.2291 24.109L26.3581 23.976L26.4411 23.999L26.4251 24.347L26.4921 24.414L26.6171 24.457L26.6521 24.492L26.6331 24.711L26.6951 24.774L26.8831 24.625H27.0361L27.0991 24.562V24.499L27.0561 24.515L26.9231 24.335V24.061L26.6411 23.776H26.5751L26.5361 23.666L26.7151 23.71L26.7461 23.694L26.7591 23.656L27.1591 23.378H27.2221L27.2531 23.398H27.2851L27.2731 23.242L27.0931 23.325L26.9091 23.301L26.7911 23.387H26.7161L26.6651 23.34L26.4651 23.552H26.3281L26.2341 23.376L26.1561 23.348L26.0891 23.254V23.12Z" fill="#22C3FF"/>
<path d="M27.5858 26.696L28.0628 26.344H28.2198L28.3138 26.25H28.4038L28.6348 26.062H28.4038L28.3408 26.125H28.0008L27.9498 26.173H27.8828L27.3628 26.524V26.755H27.4808L27.5858 26.696Z" fill="#22C3FF"/>
<path d="M27.2542 19.433V19.371L27.2862 19.316V19.254L27.3212 19.199V19.164L27.1912 19.121L27.1362 19.188L27.1242 19.38L27.0502 19.466L26.9502 19.477V19.654L27.0792 19.771H27.1542L27.1862 19.803L27.2322 19.771V19.658L27.1972 19.592V19.529L27.2542 19.433Z" fill="#22C3FF"/>
<path d="M26.7769 19.12V19.297H26.8279L26.9029 19.226L27.0119 19.206L27.1919 19.057V18.971L27.1569 18.931H27.0819L26.8899 18.786L26.8149 18.806L26.8349 19.06L26.7769 19.12Z" fill="#22C3FF"/>
<path d="M27.4801 20.134V20.079L27.4141 19.992L27.1991 20.036L27.1711 20.067V20.107L27.1161 20.161L26.8931 20.189L26.7871 20.502L26.8381 20.549L26.9941 20.275H27.0531L27.1031 20.357H27.1351L27.1981 20.294L27.2721 20.394H27.3311V20.28L27.3631 20.249L27.4061 20.257L27.4541 20.311H27.5121V20.35L27.5711 20.436V20.467L27.5391 20.502V20.779L27.7891 20.94L27.9571 20.913V21.038L27.9841 21.066L28.0591 21.015L28.1261 20.885L28.0751 20.799V20.744L28.0171 20.685L28.0481 20.585L28.0751 20.557V20.51L28.1401 20.444L28.2851 20.788H28.3321L28.3001 20.604L28.4001 20.499L28.4191 20.326L28.3521 20.259V20.044L28.2701 19.965L28.3251 19.91L28.3451 19.84L28.0671 19.554L28.0281 19.593L28.0631 19.804H27.9331V19.875H27.8161L27.8271 19.938L27.7721 19.992H27.6721L27.5721 20.134H27.4801Z" fill="#22C3FF"/>
<path d="M26.097 17.241L26.042 17.19L26.124 17.561L26.093 17.678L26.277 17.858V17.74H26.34L26.44 17.815L26.334 17.925L26.393 18.07L26.493 18.144H26.568L26.654 18.058H26.779L26.955 18.199V18.262L26.994 18.302L27.029 18.266L27.009 18.211L26.954 18.169V18.074H27.017L27.244 18.262V18.317L27.487 18.489L27.467 18.528L27.567 18.571V18.418L27.496 18.348L27.402 18.328L27.41 18.254L27.375 18.219V18.144H27.434V18.086H27.379L27.265 18.011V18.105H27.199L27.156 18.031V17.965L26.979 17.934L26.879 18.034L26.785 18.026L26.601 17.659V17.459L26.652 17.409V17.373L26.752 17.263H26.822L27.002 16.915L26.911 16.833L26.888 16.407L26.751 16.442L26.7 16.492L26.5 16.305L26.289 16.442L26.25 17.181L26.188 17.244L26.097 17.241Z" fill="#22C3FF"/>
<path d="M28.0431 18.687L27.9021 18.542H27.6551L27.6201 18.578L27.6391 18.663L27.7451 18.757V18.784L27.8451 18.871V18.977L27.9741 19.09H28.0801L28.0431 18.687Z" fill="#22C3FF"/>
<path d="M23.6849 25.989L23.8569 26.114H24.0569L24.1319 26.169V26.044L24.4169 26.228V26.144L24.5459 26.101V26.057L24.3459 25.94H24.1349V25.844H23.6259L23.3369 25.503H23.1919L23.1179 25.426H22.9539L22.8479 25.32L22.7379 25.429V25.512L22.0999 25.496L21.9159 25.312H21.7439L21.6299 25.198H21.5439L21.5009 25.156L21.4389 25.219L21.1389 25.179L20.9389 25.379L20.9189 25.473L21.1729 25.489L21.2389 25.556V25.63L21.3089 25.7H21.4299L21.4959 25.766H21.7269L21.8409 25.849L23.4739 26.044L23.5169 26.082L23.6849 25.989Z" fill="#22C3FF"/>
<path d="M21.0432 25.12L21.0672 24.255L21.1302 24.193L20.8952 23.893H20.7672L20.6572 23.967V23.867L20.7202 23.805L20.5202 23.582V23.482L20.3082 23.467L20.1982 23.358L20.1912 23.143L20.2972 23.037L20.1972 22.937H19.9742L20.0372 22.875L20.0092 22.8L19.8612 22.855L19.7082 22.703V22.62L19.3332 22.244H19.2472L19.2622 22.397L19.1442 22.28L19.1092 22.17H19.0472L18.6522 21.775H18.5652L18.3542 21.575V21.475L18.0542 21.175H17.5812L17.4762 21.07H17.2222V21.22L17.7462 21.732H17.8322L18.1322 22.08V22.186L18.1912 22.245H18.2612L18.5612 22.55L18.6012 22.855L18.8592 23.019V23.12L19.1012 23.375L19.0822 23.475L19.3172 23.804V23.882L19.4232 23.988V24.088L19.7872 24.362V24.456L20.5972 25.144L20.6202 25.019L20.6832 25.082L20.9052 25.07L20.9682 25.129L21.0432 25.12Z" fill="#22C3FF"/>
</svg>
