<svg width="42" height="41" viewBox="0 0 42 41" fill="none" xmlns="http://www.w3.org/2000/svg">
<path d="M35.152 4.317L36.382 3.464C36.5014 3.38123 36.6466 3.34399 36.7912 3.35903C36.9357 3.37408 37.0701 3.4404 37.17 3.546L38.836 5.307C38.9175 5.39678 39.0314 5.45048 39.1525 5.45629C39.2737 5.4621 39.3922 5.41955 39.482 5.338C39.5717 5.25645 39.6254 5.14257 39.6313 5.02142C39.6371 4.90027 39.5945 4.78178 39.513 4.692L35.6 0.208C35.5429 0.142659 35.4725 0.0902906 35.3935 0.0544143C35.3145 0.018538 35.2287 -1.55695e-05 35.142 9.80324e-09H32.414C32.374 0.000161931 32.3342 0.00418065 32.295 0.0120001L30.369 0.397C30.2983 0.410146 30.2305 0.435889 30.169 0.473L28.898 1.243C28.7875 1.30975 28.6586 1.33952 28.53 1.328L26.23 1.128C26.1336 1.11941 26.0407 1.08786 25.959 1.036L24.566 0.156C24.4891 0.107367 24.4023 0.0766353 24.3119 0.0660768C24.2216 0.0555182 24.13 0.0654027 24.044 0.0949998L21.531 0.966C21.5039 0.975219 21.4775 0.986244 21.452 0.999L19.564 1.965C19.5175 1.98878 19.4681 2.00627 19.417 2.017L18.252 2.266C18.0952 2.30011 17.9314 2.271 17.796 2.185L17.217 1.816C17.1445 1.77003 17.063 1.73994 16.9781 1.7277C16.8931 1.71546 16.8065 1.72136 16.724 1.745L16.052 1.937C16.0251 1.9448 15.9977 1.95082 15.97 1.955L14.286 2.192C14.1585 2.20937 14.0287 2.18582 13.9154 2.12476C13.8021 2.06369 13.7112 1.96825 13.6556 1.85218C13.6 1.73611 13.5827 1.6054 13.6061 1.47886C13.6295 1.35231 13.6925 1.23647 13.786 1.148C13.8425 1.09473 13.8845 1.02795 13.9082 0.953954C13.9318 0.879957 13.9362 0.80117 13.921 0.725L13.876 0.5C13.86 0.414786 13.8202 0.335857 13.7611 0.272427C13.702 0.208997 13.6261 0.163681 13.5423 0.141769C13.4584 0.119857 13.37 0.122253 13.2874 0.148676C13.2049 0.1751 13.1315 0.224462 13.076 0.291L12.29 1.203C12.2619 1.23566 12.2304 1.26517 12.196 1.291L10.853 2.311C10.7647 2.3779 10.6971 2.46837 10.658 2.572L10.539 2.895C10.5077 2.97953 10.458 3.05604 10.3934 3.11899C10.3289 3.18195 10.2512 3.22977 10.166 3.259L8.39397 3.866C8.24639 3.91635 8.1239 4.02165 8.05197 4.16L7.11297 5.96C7.07137 6.0395 7.04813 6.12733 7.04497 6.217L6.96997 8.124C6.96594 8.22383 6.93737 8.32113 6.88679 8.40729C6.83621 8.49345 6.76518 8.56582 6.67997 8.618L5.79097 9.163C5.70677 9.21473 5.63644 9.28621 5.58608 9.37124C5.53573 9.45627 5.50685 9.5523 5.50197 9.651L5.43597 10.98C5.42909 11.114 5.3761 11.2416 5.28597 11.341L5.06697 11.583C5.00487 11.6516 4.92793 11.7052 4.842 11.7396C4.75607 11.774 4.66342 11.7883 4.57111 11.7814C4.47881 11.7746 4.38929 11.7468 4.30937 11.7001C4.22946 11.6534 4.16126 11.589 4.10997 11.512L3.57797 10.712C3.50739 10.6061 3.40535 10.525 3.28622 10.4801C3.16709 10.4352 3.03689 10.4289 2.91397 10.462L2.50397 10.572C2.39194 10.6022 2.29089 10.6638 2.21275 10.7496C2.13461 10.8353 2.08264 10.9417 2.06297 11.056L1.86297 12.242C1.84575 12.3445 1.85509 12.4497 1.8901 12.5476C1.92511 12.6454 1.98463 12.7327 2.06297 12.801L2.49397 13.18C2.55542 13.2341 2.6053 13.3001 2.64063 13.374C2.67595 13.4479 2.69599 13.5281 2.69954 13.6099C2.70308 13.6917 2.69007 13.7734 2.66128 13.8501C2.63248 13.9267 2.5885 13.9968 2.53197 14.056L1.21597 15.436C1.11845 15.5385 1.05975 15.6718 1.04997 15.813L0.64597 21.525C0.641448 21.5679 0.641448 21.6111 0.64597 21.654L1.25797 25.897C1.27884 26.0414 1.35093 26.1734 1.46108 26.2691C1.57123 26.3647 1.71209 26.4176 1.85797 26.418H5.34597C5.42926 26.418 5.51166 26.4009 5.58804 26.3677C5.66443 26.3345 5.73316 26.2859 5.78997 26.225L6.62197 25.336C6.71694 25.2347 6.77431 25.1039 6.7845 24.9654C6.79469 24.8269 6.75709 24.6891 6.67797 24.575L5.77797 23.266C5.72673 23.1917 5.65958 23.1297 5.5814 23.0845C5.50322 23.0394 5.41596 23.0122 5.32597 23.005L4.91997 22.972C4.7859 22.9612 4.65919 22.9063 4.55967 22.8158C4.46014 22.7254 4.39343 22.6044 4.36997 22.472L3.86997 19.713C3.85003 19.6024 3.87153 19.4883 3.93038 19.3926C3.98923 19.2969 4.08129 19.2262 4.18897 19.194L4.28897 19.163C4.40421 19.1282 4.52851 19.1402 4.635 19.1963C4.74148 19.2524 4.82158 19.3483 4.85797 19.463L5.51297 21.602C5.54224 21.6961 5.59394 21.7817 5.66362 21.8514C5.7333 21.921 5.81887 21.9727 5.91297 22.002L6.28697 22.12C6.41905 22.1615 6.533 22.2469 6.60997 22.362L6.86697 22.748C6.92544 22.8331 7.00459 22.9019 7.09697 22.948L9.65797 24.248C9.7427 24.2909 9.81604 24.3533 9.87197 24.43L11.972 27.285L12.091 27.465L12.797 30.665C12.8037 30.7343 12.8223 30.802 12.852 30.865L14.406 34.145C14.4541 34.2466 14.5296 34.3328 14.624 34.394L15.881 35.211C16.0062 35.2923 16.1569 35.3246 16.3044 35.302C16.4519 35.2793 16.586 35.2031 16.681 35.088L16.847 34.888C16.8903 34.8355 16.9214 34.7739 16.9378 34.7078C16.9543 34.6417 16.9557 34.5727 16.942 34.506L16.422 31.946C16.3958 31.8174 16.412 31.6837 16.468 31.565L17.14 30.146C17.1904 30.0398 17.2707 29.9505 17.371 29.889L20.036 28.249C20.1647 28.1696 20.3184 28.141 20.467 28.169L22.143 28.483C22.2417 28.5016 22.3344 28.5444 22.4126 28.6076C22.4907 28.6708 22.552 28.7523 22.591 28.845L23.308 30.566C23.3483 30.6618 23.4125 30.7456 23.4944 30.8095C23.5763 30.8734 23.6733 30.9152 23.776 30.931L24.951 31.112C25.044 31.1263 25.1324 31.162 25.2093 31.2164C25.2862 31.2707 25.3494 31.3421 25.394 31.425L25.802 32.183C25.8646 32.3002 25.8871 32.4348 25.866 32.566L25.735 33.353C25.7214 33.4338 25.7244 33.5165 25.744 33.596L26.063 34.911C26.0785 34.9747 26.1041 35.0355 26.139 35.091L26.445 35.577C26.504 35.6707 26.5351 35.7793 26.5346 35.8901C26.5341 36.0009 26.5019 36.1092 26.442 36.2024C26.382 36.2955 26.2967 36.3696 26.1961 36.416C26.0955 36.4623 25.9837 36.479 25.874 36.464C25.7522 36.4484 25.6285 36.4717 25.5208 36.5306C25.413 36.5896 25.3267 36.681 25.2741 36.792C25.2215 36.903 25.2054 37.0277 25.228 37.1484C25.2506 37.2691 25.3108 37.3796 25.4 37.464L27.071 39.009C27.0951 39.0316 27.1212 39.052 27.149 39.07L28.919 40.237C28.9888 40.283 29.0699 40.309 29.1535 40.3121C29.237 40.3153 29.3198 40.2956 29.393 40.255L29.646 40.12C29.7407 40.0673 29.8138 39.9828 29.852 39.8813C29.8903 39.7799 29.8913 39.6681 29.855 39.566L29.609 38.883C29.5823 38.8094 29.542 38.7415 29.49 38.683L28.99 37.843L28.92 37.555C28.9796 37.4117 28.9821 37.2511 28.927 37.106L28.561 36.14C28.5227 36.0389 28.4581 35.9499 28.374 35.882L27.114 34.866C27.0481 34.8132 26.994 34.7472 26.9551 34.6724C26.9162 34.5975 26.8934 34.5153 26.888 34.4311C26.8826 34.3469 26.8949 34.2624 26.924 34.1832C26.9531 34.104 26.9984 34.0317 27.057 33.971L27.47 33.541C27.5548 33.4529 27.6642 33.3924 27.7839 33.3674C27.9036 33.3425 28.028 33.3542 28.141 33.401L29.374 33.912C29.4631 33.949 29.5597 33.9642 29.6559 33.9564C29.7521 33.9486 29.845 33.9179 29.927 33.867L31.392 32.96C31.4616 32.917 31.5218 32.8603 31.5691 32.7935C31.6163 32.7267 31.6496 32.651 31.667 32.571L31.828 31.821C31.8476 31.7288 31.8456 31.6333 31.822 31.542C31.7984 31.4507 31.7539 31.3661 31.692 31.295L30.718 30.175C30.6484 30.0948 30.6011 29.9979 30.5806 29.8937C30.5602 29.7896 30.5674 29.6819 30.6014 29.5814C30.6355 29.4808 30.6953 29.391 30.7749 29.3208C30.8544 29.2505 30.951 29.2023 31.055 29.181L32.099 28.968C32.2342 28.9419 32.3565 28.8707 32.446 28.766L33.57 27.409C33.6264 27.341 33.6674 27.2615 33.69 27.176L33.825 26.663C33.8653 26.5097 33.964 26.3784 34.1 26.297L35.115 25.688C35.2231 25.6228 35.3084 25.5257 35.359 25.41L36.801 22.11C36.8337 22.034 36.8506 21.9522 36.8506 21.8695C36.8506 21.7868 36.8337 21.705 36.801 21.629L36.383 20.643C36.3582 20.5848 36.3244 20.5308 36.283 20.483L35.369 19.422C35.309 19.352 35.219 19.322 35.175 19.228L35.062 18.81L35.362 18.05C35.4074 17.9872 35.4361 17.9138 35.4454 17.8369C35.4546 17.7599 35.4442 17.6819 35.415 17.6101C35.3858 17.5383 35.3388 17.4751 35.2784 17.4264C35.2181 17.3778 35.1463 17.3453 35.07 17.332L34.777 17.281C34.6807 17.2645 34.5898 17.2251 34.5119 17.1661C34.4341 17.107 34.3717 17.0301 34.3299 16.9418C34.2881 16.8535 34.2682 16.7564 34.2718 16.6588C34.2755 16.5612 34.3027 16.4659 34.351 16.381L34.404 16.287C34.4571 16.191 34.5362 16.1119 34.6323 16.0588C34.7283 16.0057 34.8374 15.9808 34.947 15.987L35.81 16.039C35.9046 16.0449 35.9966 16.0729 36.0785 16.1206C36.1605 16.1684 36.2301 16.2346 36.282 16.314L37.182 17.69C37.2321 17.7667 37.2989 17.8311 37.3775 17.8784C37.456 17.9256 37.5442 17.9545 37.6354 17.9629C37.7267 17.9713 37.8187 17.9589 37.9045 17.9267C37.9903 17.8945 38.0677 17.8433 38.131 17.777L38.252 17.65C38.3333 17.5639 38.3864 17.4552 38.4043 17.3381C38.4221 17.2211 38.4039 17.1014 38.352 16.995L37.206 14.636C37.1574 14.5355 37.1374 14.4236 37.1482 14.3125C37.159 14.2013 37.2 14.0953 37.267 14.006L37.567 13.606C37.6712 13.4626 37.7998 13.3388 37.947 13.24L37.999 12.953L37.628 8.503C37.6102 8.40867 37.5697 8.3201 37.51 8.245L36.71 7.245C36.6464 7.16567 36.5583 7.10973 36.4594 7.08602C36.3605 7.0623 36.2566 7.07214 36.164 7.114L35.979 7.199C35.917 7.2271 35.8496 7.24107 35.7817 7.23988C35.7137 7.23868 35.6468 7.22237 35.5859 7.19211C35.525 7.16185 35.4716 7.11841 35.4296 7.06494C35.3876 7.01148 35.358 6.94933 35.343 6.883L34.907 4.952C34.88 4.83379 34.8888 4.71021 34.9325 4.59708C34.9761 4.48395 35.0526 4.38643 35.152 4.317Z" fill="#22C3FF"/>
<path d="M41.0751 13.646L40.4461 12.29L40.5531 11.98L40.5761 11.516L40.3321 11.099C40.2374 11.0668 40.136 11.0593 40.0375 11.0771C39.939 11.0949 39.8467 11.1374 39.7692 11.2007C39.6917 11.264 39.6316 11.346 39.5945 11.4389C39.5574 11.5319 39.5445 11.6327 39.5571 11.732L39.6091 12.138C39.621 12.2327 39.6553 12.3232 39.7091 12.402L40.4841 13.512C40.5583 13.6181 40.5955 13.7457 40.5901 13.875L40.5091 15.682C40.5049 15.7813 40.4757 15.878 40.4241 15.963L39.1651 18.032C39.0873 18.1598 39.061 18.3124 39.0914 18.4589C39.1219 18.6053 39.2069 18.7348 39.3291 18.821C39.3993 18.8704 39.4794 18.9039 39.5638 18.9192C39.6483 18.9344 39.735 18.9311 39.8181 18.9094C39.9011 18.8877 39.9784 18.8481 40.0445 18.7935C40.1107 18.7388 40.1641 18.6704 40.2011 18.593L40.9481 17.034C40.9614 17.0069 40.9724 16.9789 40.9811 16.95L41.3271 15.808C41.3502 15.7319 41.3577 15.652 41.3491 15.573L41.1691 13.911C41.1595 13.8164 41.1272 13.7255 41.0751 13.646Z" fill="#22C3FF"/>
<path d="M36.2041 33.856C36.0662 33.7711 35.9017 33.7404 35.7425 33.7697C35.5833 33.7991 35.4406 33.8865 35.3421 34.015L34.0351 35.722C33.9851 35.7872 33.9234 35.8425 33.8531 35.885L32.1691 36.9C32.0597 36.9659 31.9721 37.0624 31.917 37.1775C31.8619 37.2927 31.8417 37.4215 31.8591 37.548L31.9051 37.884C31.9275 38.0486 32.0117 38.1984 32.1406 38.3032C32.2695 38.4079 32.4334 38.4597 32.5991 38.448L34.6041 38.305C34.7006 38.2982 34.7944 38.27 34.8786 38.2225C34.9628 38.1749 35.0354 38.1091 35.0911 38.03L36.1101 36.59C36.2062 36.4542 36.247 36.2868 36.2241 36.122L36.1331 35.472C36.1099 35.3085 36.1495 35.1424 36.2441 35.007L36.3981 34.786C36.449 34.713 36.4844 34.6304 36.5022 34.5433C36.52 34.4561 36.5198 34.3662 36.5017 34.2792C36.4835 34.1921 36.4477 34.1096 36.3966 34.0369C36.3454 33.9641 36.2799 33.9025 36.2041 33.856Z" fill="#22C3FF"/>
</svg>
