<?xml version="1.0" encoding="UTF-8"?>
<svg width="39px" height="52px" viewBox="0 0 39 52" version="1.1" xmlns="http://www.w3.org/2000/svg" xmlns:xlink="http://www.w3.org/1999/xlink">
    <!-- Generator: Sketch 63.1 (92452) - https://sketch.com -->
    <title>South America</title>
    <desc>Created with Sketch.</desc>
    <g id="Page-1" stroke="none" stroke-width="1" fill="none" fill-rule="evenodd">
        <g id="South-America" fill="#22C3FF">
            <g id="Group">
                <path d="M11.1513574,0.20684129 L7.80925553,0.383287886 C7.75056821,0.386314403 7.69314433,0.40113044 7.64055493,0.426814629 L6.74917571,0.863198571 L5.49531798,1.38998429 C5.31428258,1.46636635 5.20984253,1.65384188 5.24226649,1.84422537 L5.28900112,2.11989497 L4.14685059,2.94020749 C4.11761168,2.96104212 4.09118445,2.98541747 4.06819928,3.01275211 L3.25547138,3.98596629 C3.13644489,4.12851866 3.12627399,4.33040444 3.23039407,4.48373429 L3.53587978,4.93239486 L3.70344058,6.24935943 C3.70960394,6.29638442 3.72386445,6.34204616 3.74561603,6.384404 L3.87898056,6.64556457 L1.92866191,8.55404686 C1.90310407,8.57910436 1.88088973,8.60722978 1.86254896,8.637752 L0.959771178,10.1411006 C0.940351556,10.1732369 0.925401122,10.2077681 0.915316139,10.2437789 L0.644027295,11.2169931 C0.594760114,11.3955129 0.670695842,11.5845623 0.830965836,11.6823949 L1.19002496,11.9022611 L0.514081571,12.9625291 C0.442061508,13.0757934 0.429365719,13.2158478 0.479885881,13.3397611 L1.02132435,14.6667703 C1.03655662,14.704469 1.05728995,14.7398065 1.08287753,14.7716806 L2.76760691,16.8542697 L4.19130563,19.9033771 C4.19167267,19.9052398 4.19205262,19.9071001 4.19244543,19.9089577 L4.82507358,21.2359663 C4.86316213,21.3162288 4.92620163,21.3826398 5.00517333,21.4256983 L7.44449684,22.7515914 C7.44487677,22.7515919 7.4452567,22.7515919 7.44563663,22.7515914 L9.08819116,23.636636 L9.74019704,26.1902074 L9.31274536,27.946904 C9.29836109,28.0058546 9.29719453,28.0671571 9.30932597,28.1265914 L9.73905724,30.2315023 L9.14062478,32.074136 C9.11323155,32.1588655 9.11402999,32.2499241 9.14290496,32.3341806 L9.57035663,33.5897611 L9.48372615,36.1198949 L8.77358649,38.7270377 C8.76559572,38.7569567 8.76100846,38.7876491 8.75990833,38.8185554 L8.66871865,41.1176629 C8.66773848,41.1475784 8.67003113,41.1775108 8.67555744,41.2069486 L8.94570707,42.7102966 L9.3024866,44.7192251 L9.39253648,46.3743594 C9.39417467,46.4045573 9.39914306,46.4344932 9.40735502,46.4636451 L10.1288932,49.0283771 C10.1381774,49.0614784 10.151576,49.0933387 10.1687885,49.1232434 L10.9815164,50.5384217 C11.030606,50.6233529 11.1084025,50.6888689 11.2015114,50.7236897 L13.5507856,51.6076183 C13.6577533,51.6480763 13.7768211,51.6448602 13.8813481,51.5986897 L14.8753155,51.1567251 C14.9987269,51.1017849 15.0882991,50.9928961 15.1168274,50.8631302 C15.1453558,50.7333642 15.1094737,50.5980346 15.0200792,50.4982434 L13.7810394,49.1109663 L13.3889238,48.4725737 L14.1446583,47.2147611 L15.1146888,46.0931091 C15.1996008,45.9948309 15.2337261,45.8638217 15.2072582,45.73773 C15.1807904,45.6116383 15.0966601,45.5044264 14.9790441,45.446904 L13.997615,44.9658771 L13.855131,44.757172 L14.7111741,44.5484663 C14.9021824,44.5018739 15.0361873,44.3338372 15.0360375,44.1411006 L15.0360375,43.6076183 L15.4520901,43.199136 C15.5554929,43.0977638 15.5989046,42.951731 15.5672172,42.8118594 L15.3871175,42.0161006 C15.3794606,41.9824353 15.3675925,41.949823 15.351782,41.9190023 L15.2047381,41.631056 L16.0915582,41.5518149 C16.2727177,41.5354104 16.4235398,41.4087693 16.4677154,41.2359663 L16.761802,40.0875291 L19.1942867,39.6902074 C19.3010347,39.6728944 19.3971389,39.616675 19.4632959,39.5328411 L20.3672141,38.383288 C20.4707101,38.2511457 20.4845767,38.0715748 20.4025496,37.9256983 L19.8645305,36.9602966 L19.8565519,36.9435554 L20.795805,37.0406537 C20.8839187,37.0496856 20.9727252,37.0317494 21.0499963,36.9893149 L22.4953529,36.1924394 C22.5634077,36.155125 22.6197675,36.100328 22.6583545,36.0339577 L23.7913861,34.070788 L26.3458368,32.0875291 C26.4480249,32.0080077 26.5076132,31.8872107 26.5076986,31.759404 L26.5076986,30.5239131 L26.9579474,29.5685554 L28.5663056,28.5451183 L31.5242705,28.3743594 C31.6579781,28.3665922 31.7802814,28.2980457 31.8548329,28.1890914 L33.1200898,26.3308326 C33.1297543,26.3164914 33.1385099,26.3015823 33.1463069,26.2861897 L34.0502245,24.5172166 C34.0678498,24.4826291 34.0805081,24.4458224 34.0878401,24.4078411 L34.787721,20.8085109 L37.9599819,17.3576183 C38.0503582,17.259157 38.0879631,17.1247028 38.0614303,16.9948949 L37.5188515,14.3419931 C37.4888968,14.1945118 37.3806113,14.0740101 37.2350237,14.0261451 L36.4998073,13.7861897 L34.303276,11.9803863 C34.2619225,11.9462847 34.2143504,11.9201551 34.1630715,11.9033771 L33.3503436,11.637752 C33.3269428,11.6301591 33.3029163,11.6245579 33.2785316,11.6210109 L31.4718363,11.3565023 C31.3540815,11.3392874 31.234321,11.3708262 31.1412738,11.4435554 L30.982832,11.5674394 L31.0238671,10.819672 C31.0337926,10.6340918 30.9178314,10.4642357 30.7388995,10.4022611 L27.9382367,9.43016286 C27.9167218,9.42249023 27.8946133,9.41651872 27.8721237,9.41230571 L26.8781569,9.23596629 C26.8265422,9.22659911 26.7736087,9.22659911 26.721994,9.23596629 L25.7941395,9.40895771 L26.3515363,8.54511829 C26.4190264,8.44027813 26.4357169,8.31158427 26.3971312,8.19355543 L25.6744532,5.98261829 C25.6423652,5.88463811 25.5746175,5.80162243 25.4840946,5.74935943 L23.0459103,4.33418057 C23.0026148,4.30914438 22.9551559,4.29176605 22.9057064,4.28284114 L20.1210014,3.77168057 L19.3082735,3.134404 L16.5144501,0.752707486 C16.4299137,0.680493999 16.319821,0.64362765 16.2078246,0.650028914 L14.6724186,0.738198571 C14.6689992,0.738158484 14.6655793,0.738158484 14.6621599,0.738198571 L12.6195112,0.905609257 L11.3759122,0.256055714 C11.3127772,0.223177765 11.2422413,0.206295698 11.1707351,0.20684129 C11.1642767,0.20684129 11.1578158,0.20684129 11.1513574,0.20684129 Z" id="Path"></path>
            </g>
        </g>
    </g>
</svg>