<svg width="38" height="32" viewBox="0 0 38 32" fill="none" xmlns="http://www.w3.org/2000/svg">
<path d="M32.2122 3.42683L33.3603 2.74972C33.4718 2.68402 33.6073 2.65446 33.7422 2.6664C33.8772 2.67834 34.0026 2.73099 34.0958 2.81481L35.6509 4.21269C35.7271 4.28396 35.8334 4.32658 35.9464 4.3312C36.0595 4.33581 36.1701 4.30204 36.2539 4.2373C36.3377 4.17256 36.3879 4.08217 36.3933 3.986C36.3987 3.88983 36.359 3.79577 36.2829 3.72451L32.6303 0.16511C32.5771 0.113243 32.5113 0.0716726 32.4376 0.043194C32.3639 0.0147154 32.2838 -1.2359e-05 32.2028 7.7818e-09H29.6564C29.6191 0.00012854 29.5819 0.00331859 29.5453 0.00952566L27.7476 0.315138C27.6816 0.325574 27.6183 0.346008 27.5609 0.375467L26.3745 0.986692C26.2713 1.03968 26.151 1.06331 26.031 1.05417L23.8841 0.895405C23.7941 0.888586 23.7074 0.863545 23.6311 0.822376L22.3309 0.123833C22.2591 0.0852281 22.178 0.060833 22.0937 0.0524517C22.0094 0.0440703 21.9239 0.0519166 21.8436 0.0754107L19.4979 0.76681C19.4726 0.774128 19.448 0.782879 19.4241 0.793005L17.6618 1.55982C17.6184 1.57869 17.5723 1.59257 17.5246 1.60109L16.4372 1.79875C16.2909 1.82582 16.1379 1.80272 16.0115 1.73445L15.4711 1.44154C15.4034 1.40505 15.3274 1.38116 15.2481 1.37145C15.1688 1.36173 15.0879 1.36641 15.0109 1.38518L14.3836 1.53759C14.3585 1.54378 14.3329 1.54856 14.3071 1.55188L12.7352 1.74001C12.6161 1.75379 12.495 1.7351 12.3893 1.68663C12.2836 1.63815 12.1986 1.5624 12.1467 1.47026C12.0949 1.37812 12.0787 1.27436 12.1006 1.17391C12.1224 1.07346 12.1812 0.981507 12.2685 0.911281C12.3212 0.868992 12.3605 0.815986 12.3825 0.757248C12.4046 0.698509 12.4087 0.635967 12.3945 0.575504L12.3525 0.396899C12.3376 0.329257 12.3004 0.266603 12.2453 0.216252C12.1901 0.165901 12.1193 0.12993 12.041 0.112536C11.9627 0.0951423 11.8802 0.0970441 11.8031 0.118019C11.7261 0.138994 11.6576 0.178177 11.6057 0.230995L10.872 0.95494C10.8459 0.980864 10.8164 1.00429 10.7843 1.02479L9.5307 1.83447C9.4483 1.88757 9.3852 1.95939 9.34869 2.04165L9.23761 2.29805C9.20839 2.36515 9.16199 2.42588 9.10177 2.47585C9.04156 2.52583 8.96903 2.56379 8.88944 2.58699L7.2354 3.06883C7.09764 3.10879 6.9833 3.19238 6.91616 3.3022L6.03967 4.73104C6.00084 4.79415 5.97915 4.86387 5.9762 4.93505L5.90619 6.44882C5.90243 6.52807 5.87576 6.6053 5.82855 6.6737C5.78133 6.7421 5.71503 6.79954 5.63549 6.84096L4.80567 7.27358C4.72707 7.31464 4.66143 7.37138 4.61442 7.43888C4.56742 7.50638 4.54047 7.5826 4.53591 7.66095L4.4743 8.71591C4.46788 8.8223 4.41842 8.92354 4.33429 9.00247L4.12987 9.19457C4.07191 9.24906 4.00008 9.29157 3.91987 9.31887C3.83966 9.34616 3.75318 9.35753 3.66702 9.35209C3.58086 9.34666 3.4973 9.32457 3.4227 9.2875C3.34811 9.25043 3.28445 9.19937 3.23657 9.13821L2.73999 8.50317C2.67411 8.41908 2.57886 8.3547 2.46766 8.31909C2.35646 8.28349 2.23493 8.27846 2.12019 8.30472L1.73748 8.39204C1.63291 8.41601 1.53859 8.46491 1.46565 8.53299C1.39271 8.60107 1.3442 8.68548 1.32584 8.77624L1.13915 9.71769C1.12307 9.79905 1.13179 9.88257 1.16448 9.96025C1.19716 10.0379 1.25272 10.1072 1.32584 10.1614L1.72815 10.4623C1.78551 10.5052 1.83207 10.5576 1.86504 10.6162C1.89801 10.6749 1.91672 10.7386 1.92003 10.8035C1.92334 10.8685 1.9112 10.9333 1.88432 10.9942C1.85744 11.055 1.81639 11.1106 1.76362 11.1576L0.535222 12.2531C0.444199 12.3345 0.389402 12.4403 0.380272 12.5523L0.00316589 17.0865C-0.0010553 17.1206 -0.0010553 17.1549 0.00316589 17.1889L0.574426 20.557C0.59391 20.6716 0.661199 20.7764 0.764015 20.8524C0.86683 20.9283 0.998318 20.9702 1.13449 20.9706H4.3903C4.46804 20.9706 4.54496 20.957 4.61626 20.9306C4.68756 20.9043 4.75171 20.8657 4.80474 20.8174L5.58135 20.1117C5.67 20.0313 5.72355 19.9274 5.73307 19.8175C5.74258 19.7076 5.70748 19.5982 5.63363 19.5076L4.79354 18.4685C4.74571 18.4095 4.68303 18.3603 4.61005 18.3245C4.53708 18.2886 4.45563 18.2671 4.37163 18.2613L3.99265 18.2351C3.86751 18.2266 3.74923 18.183 3.65633 18.1112C3.56344 18.0394 3.50116 17.9434 3.47927 17.8383L3.01255 15.6482C2.99393 15.5604 3.01401 15.4698 3.06894 15.3938C3.12387 15.3178 3.2098 15.2617 3.31032 15.2362L3.40366 15.2116C3.51122 15.1839 3.62726 15.1934 3.72665 15.238C3.82605 15.2826 3.90082 15.3586 3.93478 15.4497L4.54618 17.1476C4.5735 17.2223 4.62175 17.2903 4.6868 17.3456C4.75184 17.4009 4.83172 17.4419 4.91955 17.4652L5.26865 17.5588C5.39194 17.5918 5.49831 17.6596 5.57015 17.7509L5.81005 18.0573C5.86463 18.1249 5.9385 18.1795 6.02473 18.2161L8.41525 19.248C8.49434 19.2821 8.56281 19.3316 8.61501 19.3925L10.5752 21.6588L10.6863 21.8017L11.3453 24.3418C11.3516 24.3969 11.3689 24.4506 11.3966 24.5006L12.8472 27.1043C12.8921 27.1849 12.9626 27.2534 13.0507 27.3019L14.224 27.9505C14.3409 28.015 14.4815 28.0407 14.6193 28.0227C14.757 28.0047 14.8821 27.9442 14.9707 27.8528L15.1257 27.6941C15.1662 27.6524 15.1951 27.6035 15.2105 27.551C15.2258 27.4985 15.2272 27.4438 15.2144 27.3908L14.729 25.3587C14.7046 25.2566 14.7197 25.1505 14.7719 25.0563L15.3992 23.9299C15.4463 23.8455 15.5212 23.7747 15.6148 23.7259L18.1024 22.424C18.2225 22.361 18.366 22.3383 18.5047 22.3605L20.0692 22.6098C20.1614 22.6245 20.2478 22.6585 20.3208 22.7087C20.3938 22.7588 20.451 22.8236 20.4873 22.8971L21.1566 24.2633C21.1942 24.3393 21.2542 24.4058 21.3306 24.4565C21.4071 24.5073 21.4976 24.5405 21.5934 24.553L22.6902 24.6967C22.7771 24.708 22.8596 24.7364 22.9314 24.7795C23.0031 24.8226 23.0621 24.8793 23.1037 24.9451L23.4846 25.5468C23.543 25.6399 23.564 25.7467 23.5443 25.8509L23.422 26.4756C23.4093 26.5397 23.4122 26.6053 23.4304 26.6685L23.7282 27.7123C23.7427 27.7629 23.7666 27.8111 23.7991 27.8552L24.0848 28.241C24.1399 28.3154 24.1689 28.4016 24.1684 28.4895C24.168 28.5775 24.138 28.6635 24.082 28.7374C24.026 28.8113 23.9464 28.8702 23.8525 28.9069C23.7586 28.9437 23.6542 28.957 23.5518 28.9451C23.4381 28.9327 23.3227 28.9512 23.2221 28.998C23.1215 29.0447 23.0409 29.1174 22.9918 29.2055C22.9427 29.2935 22.9277 29.3926 22.9488 29.4884C22.9699 29.5842 23.0261 29.6719 23.1093 29.7389L24.6691 30.9653C24.6917 30.9832 24.716 30.9994 24.7419 31.0137L26.3941 31.9401C26.4593 31.9766 26.535 31.9972 26.613 31.9997C26.691 32.0023 26.7683 31.9866 26.8365 31.9544L27.0727 31.8472C27.1612 31.8054 27.2293 31.7383 27.265 31.6577C27.3008 31.5772 27.3017 31.4885 27.2678 31.4075L27.0382 30.8653C27.0133 30.8069 26.9756 30.753 26.9271 30.7065L26.4604 30.0397L26.395 29.8111C26.4507 29.6974 26.453 29.5699 26.4016 29.4547L26.0599 28.6879C26.0242 28.6076 25.9639 28.537 25.8854 28.4831L24.7092 27.6766C24.6478 27.6347 24.5973 27.5823 24.561 27.5229C24.5247 27.4634 24.5033 27.3982 24.4983 27.3314C24.4933 27.2645 24.5047 27.1975 24.5319 27.1346C24.5591 27.0717 24.6013 27.0144 24.656 26.9661L25.0415 26.6248C25.1207 26.5549 25.2228 26.5069 25.3345 26.487C25.4463 26.4672 25.5624 26.4765 25.6679 26.5137L26.8188 26.9193C26.902 26.9487 26.9922 26.9608 27.082 26.9545C27.1717 26.9483 27.2585 26.924 27.335 26.8836L28.7025 26.1636C28.7675 26.1295 28.8237 26.0845 28.8678 26.0315C28.9119 25.9784 28.943 25.9183 28.9592 25.8548L29.1094 25.2595C29.1278 25.1863 29.1259 25.1104 29.1039 25.038C29.0818 24.9655 29.0403 24.8984 28.9825 24.8419L28.0733 23.9529C28.0084 23.8892 27.9642 23.8123 27.9451 23.7296C27.926 23.6469 27.9327 23.5614 27.9645 23.4817C27.9964 23.4019 28.0522 23.3306 28.1264 23.2748C28.2007 23.219 28.2909 23.1808 28.3879 23.1638L29.3624 22.9948C29.4886 22.9741 29.6028 22.9175 29.6863 22.8344L30.7355 21.7572C30.7882 21.7032 30.8264 21.6401 30.8475 21.5723L30.9735 21.1651C31.0111 21.0434 31.1033 20.9391 31.2302 20.8745L32.1776 20.3911C32.2786 20.3394 32.3582 20.2623 32.4054 20.1704L33.7514 17.5509C33.7819 17.4906 33.7977 17.4256 33.7977 17.36C33.7977 17.2943 33.7819 17.2294 33.7514 17.1691L33.3612 16.3864C33.3381 16.3402 33.3066 16.2973 33.2679 16.2594L32.4147 15.4172C32.3587 15.3616 32.2747 15.3378 32.2336 15.2632L32.1282 14.9314L32.4082 14.3281C32.4506 14.2782 32.4774 14.22 32.486 14.1589C32.4947 14.0978 32.4849 14.0359 32.4577 13.9789C32.4304 13.9219 32.3865 13.8717 32.3302 13.8331C32.2739 13.7945 32.2069 13.7687 32.1356 13.7581L31.8621 13.7176C31.7722 13.7046 31.6874 13.6733 31.6147 13.6264C31.5421 13.5795 31.4838 13.5185 31.4448 13.4484C31.4058 13.3783 31.3872 13.3012 31.3906 13.2238C31.3941 13.1463 31.4194 13.0706 31.4645 13.0032L31.514 12.9286C31.5635 12.8524 31.6374 12.7896 31.727 12.7474C31.8167 12.7053 31.9185 12.6856 32.0208 12.6905L32.8264 12.7317C32.9147 12.7364 33.0006 12.7586 33.077 12.7965C33.1535 12.8344 33.2186 12.887 33.2669 12.95L34.107 14.0423C34.1538 14.1032 34.2162 14.1543 34.2895 14.1918C34.3628 14.2293 34.4451 14.2523 34.5303 14.2589C34.6155 14.2656 34.7014 14.2557 34.7815 14.2302C34.8616 14.2046 34.9338 14.164 34.9929 14.1114L35.1058 14.0106C35.1817 13.9422 35.2313 13.8559 35.248 13.763C35.2647 13.6701 35.2476 13.5751 35.1992 13.4906L34.1294 11.618C34.0841 11.5383 34.0655 11.4494 34.0755 11.3612C34.0855 11.273 34.1239 11.1889 34.1864 11.1179L34.4664 10.8004C34.5637 10.6866 34.6837 10.5883 34.8211 10.5099L34.8696 10.2821L34.5233 6.74967C34.5068 6.67479 34.469 6.60449 34.4132 6.54487L33.6665 5.75107C33.6071 5.6881 33.5248 5.6437 33.4326 5.62487C33.3403 5.60605 33.2433 5.61386 33.1568 5.64709L32.9841 5.71456C32.9263 5.73687 32.8634 5.74795 32.7999 5.74701C32.7365 5.74606 32.674 5.73311 32.6172 5.70909C32.5604 5.68507 32.5105 5.65059 32.4713 5.60815C32.4321 5.5657 32.4045 5.51637 32.3904 5.46372L31.9835 3.93089C31.9583 3.83706 31.9665 3.73896 32.0073 3.64916C32.048 3.55936 32.1194 3.48194 32.2122 3.42683Z" fill="#B472F5"/>
<path d="M37.7411 10.8322L37.154 9.75581L37.2538 9.50973L37.2753 9.14141L37.0476 8.81039C36.9591 8.78485 36.8645 8.77886 36.7726 8.79299C36.6806 8.80711 36.5944 8.84089 36.5221 8.89114C36.4498 8.94139 36.3936 9.00646 36.359 9.08024C36.3244 9.15401 36.3124 9.23406 36.3241 9.31287L36.3727 9.63515C36.3838 9.71032 36.4158 9.78217 36.466 9.84471L37.1894 10.7258C37.2586 10.8101 37.2934 10.9113 37.2884 11.014L37.2128 12.4484C37.2089 12.5272 37.1816 12.604 37.1334 12.6714L35.9582 14.3138C35.8856 14.4152 35.861 14.5364 35.8895 14.6526C35.9179 14.7689 35.9972 14.8717 36.1113 14.9401C36.1768 14.9793 36.2516 15.0059 36.3304 15.018C36.4092 15.0302 36.4902 15.0275 36.5677 15.0103C36.6452 14.993 36.7173 14.9616 36.7791 14.9183C36.8408 14.8749 36.8907 14.8206 36.9253 14.7591L37.6225 13.5216C37.6349 13.5001 37.6452 13.4778 37.6534 13.4549L37.9763 12.5484C37.9978 12.488 38.0048 12.4246 37.9969 12.3618L37.8288 11.0426C37.8198 10.9675 37.7897 10.8953 37.7411 10.8322Z" fill="#B472F5"/>
<path d="M33.1942 26.8748C33.0655 26.8074 32.912 26.783 32.7634 26.8063C32.6147 26.8297 32.4816 26.899 32.3896 27.001L31.1696 28.3561C31.123 28.4078 31.0653 28.4517 30.9997 28.4855L29.4278 29.2912C29.3257 29.3435 29.2439 29.42 29.1925 29.5115C29.1411 29.6029 29.1223 29.7051 29.1385 29.8055L29.1814 30.0723C29.2023 30.2029 29.2809 30.3218 29.4013 30.405C29.5216 30.4881 29.6746 30.5292 29.8292 30.52L31.7007 30.4064C31.7908 30.4011 31.8783 30.3787 31.957 30.3409C32.0356 30.3032 32.1034 30.251 32.1553 30.1881L33.1065 29.0451C33.1962 28.9373 33.2343 28.8044 33.2129 28.6736L33.1279 28.1576C33.1063 28.0279 33.1433 27.8959 33.2316 27.7885L33.3753 27.6131C33.4228 27.5551 33.4559 27.4896 33.4725 27.4204C33.4891 27.3512 33.489 27.2799 33.472 27.2107C33.4551 27.1416 33.4217 27.0762 33.3739 27.0184C33.3261 26.9606 33.265 26.9118 33.1942 26.8748Z" fill="#B472F5"/>
</svg>
